<svg width="240" height="240" viewBox="0 0 240 240" fill="none" xmlns="http://www.w3.org/2000/svg">
<path d="M208.325 65.489C206.763 62.9708 205.045 60.5529 203.18 58.2494C192.424 45.0515 179.656 33.2988 164.461 25.4184C140.816 13.1559 110.87 10.2844 85.4239 19.1796C55.2026 29.7397 41.8598 55.6771 36.8463 85.8797C36.1479 90.0982 35.6116 94.34 35.2375 98.6052C33.9888 112.523 34.6014 126.6 32.8991 140.467C31.15 154.675 23.2836 167.335 23.4754 181.899C23.5523 190.184 25.8106 198.302 30.0229 205.437C41.8738 225.145 65.9264 228.311 86.8877 224.883C147.447 214.968 154.294 191.397 179.839 186.201C202.876 181.524 218.656 157.851 223.169 136.085C228.15 112.014 221.139 86.0387 208.325 65.489Z" fill="#3683BD"/>
<path d="M208.325 65.489C206.763 62.9708 205.045 60.5529 203.18 58.2494C192.424 45.0515 179.656 33.2988 164.461 25.4184C140.816 13.1559 110.87 10.2844 85.4239 19.1796C55.2026 29.7397 41.8598 55.6771 36.8463 85.8797C36.1479 90.0982 35.6116 94.34 35.2375 98.6052C33.9888 112.523 34.6014 126.6 32.8991 140.467C31.15 154.675 23.2836 167.335 23.4754 181.899C23.5523 190.184 25.8106 198.302 30.0229 205.437C41.8738 225.145 65.9264 228.311 86.8877 224.883C147.447 214.968 154.294 191.397 179.839 186.201C202.876 181.524 218.656 157.851 223.169 136.085C228.15 112.014 221.139 86.0387 208.325 65.489Z" fill="#E6E6E6"/>
<g opacity="0.3">
<path d="M42.4585 46.492V47.6612" stroke="black" stroke-width="0.467677" stroke-linejoin="round"/>
<path d="M42.4585 50.1866V59.0257" stroke="black" stroke-width="0.467677" stroke-linejoin="round" stroke-dasharray="2.53 2.53"/>
<path d="M42.4585 60.2885V61.4576H43.6277" stroke="black" stroke-width="0.467677" stroke-linejoin="round"/>
<path d="M45.9238 61.4576H118.245" stroke="black" stroke-width="0.467677" stroke-linejoin="round" stroke-dasharray="2.3 2.3"/>
<path d="M119.391 61.4576H120.561V62.6268" stroke="black" stroke-width="0.467677" stroke-linejoin="round"/>
<path d="M120.561 64.9745V181.178" stroke="black" stroke-width="0.467677" stroke-linejoin="round" stroke-dasharray="2.35 2.35"/>
<path d="M120.561 182.352V183.521H121.73" stroke="black" stroke-width="0.467677" stroke-linejoin="round"/>
<path d="M123.133 183.521H125.237" stroke="black" stroke-width="0.467677" stroke-linejoin="round" stroke-dasharray="1.4 1.4"/>
<path d="M125.939 183.521H127.108" stroke="black" stroke-width="0.467677" stroke-linejoin="round"/>
<path d="M27.9602 180.248V179.078" stroke="black" stroke-width="0.467677" stroke-linejoin="round"/>
<path d="M27.9602 176.675V129.771" stroke="black" stroke-width="0.467677" stroke-linejoin="round" stroke-dasharray="2.41 2.41"/>
<path d="M27.9602 128.569V127.4H29.1294" stroke="black" stroke-width="0.467677" stroke-linejoin="round"/>
<path d="M31.2622 127.4H47.2381" stroke="black" stroke-width="0.467677" stroke-linejoin="round" stroke-dasharray="2.13 2.13"/>
<path d="M48.3044 127.4H49.4736V128.569" stroke="black" stroke-width="0.467677" stroke-linejoin="round"/>
<path d="M49.4736 130.889V180.725" stroke="black" stroke-width="0.467677" stroke-linejoin="round" stroke-dasharray="2.32 2.32"/>
<path d="M49.4736 181.885V183.054H50.6428" stroke="black" stroke-width="0.467677" stroke-linejoin="round"/>
<path d="M53.0229 183.054H104.173" stroke="black" stroke-width="0.467677" stroke-linejoin="round" stroke-dasharray="2.38 2.38"/>
<path d="M105.361 183.054H106.53V181.885" stroke="black" stroke-width="0.467677" stroke-linejoin="round"/>
<path d="M106.53 179.537V82.0401" stroke="black" stroke-width="0.467677" stroke-linejoin="round" stroke-dasharray="2.35 2.35"/>
<path d="M106.53 80.8662V79.6971H107.699" stroke="black" stroke-width="0.467677" stroke-linejoin="round"/>
<path d="M109.981 79.6971H200.094" stroke="black" stroke-width="0.467677" stroke-linejoin="round" stroke-dasharray="2.28 2.28"/>
<path d="M201.235 79.6971H202.404" stroke="black" stroke-width="0.467677" stroke-linejoin="round"/>
<path d="M48.0704 35.2022C48.0704 33.7138 47.4792 32.2863 46.4267 31.2338C45.3742 30.1814 43.9467 29.5901 42.4583 29.5901C40.9699 29.5901 39.5424 30.1814 38.4899 31.2338C37.4375 32.2863 36.8462 33.7138 36.8462 35.2022C36.8462 38.2982 42.4583 44.5558 42.4583 44.5558C42.4583 44.5558 48.0704 38.2982 48.0704 35.2022Z" stroke="black" stroke-width="0.467677" stroke-linejoin="round"/>
<path d="M44.8622 35.2022C44.8622 34.7268 44.7212 34.262 44.457 33.8667C44.1929 33.4714 43.8175 33.1633 43.3782 32.9814C42.939 32.7994 42.4556 32.7518 41.9893 32.8446C41.523 32.9373 41.0947 33.1663 40.7585 33.5024C40.4223 33.8386 40.1934 34.267 40.1006 34.7333C40.0079 35.1996 40.0555 35.6829 40.2374 36.1222C40.4194 36.5614 40.7275 36.9368 41.1228 37.201C41.5181 37.4651 41.9829 37.6061 42.4583 37.6061C43.0955 37.6049 43.7062 37.3512 44.1567 36.9007C44.6073 36.4501 44.8609 35.8394 44.8622 35.2022Z" stroke="black" stroke-width="0.467677" stroke-linejoin="round"/>
<path d="M209.569 71.4612C209.531 70.2716 209.031 69.1435 208.177 68.3154C207.322 67.4874 206.178 67.0244 204.988 67.0244C203.798 67.0244 202.654 67.4874 201.799 68.3154C200.944 69.1435 200.445 70.2716 200.407 71.4612C200.407 73.9914 204.99 79.0984 204.99 79.0984C204.99 79.0984 209.569 73.9914 209.569 71.4612Z" stroke="black" stroke-width="0.467677" stroke-linejoin="round"/>
<path d="M204.99 73.4255C206.075 73.4255 206.954 72.5461 206.954 71.4613C206.954 70.3764 206.075 69.497 204.99 69.497C203.905 69.497 203.026 70.3764 203.026 71.4613C203.026 72.5461 203.905 73.4255 204.99 73.4255Z" stroke="black" stroke-width="0.467677" stroke-linejoin="round"/>
<path d="M203.012 100.064C203.039 98.8466 202.823 97.6356 202.376 96.5025C201.929 95.3694 201.26 94.337 200.409 93.466C199.557 92.595 198.54 91.9029 197.418 91.4304C196.295 90.9579 195.089 90.7145 193.871 90.7145C192.653 90.7145 191.447 90.9579 190.325 91.4304C189.202 91.9029 188.185 92.595 187.333 93.466C186.482 94.337 185.813 95.3694 185.366 96.5025C184.919 97.6356 184.703 98.8466 184.73 100.064C184.73 105.111 193.869 115.301 193.869 115.301C193.869 115.301 203.012 105.111 203.012 100.064Z" stroke="black" stroke-width="0.467677" stroke-linejoin="round"/>
<path d="M193.869 103.983C196.033 103.983 197.788 102.229 197.788 100.064C197.788 97.8999 196.033 96.1452 193.869 96.1452C191.704 96.1452 189.95 97.8999 189.95 100.064C189.95 102.229 191.704 103.983 193.869 103.983Z" stroke="black" stroke-width="0.467677" stroke-linejoin="round"/>
<path d="M52.0506 108.328C52.0506 106.44 51.3006 104.63 49.9657 103.295C48.6308 101.96 46.8203 101.21 44.9325 101.21C43.0447 101.21 41.2342 101.96 39.8993 103.295C38.5644 104.63 37.8145 106.44 37.8145 108.328C37.8145 112.257 44.9325 120.189 44.9325 120.189C44.9325 120.189 52.0506 112.257 52.0506 108.328Z" stroke="black" stroke-width="0.467677" stroke-linejoin="round"/>
<path d="M47.9816 108.328C47.9816 107.725 47.8027 107.136 47.4677 106.634C47.1326 106.133 46.6564 105.742 46.0992 105.511C45.542 105.28 44.9289 105.22 44.3374 105.338C43.7459 105.455 43.2026 105.746 42.7762 106.172C42.3497 106.599 42.0593 107.142 41.9416 107.733C41.824 108.325 41.8844 108.938 42.1152 109.495C42.346 110.052 42.7368 110.529 43.2382 110.864C43.7397 111.199 44.3292 111.378 44.9323 111.378C45.3327 111.378 45.7293 111.299 46.0992 111.145C46.4692 110.992 46.8053 110.768 47.0885 110.484C47.3716 110.201 47.5962 109.865 47.7495 109.495C47.9027 109.125 47.9816 108.729 47.9816 108.328Z" stroke="black" stroke-width="0.467677" stroke-linejoin="round"/>
<path d="M31.6034 188.759C31.6034 188.158 31.485 187.563 31.2549 187.007C31.0248 186.452 30.6875 185.947 30.2624 185.522C29.8372 185.097 29.3325 184.759 28.777 184.529C28.2215 184.299 27.6261 184.181 27.0249 184.181C26.4236 184.181 25.8282 184.299 25.2727 184.529C24.7172 184.759 24.2125 185.097 23.7873 185.522C23.3622 185.947 23.0249 186.452 22.7948 187.007C22.5647 187.563 22.4463 188.158 22.4463 188.759C22.4463 191.289 27.0249 196.392 27.0249 196.392C27.0249 196.392 31.6034 191.289 31.6034 188.759Z" stroke="black" stroke-width="0.467677" stroke-linejoin="round"/>
<path d="M27.025 190.724C28.1099 190.724 28.9893 189.844 28.9893 188.759C28.9893 187.675 28.1099 186.795 27.025 186.795C25.9402 186.795 25.0608 187.675 25.0608 188.759C25.0608 189.844 25.9402 190.724 27.025 190.724Z" stroke="black" stroke-width="0.467677" stroke-linejoin="round"/>
</g>
<path d="M163.119 40.4963V182.811C163.119 186.593 161.618 190.221 158.945 192.897C156.272 195.573 152.647 197.079 148.864 197.084H81.1727C77.3871 197.084 73.7566 195.58 71.0798 192.903C68.403 190.227 66.8992 186.596 66.8992 182.811V40.4963C66.9004 36.7116 68.4048 33.0823 71.0814 30.4065C73.7581 27.7307 77.3879 26.2275 81.1727 26.2275H109.477L109.505 26.3304C110.342 29.3422 112.269 31.3018 114.406 31.3018H115.631C117.768 31.3018 119.695 29.3422 120.532 26.3304L120.565 26.2275H148.864C152.646 26.2325 156.271 27.7378 158.943 30.4131C161.616 33.0883 163.118 36.7148 163.119 40.4963Z" fill="#C3DAEB"/>
<path d="M125.915 130.463V85.4308H146.587C146.766 85.4312 146.941 85.3804 147.092 85.2842C147.243 85.188 147.363 85.0506 147.438 84.8883L163.119 50.5608V46.0617L145.965 83.5601H125.915V26.2275H124.045V49.298C105.375 47.4554 94.436 56.2571 88.5292 64.0579C84.8162 69.0333 82.0557 74.6527 80.387 80.6324L66.8992 72.0692V74.286L91.0547 89.6212V116.985L66.9132 112.579V114.483L124.059 124.903V130.047L66.9132 175.693V178.087L92.7571 157.444L112.451 184.101C112.538 184.219 112.652 184.315 112.782 184.38C112.913 184.446 113.058 184.48 113.204 184.48C113.283 184.48 113.361 184.471 113.438 184.452L144.487 176.502V197.084H146.358V158.356C146.357 158.183 146.309 158.014 146.218 157.867C146.127 157.72 145.997 157.601 145.843 157.523L138.87 153.997L150.786 140.996L163.119 145.747V143.769L150.833 139.045C150.658 138.977 150.465 138.963 150.282 139.005C150.098 139.048 149.932 139.145 149.804 139.284L137.121 153.122L113.241 141.042L125.56 131.198C125.671 131.11 125.76 130.999 125.822 130.871C125.883 130.744 125.915 130.605 125.915 130.463ZM144.473 158.931V174.523L113.569 182.441L94.2069 156.251L111.633 142.328L144.473 158.931ZM124.045 122.985L92.9114 117.308V90.781L124.045 110.564V122.985ZM124.045 108.333L82.0472 81.6753C83.6333 75.7233 86.3309 70.125 89.9978 65.1757C98.1634 54.391 109.612 49.6815 124.021 51.1454L124.045 108.333Z" fill="white"/>
<path d="M163.138 111.209H160.336L153.265 128.892H139.123L146.587 111.602H135.587V94.7095H152.087L163.138 73.2571V111.209Z" fill="#AFC4D3"/>
<path d="M84.5494 42.7505H70.519V54.4425H84.5494V42.7505Z" fill="#AFC4D3"/>
<path d="M96.9895 42.7505H86.8877V51.1687H96.9895V42.7505Z" fill="#AFC4D3"/>
<path d="M86.2703 79.987L120.995 102.412V55.3778C120.995 55.3778 96.157 52.9833 86.2703 79.987Z" fill="#AFC4D3"/>
<path d="M106.53 42.7505H99.9827V48.2083H106.53V42.7505Z" fill="#AFC4D3"/>
<path d="M118.69 152.655L106.062 161.541L113.078 174.635L138.332 173.232L139.735 161.073L129.914 156.864L125.705 163.411L121.496 161.073L125.237 154.058L118.69 152.655Z" fill="#AFC4D3"/>
<path d="M78.2263 126.273V151.537L66.8992 157.299V125.74L78.2263 126.273Z" fill="#AFC4D3"/>
<path d="M97.0829 141.954V127.162L81.3689 126.423V149.942L97.0829 141.954Z" fill="#AFC4D3"/>
<path d="M99.4402 127.274V140.757L108.869 135.963V127.713L99.4402 127.274Z" fill="#AFC4D3"/>
<path d="M169.26 78.4764V60.3913H167.623V37.2366C167.622 33.4514 166.117 29.8216 163.441 27.1451C160.764 24.4686 157.134 22.9643 153.349 22.9631H76.6876C72.9024 22.9643 69.2726 24.4686 66.596 27.1451C63.9195 29.8216 62.4153 33.4514 62.4141 37.2366V193.006C62.4141 196.791 63.9179 200.422 66.5947 203.099C69.2715 205.776 72.902 207.279 76.6876 207.279H153.349C157.135 207.279 160.765 205.776 163.442 203.099C166.119 200.422 167.623 196.791 167.623 193.006V93.8911H169.26V83.2046H167.623V78.4764H169.26ZM163.119 182.811C163.119 186.593 161.618 190.221 158.945 192.897C156.272 195.573 152.647 197.079 148.864 197.084H81.1726C77.387 197.084 73.7565 195.58 71.0797 192.903C68.4029 190.227 66.8991 186.596 66.8991 182.811V40.4963C66.9003 36.7116 68.4047 33.0822 71.0814 30.4065C73.758 27.7307 77.3878 26.2275 81.1726 26.2275H109.476L109.504 26.3304C110.342 29.3422 112.268 31.3018 114.406 31.3018H115.631C117.768 31.3018 119.695 29.3422 120.532 26.3304L120.565 26.2275H148.864C152.646 26.2324 156.271 27.7378 158.943 30.4131C161.616 33.0883 163.118 36.7148 163.119 40.4963V182.811Z" fill="#707070" stroke="#263238" stroke-width="0.467677" stroke-linejoin="round"/>
<path d="M151.698 24.932H78.3384C76.4642 24.932 74.6084 25.3012 72.8769 26.0186C71.1454 26.736 69.5722 27.7874 68.2472 29.1129C66.9221 30.4384 65.8712 32.0119 65.1544 33.7436C64.4376 35.4753 64.069 37.3313 64.0696 39.2055V191.042C64.0696 194.826 65.5727 198.456 68.2485 201.133C70.9243 203.81 74.5537 205.314 78.3384 205.315H151.698C155.483 205.314 159.112 203.81 161.788 201.133C164.464 198.456 165.967 194.826 165.967 191.042V39.2055C165.968 37.3313 165.599 35.4753 164.882 33.7436C164.166 32.0119 163.115 30.4384 161.79 29.1129C160.464 27.7874 158.891 26.736 157.16 26.0186C155.428 25.3012 153.572 24.932 151.698 24.932ZM163.119 182.811C163.119 186.593 161.618 190.221 158.945 192.897C156.272 195.573 152.646 197.079 148.864 197.084H81.1725C77.387 197.084 73.7564 195.58 71.0796 192.903C68.4028 190.227 66.899 186.596 66.899 182.811V40.4963C66.9003 36.7115 68.4046 33.0822 71.0813 30.4064C73.758 27.7306 77.3878 26.2275 81.1725 26.2275H109.476L109.504 26.3304C110.342 29.3422 112.268 31.3018 114.406 31.3018H115.631C117.768 31.3018 119.695 29.3422 120.532 26.3304L120.565 26.2275H148.864C152.646 26.2324 156.271 27.7378 158.943 30.413C161.616 33.0883 163.118 36.7148 163.119 40.4963V182.811Z" fill="#263238" stroke="#263238" stroke-width="0.467677" stroke-linejoin="round"/>
<path d="M114.724 28.2479C115.463 28.2479 116.061 27.649 116.061 26.9103C116.061 26.1716 115.463 25.5728 114.724 25.5728C113.985 25.5728 113.386 26.1716 113.386 26.9103C113.386 27.649 113.985 28.2479 114.724 28.2479Z" fill="white"/>
<path d="M75.4528 32.0454C75.4528 33.4017 73.9328 33.888 73.9235 34.9263V34.9964H75.4013V35.4641H73.4277V35.0806C73.4277 33.6261 74.9524 33.3455 74.9524 32.0781C74.9524 31.6105 74.798 31.3719 74.4239 31.3719C74.0497 31.3719 73.9001 31.6385 73.9001 32.036V32.4336H73.4324V32.0688C73.4324 31.3813 73.7504 30.923 74.4426 30.923C75.1348 30.923 75.4528 31.3579 75.4528 32.0454Z" fill="#263238"/>
<path d="M77.9129 32.0407V32.1576C77.9388 32.3516 77.8996 32.5487 77.8014 32.7179C77.7032 32.8872 77.5516 33.0191 77.3704 33.093C77.5502 33.1688 77.7004 33.3011 77.7983 33.4699C77.8961 33.6386 77.9364 33.8347 77.9129 34.0283V34.3744C77.9129 35.0619 77.5949 35.5109 76.8981 35.5109C76.2012 35.5109 75.8926 35.0432 75.8926 34.3744V34.0517H76.3603V34.3931C76.3603 34.7953 76.5286 35.0385 76.8887 35.0385C77.2488 35.0385 77.4125 34.8 77.4125 34.3464V34.0003C77.4125 33.556 77.2255 33.3455 76.8466 33.3315H76.5988V32.8638H76.8934C76.9713 32.8647 77.0484 32.8486 77.1194 32.8168C77.1904 32.7849 77.2537 32.738 77.3048 32.6793C77.356 32.6206 77.3938 32.5515 77.4156 32.4768C77.4374 32.4021 77.4427 32.3235 77.4312 32.2465V32.0407C77.4312 31.573 77.2722 31.3392 76.9074 31.3392C76.5426 31.3392 76.379 31.5917 76.379 31.9939V32.2278H75.9113V32.0407C75.9113 31.3532 76.2293 30.9089 76.9168 30.9089C77.6043 30.9089 77.9129 31.3532 77.9129 32.0407Z" fill="#263238"/>
<path d="M78.8856 32.3821V33.0042H78.418V32.3821H78.8856ZM78.8856 34.8281V35.4501H78.418V34.8281H78.8856Z" fill="#263238"/>
<path d="M79.9007 32.7843C79.9663 32.6662 80.0638 32.5689 80.1821 32.5036C80.3003 32.4383 80.4346 32.4075 80.5695 32.4149C81.1494 32.4149 81.402 32.8358 81.402 33.4812V34.3604C81.402 35.0479 81.0746 35.4969 80.3871 35.4969C79.6996 35.4969 79.3816 35.0292 79.3816 34.3604V34.0564H79.8493V34.3931C79.8493 34.7953 80.0176 35.0385 80.3777 35.0385C80.7379 35.0385 80.9015 34.7953 80.9015 34.3931V33.5186C80.9015 33.1117 80.7379 32.8685 80.3777 32.8685C80.3129 32.8626 80.2475 32.8704 80.1858 32.8913C80.1241 32.9121 80.0675 32.9456 80.0195 32.9897C79.9715 33.0337 79.9332 33.0873 79.9071 33.1469C79.8811 33.2066 79.8677 33.2711 79.868 33.3362V33.4391H79.4003L79.5219 30.9417H81.2757V31.4094H79.9522L79.9007 32.7843Z" fill="#263238"/>
<path d="M83.9039 32.0314V32.1155H83.4362V31.9939C83.4362 31.5871 83.2678 31.3486 82.9031 31.3486C82.5383 31.3486 82.3559 31.5917 82.3559 32.0735V33.0836C82.41 32.9379 82.5099 32.8136 82.6406 32.7293C82.7712 32.645 82.9257 32.6052 83.0808 32.616C83.6607 32.616 83.9179 33.0322 83.9179 33.6823V34.3651C83.9179 35.0526 83.5765 35.5015 82.889 35.5015C82.2015 35.5015 81.8555 35.0338 81.8555 34.3651V32.0641C81.8555 31.3532 82.1735 30.9089 82.889 30.9089C83.6046 30.9089 83.9039 31.3439 83.9039 32.0314ZM82.3559 33.715V34.3931C82.3559 34.7953 82.5242 35.0385 82.889 35.0385C83.2538 35.0385 83.4222 34.7953 83.4222 34.3931V33.715C83.4222 33.3128 83.2491 33.0696 82.889 33.0696C82.5289 33.0696 82.3559 33.3128 82.3559 33.715Z" fill="#263238"/>
<path d="M133.001 32.2325H131.729V35.408H133.001V32.2325Z" fill="#263238"/>
<path d="M134.693 31.5964H133.421V35.408H134.693V31.5964Z" fill="#263238"/>
<path d="M136.387 31.1428H135.115V35.4033H136.387V31.1428Z" fill="#263238"/>
<path d="M138.075 30.3571H136.808V35.4033H138.075V30.3571Z" fill="#263238"/>
<path d="M153.789 35.3191H146.171V30.6424H153.789V35.3191ZM146.596 34.8936H153.368V31.0867H146.596V34.8936Z" fill="#263238"/>
<path d="M151.25 31.545H147.228V34.4352H151.25V31.545Z" fill="#263238"/>
<path d="M154.481 32.4429H153.522V33.542H154.481V32.4429Z" fill="#263238"/>
<path d="M143.378 34.3043C143.327 34.3065 143.277 34.2934 143.233 34.2669C141.681 33.3315 140.656 34.2014 140.614 34.2341C140.557 34.2837 140.483 34.3086 140.407 34.3033C140.332 34.2981 140.262 34.2631 140.212 34.2061C140.188 34.1782 140.169 34.1458 140.157 34.1106C140.145 34.0755 140.141 34.0384 140.143 34.0015C140.146 33.9645 140.156 33.9284 140.172 33.8953C140.189 33.8622 140.212 33.8327 140.24 33.8085C140.292 33.7571 141.606 32.6347 143.514 33.7758C143.546 33.7951 143.574 33.8205 143.597 33.8507C143.619 33.8809 143.636 33.9153 143.645 33.9518C143.654 33.9883 143.656 34.0263 143.65 34.0635C143.644 34.1007 143.632 34.1364 143.612 34.1687C143.588 34.2091 143.553 34.2428 143.513 34.2665C143.472 34.2902 143.425 34.3032 143.378 34.3043Z" fill="#263238"/>
<path d="M143.944 33.3502C143.893 33.3495 143.843 33.3349 143.799 33.3081C141.559 31.9752 140.058 33.266 140.035 33.2801C139.977 33.3264 139.904 33.3487 139.83 33.3422C139.757 33.3358 139.689 33.301 139.64 33.2453C139.592 33.1895 139.567 33.1172 139.57 33.0434C139.574 32.9697 139.606 32.9003 139.66 32.8498C139.66 32.8498 141.498 31.2784 144.089 32.8217C144.154 32.8598 144.201 32.922 144.221 32.9946C144.24 33.0673 144.23 33.1447 144.192 33.2099C144.166 33.2523 144.13 33.2875 144.086 33.312C144.043 33.3365 143.994 33.3497 143.944 33.3502Z" fill="#263238"/>
<path d="M144.473 32.2418C144.421 32.2423 144.371 32.2277 144.328 32.1997C141.484 30.5114 139.6 32.1015 139.52 32.1717C139.463 32.2212 139.389 32.2461 139.313 32.2409C139.238 32.2356 139.167 32.2006 139.118 32.1436C139.093 32.1157 139.075 32.0833 139.063 32.0482C139.051 32.0131 139.046 31.9759 139.049 31.939C139.052 31.902 139.062 31.866 139.078 31.8328C139.095 31.7997 139.118 31.7702 139.146 31.7461C139.169 31.7461 141.409 29.8052 144.618 31.7133C144.65 31.7321 144.678 31.7572 144.7 31.7869C144.723 31.8167 144.739 31.8507 144.748 31.8868C144.757 31.923 144.759 31.9606 144.754 31.9974C144.748 32.0343 144.735 32.0697 144.716 32.1015C144.691 32.1439 144.655 32.1791 144.613 32.2036C144.57 32.2282 144.522 32.2414 144.473 32.2418Z" fill="#263238"/>
<path d="M141.807 35.4969C142.202 35.4969 142.523 35.1765 142.523 34.7813C142.523 34.3861 142.202 34.0658 141.807 34.0658C141.412 34.0658 141.092 34.3861 141.092 34.7813C141.092 35.1765 141.412 35.4969 141.807 35.4969Z" fill="#263238"/>
<path d="M209.532 156.036C209.555 156.036 209.999 154.324 209.999 154.212C210.182 152.917 209.77 150.307 208.447 149.666C208.226 149.57 207.987 149.52 207.745 149.521C207.504 149.522 207.266 149.574 207.045 149.672C206.825 149.771 206.628 149.915 206.467 150.094C206.305 150.273 206.183 150.484 206.108 150.714C205.753 151.687 206.202 152.879 206.735 153.698C207.352 154.661 209.532 156.031 209.532 156.036Z" fill="#263238"/>
<path d="M183.514 155.461C184.567 155.928 187.139 155.858 187.139 155.858C187.139 155.858 186.587 154.175 186.54 154.072C185.974 152.893 184.202 150.943 182.738 151.139C182.497 151.177 182.266 151.266 182.061 151.399C181.857 151.532 181.682 151.707 181.55 151.913C181.417 152.118 181.33 152.349 181.293 152.59C181.256 152.832 181.27 153.079 181.335 153.314C181.588 154.329 182.616 155.077 183.514 155.461Z" fill="#263238"/>
<path d="M217.211 146.711C215.752 146.556 214.021 148.553 213.469 149.746C213.423 149.853 212.89 151.551 212.918 151.551H212.946C212.67 151.864 212.38 152.201 212.066 152.58C211.496 153.277 210.86 154.072 210.224 154.988C209.528 155.965 208.891 156.981 208.316 158.033C207.663 159.206 207.117 160.434 206.683 161.704V161.751C206.683 161.325 206.683 160.123 206.66 160.03C206.492 158.734 205.402 156.326 203.962 156.059C203.721 156.021 203.476 156.034 203.241 156.097C203.006 156.16 202.787 156.272 202.598 156.426C202.41 156.579 202.256 156.771 202.147 156.989C202.037 157.206 201.975 157.444 201.965 157.687C201.876 158.72 202.624 159.749 203.368 160.404C204.191 161.138 206.473 161.849 206.641 161.905C206.232 163.209 205.91 164.539 205.678 165.885C205.538 166.671 205.421 167.461 205.313 168.261C205.313 167.887 205.313 167.555 205.313 167.513C205.145 166.213 204.055 163.804 202.615 163.538C202.374 163.5 202.128 163.513 201.894 163.577C201.659 163.641 201.44 163.753 201.251 163.907C201.063 164.061 200.909 164.253 200.8 164.471C200.691 164.688 200.629 164.927 200.618 165.17C200.529 166.199 201.277 167.232 202.021 167.882C202.764 168.532 204.696 169.187 205.21 169.355C205.168 169.659 205.131 169.963 205.093 170.291C204.916 171.759 204.747 173.228 204.537 174.664C204.467 175.169 204.373 175.664 204.284 176.16C204.284 175.833 204.284 175.552 204.284 175.51C204.116 174.215 203.031 171.806 201.586 171.539C201.345 171.502 201.1 171.515 200.865 171.579C200.63 171.643 200.411 171.755 200.222 171.909C200.034 172.063 199.88 172.255 199.771 172.473C199.662 172.69 199.6 172.929 199.589 173.172C199.505 174.201 200.253 175.234 200.992 175.884C201.731 176.534 203.48 177.128 204.088 177.325C203.98 177.83 203.877 178.335 203.751 178.821C203.653 179.149 203.587 179.471 203.475 179.799C203.363 180.126 203.265 180.444 203.166 180.762C202.942 181.365 202.722 181.992 202.493 182.577C202.334 182.984 202.18 183.372 202.025 183.76C202.105 183.255 202.24 182.268 202.24 182.184C202.223 181.034 201.912 179.907 201.338 178.91C201.342 178.782 201.334 178.653 201.314 178.527C201.284 178.285 201.203 178.053 201.078 177.845C200.952 177.636 200.783 177.457 200.583 177.318C200.384 177.179 200.157 177.084 199.918 177.038C199.679 176.993 199.433 176.998 199.196 177.053C197.793 177.432 196.881 179.92 196.811 181.225C196.811 181.3 196.858 182.16 196.9 182.675C196.829 182.366 196.764 182.067 196.684 181.74C196.535 181.113 196.371 180.496 196.193 179.827L195.857 178.845C195.768 178.522 195.628 178.19 195.515 177.858C195.235 177.091 194.917 176.329 194.58 175.566C195.127 175.435 197.068 174.94 197.854 174.346C198.639 173.752 199.453 172.774 199.444 171.741C199.45 171.497 199.406 171.255 199.313 171.031C199.22 170.806 199.081 170.603 198.904 170.435C198.728 170.268 198.518 170.139 198.289 170.058C198.06 169.976 197.816 169.944 197.573 169.963C196.114 170.122 194.851 172.442 194.589 173.705C194.589 173.789 194.486 174.729 194.449 175.243C194.239 174.776 194.033 174.336 193.808 173.878C193.158 172.568 192.457 171.264 191.765 169.954C191.549 169.552 191.344 169.154 191.138 168.752C191.334 168.705 193.649 168.168 194.524 167.499C195.3 166.905 196.119 165.932 196.114 164.898C196.121 164.655 196.076 164.413 195.983 164.188C195.89 163.964 195.751 163.761 195.575 163.593C195.398 163.425 195.188 163.297 194.959 163.216C194.73 163.134 194.486 163.102 194.243 163.121C192.789 163.28 191.526 165.6 191.259 166.863C191.259 166.961 191.119 168.313 191.105 168.659C190.637 167.775 190.193 166.891 189.786 166.002C189.232 164.802 188.754 163.568 188.355 162.308C188.449 162.308 190.871 161.737 191.765 161.049C192.541 160.456 193.364 159.483 193.355 158.449C193.361 158.206 193.317 157.964 193.224 157.739C193.131 157.514 192.992 157.311 192.815 157.144C192.639 156.976 192.429 156.848 192.2 156.766C191.97 156.685 191.726 156.653 191.484 156.672C190.025 156.831 188.762 159.151 188.495 160.413C188.495 160.498 188.383 161.531 188.35 162.022H188.266C187.903 160.742 187.654 159.432 187.523 158.108C187.443 157.383 187.406 156.681 187.382 155.999C187.85 155.942 189.95 155.662 190.824 155.133C191.699 154.605 192.583 153.73 192.695 152.72C192.728 152.479 192.71 152.234 192.642 152.001C192.574 151.767 192.458 151.551 192.301 151.365C192.144 151.179 191.95 151.029 191.731 150.923C191.512 150.817 191.273 150.759 191.03 150.751C189.562 150.751 188.051 152.917 187.649 154.161C187.626 154.231 187.481 154.942 187.378 155.461C187.378 155.157 187.378 154.839 187.378 154.525C187.378 153.417 187.453 152.407 187.523 151.509C187.565 150.994 187.612 150.536 187.663 150.106C188.089 149.811 189.782 148.619 190.305 147.767C190.829 146.916 191.241 145.728 190.848 144.765C190.766 144.536 190.637 144.326 190.47 144.15C190.302 143.974 190.099 143.835 189.874 143.743C189.649 143.65 189.407 143.606 189.164 143.613C188.921 143.62 188.682 143.678 188.463 143.783C187.163 144.456 186.816 147.08 187.032 148.371C187.032 148.478 187.546 150.19 187.565 150.176H187.593C187.537 150.592 187.476 151.037 187.424 151.523C187.336 152.421 187.242 153.436 187.219 154.549C187.178 155.747 187.207 156.946 187.303 158.141C187.406 159.48 187.63 160.807 187.972 162.106C187.97 162.122 187.97 162.138 187.972 162.153C187.738 161.788 187.036 160.797 186.999 160.727C186.143 159.74 183.908 158.332 182.561 158.903C182.339 159.004 182.141 159.151 181.98 159.333C181.819 159.516 181.698 159.731 181.625 159.963C181.552 160.196 181.529 160.441 181.557 160.683C181.586 160.925 181.665 161.158 181.789 161.368C182.289 162.275 183.482 162.719 184.45 162.864C185.54 163.023 187.836 162.354 188.018 162.303C188.397 163.617 188.866 164.903 189.421 166.152C189.735 166.886 190.076 167.611 190.427 168.336C190.217 168.027 190.029 167.756 189.997 167.723C189.141 166.732 186.905 165.324 185.558 165.895C185.337 165.996 185.139 166.142 184.978 166.325C184.816 166.508 184.696 166.722 184.623 166.955C184.55 167.187 184.527 167.433 184.555 167.675C184.583 167.916 184.662 168.15 184.787 168.359C185.287 169.267 186.48 169.716 187.448 169.856C188.416 169.996 190.394 169.468 190.913 169.323C191.054 169.599 191.189 169.875 191.325 170.15C191.989 171.474 192.658 172.793 193.275 174.107C193.495 174.575 193.691 175.042 193.888 175.51C193.705 175.239 193.546 175.01 193.518 174.977C192.662 173.99 190.422 172.578 189.075 173.153C188.854 173.254 188.656 173.401 188.495 173.583C188.333 173.766 188.213 173.981 188.14 174.214C188.068 174.446 188.045 174.692 188.074 174.934C188.103 175.176 188.183 175.409 188.308 175.618C188.804 176.52 189.997 176.969 190.965 177.11C191.933 177.25 193.724 176.777 194.341 176.604C194.528 177.072 194.72 177.568 194.884 178.04C194.987 178.368 195.108 178.672 195.193 179.008C195.277 179.345 195.375 179.658 195.464 179.981C195.618 180.608 195.777 181.253 195.908 181.852C196.002 182.282 196.081 182.689 196.165 183.1C195.955 182.633 195.525 181.74 195.478 181.669C194.781 180.561 192.784 178.831 191.367 179.191C191.13 179.257 190.91 179.372 190.721 179.53C190.532 179.687 190.379 179.883 190.272 180.104C190.164 180.325 190.105 180.566 190.098 180.812C190.091 181.058 190.136 181.302 190.231 181.529C190.586 182.502 191.699 183.124 192.634 183.4C193.663 183.713 195.941 183.428 196.226 183.4C196.362 184.078 196.488 184.742 196.596 185.373C196.979 187.548 197.218 189.372 197.367 190.653C197.391 190.878 197.414 191.084 197.433 191.275H193.023L194.369 217.531H202.414L203.76 191.275H199.598L199.692 191.084C200.253 189.91 201.039 188.222 201.88 186.159C202.152 185.504 202.423 184.803 202.699 184.078C202.975 184.139 205.229 184.597 206.281 184.359C207.217 184.143 208.386 183.606 208.816 182.661C208.923 182.443 208.984 182.204 208.993 181.961C209.002 181.718 208.96 181.476 208.87 181.25C208.779 181.024 208.643 180.82 208.468 180.651C208.294 180.481 208.086 180.35 207.857 180.266C206.454 179.799 204.35 181.375 203.569 182.427C203.527 182.492 203.101 183.222 202.844 183.685C202.956 183.39 203.064 183.1 203.176 182.796C203.396 182.193 203.601 181.581 203.821 180.926C203.919 180.608 204.013 180.285 204.111 179.958C204.209 179.63 204.284 179.284 204.373 178.943C204.56 178.148 204.714 177.334 204.841 176.516C205.369 176.707 207.263 177.362 208.241 177.297C209.218 177.231 210.439 176.866 211.005 176.001C211.145 175.802 211.241 175.576 211.287 175.337C211.333 175.098 211.329 174.852 211.274 174.615C211.219 174.378 211.114 174.155 210.967 173.961C210.82 173.767 210.634 173.607 210.42 173.49C209.12 172.816 206.782 174.056 205.856 174.977C205.8 175.033 205.206 175.772 204.892 176.184C204.967 175.688 205.047 175.197 205.112 174.692C205.29 173.237 205.43 171.764 205.58 170.291L205.72 168.939C205.907 169.009 208.138 169.842 209.237 169.762C210.21 169.697 211.435 169.337 211.996 168.472C212.136 168.272 212.233 168.046 212.28 167.807C212.326 167.568 212.322 167.321 212.267 167.084C212.213 166.847 212.109 166.624 211.962 166.429C211.815 166.235 211.629 166.073 211.416 165.955C210.111 165.287 207.778 166.521 206.852 167.447C206.782 167.517 205.916 168.579 205.729 168.85C205.832 167.859 205.949 166.872 206.099 165.909C206.295 164.6 206.577 163.307 206.945 162.036C207.03 162.069 209.354 162.948 210.476 162.869C211.454 162.799 212.674 162.443 213.24 161.573C213.38 161.374 213.476 161.148 213.523 160.909C213.569 160.67 213.564 160.424 213.509 160.187C213.454 159.95 213.35 159.727 213.202 159.533C213.055 159.339 212.869 159.179 212.656 159.062C211.356 158.388 209.022 159.628 208.091 160.549C208.03 160.61 207.385 161.419 207.086 161.812L207.011 161.77C207.412 160.502 207.927 159.273 208.549 158.098C208.882 157.444 209.237 156.84 209.597 156.26C210.013 156.466 211.935 157.397 212.941 157.439C213.946 157.481 215.172 157.252 215.831 156.457C215.992 156.274 216.112 156.059 216.185 155.826C216.257 155.593 216.279 155.348 216.251 155.105C216.222 154.863 216.143 154.63 216.018 154.421C215.894 154.211 215.726 154.03 215.527 153.889C214.307 153.08 211.851 154.053 210.827 154.871C210.771 154.914 210.256 155.428 209.892 155.807C210.06 155.55 210.228 155.278 210.392 155.03C211.005 154.095 211.622 153.3 212.174 152.589C212.492 152.187 212.787 151.832 213.067 151.5C213.582 151.5 215.653 151.429 216.561 151.004C217.468 150.578 218.46 149.811 218.675 148.801C218.725 148.567 218.727 148.325 218.679 148.09C218.632 147.855 218.537 147.632 218.399 147.436C218.262 147.24 218.085 147.074 217.881 146.949C217.676 146.824 217.448 146.743 217.211 146.711ZM201.076 185.86C200.197 187.885 199.388 189.54 198.803 190.686C198.686 190.92 198.579 191.121 198.48 191.313H198.387C198.354 191.088 198.326 190.845 198.289 190.569C198.111 189.278 197.821 187.436 197.395 185.247C197.26 184.555 197.101 183.821 196.928 183.068C197.614 182.795 198.284 182.483 198.934 182.132C199.682 182.946 201.604 183.896 201.852 184.003C201.59 184.648 201.333 185.275 201.076 185.86Z" fill="#263238"/>
<path opacity="0.3" d="M183.514 155.461C184.567 155.928 187.139 155.858 187.139 155.858C187.139 155.858 186.587 154.175 186.54 154.072C185.974 152.893 184.202 150.943 182.738 151.139C182.497 151.177 182.266 151.266 182.061 151.399C181.857 151.532 181.682 151.707 181.55 151.913C181.417 152.118 181.33 152.349 181.293 152.59C181.256 152.832 181.27 153.079 181.335 153.314C181.588 154.329 182.616 155.077 183.514 155.461Z" fill="#263238"/>
<path opacity="0.3" d="M209.532 156.036C209.555 156.036 209.999 154.324 209.999 154.212C210.182 152.917 209.77 150.307 208.447 149.666C208.226 149.57 207.987 149.52 207.745 149.521C207.504 149.522 207.266 149.574 207.045 149.672C206.825 149.771 206.628 149.915 206.467 150.094C206.305 150.273 206.183 150.484 206.108 150.714C205.753 151.687 206.202 152.879 206.735 153.698C207.352 154.661 209.532 156.031 209.532 156.036Z" fill="#263238"/>
<path opacity="0.3" d="M217.211 146.711C215.752 146.556 214.021 148.553 213.469 149.746C213.423 149.853 212.89 151.551 212.918 151.551H212.946C212.67 151.864 212.38 152.201 212.066 152.58C211.496 153.277 210.86 154.072 210.224 154.988C209.528 155.965 208.891 156.981 208.316 158.033C207.663 159.206 207.117 160.434 206.683 161.704V161.751C206.683 161.325 206.683 160.123 206.66 160.03C206.492 158.734 205.402 156.326 203.962 156.059C203.721 156.021 203.476 156.034 203.241 156.097C203.006 156.16 202.787 156.272 202.598 156.426C202.41 156.579 202.256 156.771 202.147 156.989C202.037 157.206 201.975 157.444 201.965 157.687C201.876 158.72 202.624 159.749 203.368 160.404C204.191 161.138 206.473 161.849 206.641 161.905C206.232 163.209 205.91 164.539 205.678 165.885C205.538 166.671 205.421 167.461 205.313 168.261C205.313 167.887 205.313 167.555 205.313 167.513C205.145 166.213 204.055 163.804 202.615 163.538C202.374 163.5 202.128 163.513 201.894 163.577C201.659 163.641 201.44 163.753 201.251 163.907C201.063 164.061 200.909 164.253 200.8 164.471C200.691 164.688 200.629 164.927 200.618 165.17C200.529 166.199 201.277 167.232 202.021 167.882C202.764 168.532 204.696 169.187 205.21 169.355C205.168 169.659 205.131 169.963 205.093 170.291C204.916 171.759 204.747 173.228 204.537 174.664C204.467 175.169 204.373 175.664 204.284 176.16C204.284 175.833 204.284 175.552 204.284 175.51C204.116 174.215 203.031 171.806 201.586 171.539C201.345 171.502 201.1 171.515 200.865 171.579C200.63 171.643 200.411 171.755 200.222 171.909C200.034 172.063 199.88 172.255 199.771 172.473C199.662 172.69 199.6 172.929 199.589 173.172C199.505 174.201 200.253 175.234 200.992 175.884C201.731 176.534 203.48 177.128 204.088 177.325C203.98 177.83 203.877 178.335 203.751 178.821C203.653 179.149 203.587 179.471 203.475 179.799C203.363 180.126 203.265 180.444 203.166 180.762C202.942 181.365 202.722 181.992 202.493 182.577C202.334 182.984 202.18 183.372 202.025 183.76C202.105 183.255 202.24 182.268 202.24 182.184C202.223 181.034 201.912 179.907 201.338 178.91C201.342 178.782 201.334 178.653 201.314 178.527C201.284 178.285 201.203 178.053 201.078 177.845C200.952 177.636 200.783 177.457 200.583 177.318C200.384 177.179 200.157 177.084 199.918 177.038C199.679 176.993 199.433 176.998 199.196 177.053C197.793 177.432 196.881 179.92 196.811 181.225C196.811 181.3 196.858 182.16 196.9 182.675C196.829 182.366 196.764 182.067 196.684 181.74C196.535 181.113 196.371 180.496 196.193 179.827L195.857 178.845C195.768 178.522 195.628 178.19 195.515 177.858C195.235 177.091 194.917 176.329 194.58 175.566C195.127 175.435 197.068 174.94 197.854 174.346C198.639 173.752 199.453 172.774 199.444 171.741C199.45 171.497 199.406 171.255 199.313 171.031C199.22 170.806 199.081 170.603 198.904 170.435C198.728 170.268 198.518 170.139 198.289 170.058C198.06 169.976 197.816 169.944 197.573 169.963C196.114 170.122 194.851 172.442 194.589 173.705C194.589 173.789 194.486 174.729 194.449 175.243C194.239 174.776 194.033 174.336 193.808 173.878C193.158 172.568 192.457 171.264 191.765 169.954C191.549 169.552 191.344 169.154 191.138 168.752C191.334 168.705 193.649 168.168 194.524 167.499C195.3 166.905 196.119 165.932 196.114 164.898C196.121 164.655 196.076 164.413 195.983 164.188C195.89 163.964 195.751 163.761 195.575 163.593C195.398 163.425 195.188 163.297 194.959 163.216C194.73 163.134 194.486 163.102 194.243 163.121C192.789 163.28 191.526 165.6 191.259 166.863C191.259 166.961 191.119 168.313 191.105 168.659C190.637 167.775 190.193 166.891 189.786 166.002C189.232 164.802 188.754 163.568 188.355 162.308C188.449 162.308 190.871 161.737 191.765 161.049C192.541 160.456 193.364 159.483 193.355 158.449C193.361 158.206 193.317 157.964 193.224 157.739C193.131 157.514 192.992 157.311 192.815 157.144C192.639 156.976 192.429 156.848 192.2 156.766C191.97 156.685 191.726 156.653 191.484 156.672C190.025 156.831 188.762 159.151 188.495 160.413C188.495 160.498 188.383 161.531 188.35 162.022H188.266C187.903 160.742 187.654 159.432 187.523 158.108C187.443 157.383 187.406 156.681 187.382 155.999C187.85 155.942 189.95 155.662 190.824 155.133C191.699 154.605 192.583 153.73 192.695 152.72C192.728 152.479 192.71 152.234 192.642 152.001C192.574 151.767 192.458 151.551 192.301 151.365C192.144 151.179 191.95 151.029 191.731 150.923C191.512 150.817 191.273 150.759 191.03 150.751C189.562 150.751 188.051 152.917 187.649 154.161C187.626 154.231 187.481 154.942 187.378 155.461C187.378 155.157 187.378 154.839 187.378 154.525C187.378 153.417 187.453 152.407 187.523 151.509C187.565 150.994 187.612 150.536 187.663 150.106C188.089 149.811 189.782 148.619 190.305 147.767C190.829 146.916 191.241 145.728 190.848 144.765C190.766 144.536 190.637 144.326 190.47 144.15C190.302 143.974 190.099 143.835 189.874 143.743C189.649 143.65 189.407 143.606 189.164 143.613C188.921 143.62 188.682 143.678 188.463 143.783C187.163 144.456 186.816 147.08 187.032 148.371C187.032 148.478 187.546 150.19 187.565 150.176H187.593C187.537 150.592 187.476 151.037 187.424 151.523C187.336 152.421 187.242 153.436 187.219 154.549C187.178 155.747 187.207 156.946 187.303 158.141C187.406 159.48 187.63 160.807 187.972 162.106C187.97 162.122 187.97 162.138 187.972 162.153C187.738 161.788 187.036 160.797 186.999 160.727C186.143 159.74 183.908 158.332 182.561 158.903C182.339 159.004 182.141 159.151 181.98 159.333C181.819 159.516 181.698 159.731 181.625 159.963C181.552 160.196 181.529 160.441 181.557 160.683C181.586 160.925 181.665 161.158 181.789 161.368C182.289 162.275 183.482 162.719 184.45 162.864C185.54 163.023 187.836 162.354 188.018 162.303C188.397 163.617 188.866 164.903 189.421 166.152C189.735 166.886 190.076 167.611 190.427 168.336C190.217 168.027 190.029 167.756 189.997 167.723C189.141 166.732 186.905 165.324 185.558 165.895C185.337 165.996 185.139 166.142 184.978 166.325C184.816 166.508 184.696 166.722 184.623 166.955C184.55 167.187 184.527 167.433 184.555 167.675C184.583 167.916 184.662 168.15 184.787 168.359C185.287 169.267 186.48 169.716 187.448 169.856C188.416 169.996 190.394 169.468 190.913 169.323C191.054 169.599 191.189 169.875 191.325 170.15C191.989 171.474 192.658 172.793 193.275 174.107C193.495 174.575 193.691 175.042 193.888 175.51C193.705 175.239 193.546 175.01 193.518 174.977C192.662 173.99 190.422 172.578 189.075 173.153C188.854 173.254 188.656 173.401 188.495 173.583C188.333 173.766 188.213 173.981 188.14 174.214C188.068 174.446 188.045 174.692 188.074 174.934C188.103 175.176 188.183 175.409 188.308 175.618C188.804 176.52 189.997 176.969 190.965 177.11C191.933 177.25 193.724 176.777 194.341 176.604C194.528 177.072 194.72 177.568 194.884 178.04C194.987 178.368 195.108 178.672 195.193 179.008C195.277 179.345 195.375 179.658 195.464 179.981C195.618 180.608 195.777 181.253 195.908 181.852C196.002 182.282 196.081 182.689 196.165 183.1C195.955 182.633 195.525 181.74 195.478 181.669C194.781 180.561 192.784 178.831 191.367 179.191C191.13 179.257 190.91 179.372 190.721 179.53C190.532 179.687 190.379 179.883 190.272 180.104C190.164 180.325 190.105 180.566 190.098 180.812C190.091 181.058 190.136 181.302 190.231 181.529C190.586 182.502 191.699 183.124 192.634 183.4C193.663 183.713 195.941 183.428 196.226 183.4C196.362 184.078 196.488 184.742 196.596 185.373C196.979 187.548 197.218 189.372 197.367 190.653C197.391 190.878 197.414 191.084 197.433 191.275H193.023L194.369 217.531H202.414L203.76 191.275H199.598L199.692 191.084C200.253 189.91 201.039 188.222 201.88 186.159C202.152 185.504 202.423 184.803 202.699 184.078C202.975 184.139 205.229 184.597 206.281 184.359C207.217 184.143 208.386 183.606 208.816 182.661C208.923 182.443 208.984 182.204 208.993 181.961C209.002 181.718 208.96 181.476 208.87 181.25C208.779 181.024 208.643 180.82 208.468 180.651C208.294 180.481 208.086 180.35 207.857 180.266C206.454 179.799 204.35 181.375 203.569 182.427C203.527 182.492 203.101 183.222 202.844 183.685C202.956 183.39 203.064 183.1 203.176 182.796C203.396 182.193 203.601 181.581 203.821 180.926C203.919 180.608 204.013 180.285 204.111 179.958C204.209 179.63 204.284 179.284 204.373 178.943C204.56 178.148 204.714 177.334 204.841 176.516C205.369 176.707 207.263 177.362 208.241 177.297C209.218 177.231 210.439 176.866 211.005 176.001C211.145 175.802 211.241 175.576 211.287 175.337C211.333 175.098 211.329 174.852 211.274 174.615C211.219 174.378 211.114 174.155 210.967 173.961C210.82 173.767 210.634 173.607 210.42 173.49C209.12 172.816 206.782 174.056 205.856 174.977C205.8 175.033 205.206 175.772 204.892 176.184C204.967 175.688 205.047 175.197 205.112 174.692C205.29 173.237 205.43 171.764 205.58 170.291L205.72 168.939C205.907 169.009 208.138 169.842 209.237 169.762C210.21 169.697 211.435 169.337 211.996 168.472C212.136 168.272 212.233 168.046 212.28 167.807C212.326 167.568 212.322 167.321 212.267 167.084C212.213 166.847 212.109 166.624 211.962 166.429C211.815 166.235 211.629 166.073 211.416 165.955C210.111 165.287 207.778 166.521 206.852 167.447C206.782 167.517 205.916 168.579 205.729 168.85C205.832 167.859 205.949 166.872 206.099 165.909C206.295 164.6 206.577 163.307 206.945 162.036C207.03 162.069 209.354 162.948 210.476 162.869C211.454 162.799 212.674 162.443 213.24 161.573C213.38 161.374 213.476 161.148 213.523 160.909C213.569 160.67 213.564 160.424 213.509 160.187C213.454 159.95 213.35 159.727 213.202 159.533C213.055 159.339 212.869 159.179 212.656 159.062C211.356 158.388 209.022 159.628 208.091 160.549C208.03 160.61 207.385 161.419 207.086 161.812L207.011 161.77C207.412 160.502 207.927 159.273 208.549 158.098C208.882 157.444 209.237 156.84 209.597 156.26C210.013 156.466 211.935 157.397 212.941 157.439C213.946 157.481 215.172 157.252 215.831 156.457C215.992 156.274 216.112 156.059 216.185 155.826C216.257 155.593 216.279 155.348 216.251 155.105C216.222 154.863 216.143 154.63 216.018 154.421C215.894 154.211 215.726 154.03 215.527 153.889C214.307 153.08 211.851 154.053 210.827 154.871C210.771 154.914 210.256 155.428 209.892 155.807C210.06 155.55 210.228 155.278 210.392 155.03C211.005 154.095 211.622 153.3 212.174 152.589C212.492 152.187 212.787 151.832 213.067 151.5C213.582 151.5 215.653 151.429 216.561 151.004C217.468 150.578 218.46 149.811 218.675 148.801C218.725 148.567 218.727 148.325 218.679 148.09C218.632 147.855 218.537 147.632 218.399 147.436C218.262 147.24 218.085 147.074 217.881 146.949C217.676 146.824 217.448 146.743 217.211 146.711ZM201.076 185.86C200.197 187.885 199.388 189.54 198.803 190.686C198.686 190.92 198.579 191.121 198.48 191.313H198.387C198.354 191.088 198.326 190.845 198.289 190.569C198.111 189.278 197.821 187.436 197.395 185.247C197.26 184.555 197.101 183.821 196.928 183.068C197.614 182.795 198.284 182.483 198.934 182.132C199.682 182.946 201.604 183.896 201.852 184.003C201.59 184.648 201.333 185.275 201.076 185.86Z" fill="#263238"/>
<path d="M184.165 217.568H223.796" stroke="#263238" stroke-width="0.467677" stroke-linejoin="round"/>
<path d="M44.3291 217.568H179.956" stroke="#263238" stroke-width="0.467677" stroke-linejoin="round"/>
<path d="M26.1458 217.568H40.12" stroke="#263238" stroke-width="0.467677" stroke-linejoin="round"/>
<path d="M157.652 216.025C157.628 216.369 157.575 216.71 157.493 217.044C157.109 218.448 154.925 217.942 153.644 218.448C152.362 218.953 150.693 219.603 149.538 219.986C148.383 220.37 144.795 220.632 142.99 220.243C141.802 219.991 141.232 219.345 141.208 218.677C141.2 218.309 141.334 217.952 141.582 217.681C142.349 216.783 145.296 215.627 146.965 214.346C148.635 213.065 150.814 209.983 150.814 209.983C153.251 210.628 157.362 210.113 157.362 210.113C157.362 210.113 157.614 211.517 157.614 211.909C157.704 213.279 157.717 214.653 157.652 216.025Z" fill="white" stroke="#263238" stroke-width="0.467677" stroke-linecap="round" stroke-linejoin="round"/>
<path d="M157.652 216.025C157.628 216.369 157.575 216.71 157.493 217.045C157.109 218.448 154.925 217.942 153.644 218.448C152.362 218.953 150.693 219.603 149.538 219.986C148.382 220.37 144.795 220.632 142.99 220.243C141.802 219.991 141.232 219.346 141.208 218.677C141.863 219.144 143.458 219.991 146.488 219.724C150.697 219.364 152.133 217.905 153.868 217.18C155.099 216.702 156.364 216.316 157.652 216.025Z" fill="white" stroke="#263238" stroke-width="0.467677" stroke-linecap="round" stroke-linejoin="round"/>
<path d="M157.474 210.759C157.418 210.404 157.367 210.118 157.367 210.118C156.077 210.266 154.778 210.329 153.48 210.305L153.387 210.376C153.387 210.376 153.644 210.245 153.775 211.273C153.848 211.954 153.848 212.641 153.775 213.322C153.775 213.322 156.693 212.63 157.109 211.657C157.231 211.372 157.357 211.058 157.474 210.759Z" fill="white" stroke="#263238" stroke-width="0.467677" stroke-linecap="round" stroke-linejoin="round"/>
<path d="M172.005 221.356C170.826 222.105 165.046 225.336 164.054 225.524C163.063 225.711 159.378 225.458 158.335 224.588C157.516 223.915 157.297 223.012 157.825 222.25C157.996 222.012 158.212 221.81 158.461 221.656C159.705 220.847 161.88 218.546 162.876 217.241C163.872 215.936 165.425 213.635 165.425 213.635L165.546 212.952L171.888 213.139C171.888 213.139 172.01 214.505 172.07 214.758C172.302 215.634 172.469 216.527 172.571 217.428C172.646 217.956 172.73 218.452 172.781 218.906C172.88 220 172.819 220.833 172.005 221.356Z" fill="white" stroke="#263238" stroke-width="0.467677" stroke-linecap="round" stroke-linejoin="round"/>
<path d="M172.005 221.357C170.826 222.105 165.046 225.336 164.054 225.524C163.063 225.711 159.378 225.458 158.335 224.588C157.516 223.915 157.297 223.012 157.825 222.25C157.904 222.685 158.503 224.887 162.366 224.728C166.645 224.546 170.013 220.72 171.925 219.444C172.229 219.238 172.515 219.06 172.781 218.906C172.88 220 172.819 220.833 172.005 221.357Z" fill="white" stroke="#263238" stroke-width="0.467677" stroke-linecap="round" stroke-linejoin="round"/>
<path d="M171.865 213.153L165.523 212.966L165.401 213.649L165.102 214.084C165.261 214.084 167.165 213.981 167.698 214.458C168.231 214.935 168.32 216.572 169.624 216.137C170.512 215.815 171.331 215.328 172.038 214.701C171.972 214.337 171.865 213.153 171.865 213.153Z" fill="white" stroke="#263238" stroke-width="0.467677" stroke-linecap="round" stroke-linejoin="round"/>
<path d="M146.077 151.116C146.077 151.116 145.563 164.585 146.592 172.793C147.62 181.001 147.873 186.903 147.995 187.291C148.116 187.679 150.557 203.964 150.684 204.992C150.81 206.021 151.198 207.172 151.198 207.555C151.198 207.939 151.582 208.07 153.508 208.584C154.79 208.866 156.125 208.777 157.357 208.327C157.357 208.327 158.255 199.479 158.255 197.168C158.255 194.858 157.1 184.34 157.1 183.956C157.1 183.573 157.867 166.002 157.867 166.002L158.508 166.512C158.508 166.512 159.406 181.52 159.794 184.34C160.182 187.16 160.304 189.727 160.818 191.14C161.333 192.552 162.488 201.527 162.998 202.832C163.507 204.137 163.896 208.986 163.896 208.986L164.279 210.525C164.279 210.525 164.794 211.928 168.021 211.928C171.247 211.928 171.869 211.156 171.869 211.156C171.869 211.156 171.996 204.361 171.996 201.153C171.996 197.945 170.326 188.455 170.074 186.276C169.821 184.097 169.428 175.244 169.943 173.448C170.457 171.652 171.346 161.138 171.346 156.649C171.388 154.55 171.303 152.451 171.088 150.363C171.088 150.363 158.905 151.13 154.799 150.489C150.693 149.849 146.849 148.951 146.849 148.951L146.077 151.116Z" fill="#263238" stroke="#263238" stroke-width="0.467677" stroke-linecap="round" stroke-linejoin="round"/>
<path d="M149.8 150.606C149.8 150.606 155.313 152.271 164.162 151.504L164.288 149.194L150.183 144.447L149.8 150.606Z" fill="#808080" stroke="#263238" stroke-width="0.467677" stroke-linecap="round" stroke-linejoin="round"/>
<path d="M157.277 150.189L153.636 150.053L153.582 151.487L157.223 151.623L157.277 150.189Z" fill="white" stroke="#263238" stroke-width="0.467677" stroke-linecap="round" stroke-linejoin="round"/>
<path d="M165.317 112.767C165.317 112.767 160.827 112.257 158.648 112.897C156.469 113.538 153.775 114.3 153.003 116.358C152.231 118.416 148.453 148.876 148.453 148.876C148.453 148.876 152.62 150.223 156.338 150.223C160.056 150.223 164.036 149.966 164.036 149.966C164.036 149.966 164.419 133.545 165.317 130.599C166.215 127.653 165.317 112.767 165.317 112.767Z" fill="#3683BD" stroke="#263238" stroke-width="0.467677" stroke-linecap="round" stroke-linejoin="round"/>
<path d="M155.131 114.866C155.131 114.866 155.29 118.051 156.221 118.828C157.151 119.604 157.231 119.842 157.231 119.842L157.773 125.922C157.773 125.922 159.799 122.256 160.032 121.788C160.26 120.948 160.416 120.091 160.5 119.225C161.177 118.716 161.827 118.171 162.446 117.593C163.142 116.891 163.69 112.229 163.69 111.681C163.69 111.134 163.535 108.183 163.535 108.183C163.535 108.183 161.898 111.836 160.112 113.468C158.325 115.1 156.614 115.259 156.225 115.18C155.837 115.1 155.131 114.866 155.131 114.866Z" fill="white" stroke="#263238" stroke-width="0.467677" stroke-linecap="round" stroke-linejoin="round"/>
<path d="M155.056 113.931C155.056 113.931 154.897 125.207 154.897 129.79C154.897 134.373 153.494 140.13 152.021 144.017C150.548 147.903 147.344 158.36 146.348 160.774C145.696 162.368 145.15 164.003 144.716 165.67C144.716 165.67 143.238 164.501 143.159 160.694C143.079 156.887 144.014 152.454 144.169 149.732C144.323 147.01 144.403 141.314 144.403 141.314C144.403 141.314 144.403 142.632 142.382 143.652C140.362 144.671 139.108 145.13 137.794 142.642C136.48 140.154 136.63 138.676 137.874 136.422C139.118 134.167 140.282 128.335 141.293 125.693C142.303 123.051 142.228 119.319 143.318 118.542C144.407 117.766 149.612 115.666 151.712 114.422C153.812 113.178 154.668 113.178 154.668 113.178C154.668 113.178 154.977 113 155.056 113.931Z" fill="white" stroke="#263238" stroke-width="0.467677" stroke-linecap="round" stroke-linejoin="round"/>
<path d="M140.133 135.309C140.133 135.309 138.575 138.526 139.02 139.635C139.464 140.743 140.89 141.973 142.574 140.967C144.258 139.962 144.791 139.859 144.234 137.75C143.678 135.641 141.573 134.088 140.133 135.309Z" stroke="#263238" stroke-width="0.467677" stroke-linecap="round" stroke-linejoin="round"/>
<path d="M145.268 124.444C145.216 123.359 145.184 122.639 145.184 122.639L145.268 124.444Z" fill="white"/>
<path d="M145.268 124.444C145.216 123.359 145.184 122.639 145.184 122.639" stroke="#263238" stroke-width="0.467677" stroke-linecap="round" stroke-linejoin="round"/>
<path d="M144.412 141.3C144.412 141.3 145.502 135.388 145.502 132.044C145.502 130.216 145.408 127.569 145.324 125.548" fill="white"/>
<path d="M144.412 141.3C144.412 141.3 145.502 135.388 145.502 132.044C145.502 130.216 145.408 127.569 145.324 125.548" stroke="#263238" stroke-width="0.467677" stroke-linecap="round" stroke-linejoin="round"/>
<path d="M154.668 113.155C154.668 113.155 153.99 113.155 152.372 114.025C152.012 116.073 151.319 120.839 151.787 125.207C152.189 128.901 153.517 132.75 154.42 135.028C154.715 133.294 154.871 131.539 154.888 129.781C154.888 125.197 155.047 113.922 155.047 113.922C154.977 113 154.668 113.155 154.668 113.155Z" fill="white" stroke="#263238" stroke-width="0.467677" stroke-linecap="round" stroke-linejoin="round"/>
<path d="M150.024 103.104C150.024 103.104 150.665 107.21 151.31 108.983C151.956 110.755 153.485 112.682 154.116 113.894C154.748 115.105 156.127 116.386 157.657 116.386C159.186 116.386 161.277 114.296 161.679 113.58C162.081 112.865 163.208 111.565 163.292 110.774C163.376 109.984 163.372 108.684 163.372 108.684C163.864 108.521 164.3 108.223 164.63 107.825C164.961 107.426 165.173 106.943 165.243 106.429C165.466 105.461 165.381 104.447 164.999 103.53C164.624 102.631 164.165 101.77 163.629 100.958C162.502 99.0869 158.803 98.058 155.258 98.6193C151.713 99.1805 149.945 100.691 150.024 103.104Z" fill="white" stroke="#263238" stroke-width="0.467677" stroke-linecap="round" stroke-linejoin="round"/>
<path d="M150.122 106.355C151.66 106.06 153.242 106.081 154.771 106.415C154.771 106.415 155.173 107.865 154.303 108.829C153.434 109.792 151.806 109.474 151.324 109.296C150.843 109.119 150.094 108.296 150.122 106.355Z" fill="white" stroke="#263238" stroke-width="0.467677" stroke-linecap="round" stroke-linejoin="round"/>
<path d="M156.38 106.285C157.923 105.967 159.514 105.967 161.057 106.285C161.057 106.285 161.478 107.725 160.589 108.707C159.7 109.689 158.101 109.385 157.619 109.231C157.138 109.077 156.38 108.225 156.38 106.285Z" fill="white" stroke="#263238" stroke-width="0.467677" stroke-linecap="round" stroke-linejoin="round"/>
<path d="M154.771 106.406C155.273 106.166 155.847 106.122 156.38 106.285" stroke="#263238" stroke-width="0.467677" stroke-linecap="round" stroke-linejoin="round"/>
<path d="M161.033 106.275L163.222 104.797" stroke="#263238" stroke-width="0.467677" stroke-linecap="round" stroke-linejoin="round"/>
<path d="M154.897 107.075C154.897 107.075 155.763 106.738 156.3 107.075" stroke="#263238" stroke-width="0.467677" stroke-linecap="round" stroke-linejoin="round"/>
<path d="M156.819 105.733C157.746 105.346 158.767 105.245 159.752 105.443" stroke="#263238" stroke-width="0.467677" stroke-linecap="round" stroke-linejoin="round"/>
<path d="M154.271 105.971C153.482 105.526 152.551 105.406 151.675 105.634" stroke="#263238" stroke-width="0.467677" stroke-linecap="round" stroke-linejoin="round"/>
<path d="M154.897 107.893C154.897 107.893 154.799 111.406 154.846 111.551C155.119 111.818 155.476 111.983 155.856 112.018C156.28 111.97 156.699 111.889 157.109 111.775" stroke="#263238" stroke-width="0.467677" stroke-linecap="round" stroke-linejoin="round"/>
<path d="M155.281 112.902C155.281 112.902 156.244 113.721 158.021 112.996" stroke="#263238" stroke-width="0.467677" stroke-linecap="round" stroke-linejoin="round"/>
<path d="M148.574 99.2413C148.574 99.2413 145.918 100.046 146.399 101.739C146.881 103.432 149.944 103.993 153.003 103.184C155.192 102.559 157.324 101.752 159.378 100.771C159.177 101.018 159.082 101.334 159.112 101.651C159.143 101.967 159.297 102.259 159.541 102.464C160.425 103.268 160.346 100.771 160.346 100.771C160.346 100.771 160.266 103.67 161.393 104.072C162.52 104.475 162.6 104.713 162.6 104.713C162.6 104.713 162.198 106.327 162.679 106.486C163.161 106.645 163.241 104.797 163.241 104.797C163.241 104.797 163.404 103.829 164.209 103.67L165.013 103.507C165.013 103.507 164.854 98.1142 164.368 96.1032C163.881 94.0922 158.975 91.7538 154.71 93.2971C150.445 94.8405 148.41 96.9076 148.574 99.2413Z" fill="#263238" stroke="#263238" stroke-width="0.467677" stroke-linecap="round" stroke-linejoin="round"/>
<path d="M139.352 137.488L141.222 134.532L142.775 137.02C142.074 137.43 141.348 137.794 140.6 138.11C140.162 137.951 139.743 137.742 139.352 137.488Z" fill="white" stroke="#263238" stroke-width="0.467677" stroke-linecap="round" stroke-linejoin="round"/>
<path d="M143.159 139.041C143.613 139.235 144.082 139.391 144.562 139.508C145.028 139.481 145.483 139.356 145.898 139.142C146.313 138.927 146.678 138.629 146.97 138.264C147.438 137.488 146.657 137.408 146.657 137.408L145.722 138.264L144.164 138.189L143.159 139.041Z" fill="white" stroke="#263238" stroke-width="0.467677" stroke-linecap="round" stroke-linejoin="round"/>
<path d="M138.342 131.268L142.85 138.11L146.657 138.189L142.616 131.268H138.342Z" fill="#263238" stroke="#263238" stroke-width="0.467677" stroke-linecap="round" stroke-linejoin="round"/>
<path d="M143.009 135.701C143.009 135.701 139.356 136.945 139.356 137.488C139.389 137.765 139.53 138.019 139.748 138.194C139.965 138.368 140.243 138.451 140.521 138.423C141.143 138.423 143.552 136.866 143.795 136.398C144.038 135.931 143.781 135.622 143.009 135.701Z" fill="white" stroke="#263238" stroke-width="0.467677" stroke-linecap="round" stroke-linejoin="round"/>
<path d="M140.905 138.498C140.961 138.712 141.068 138.909 141.217 139.072C141.366 139.234 141.553 139.359 141.76 139.433C142.462 139.663 144.566 138.189 144.95 137.642C145.333 137.095 144.169 137.254 143.318 137.567C142.467 137.881 140.905 138.498 140.905 138.498Z" fill="white" stroke="#263238" stroke-width="0.467677" stroke-linecap="round" stroke-linejoin="round"/>
<path d="M139.426 133.059C139.329 133.135 139.248 133.23 139.188 133.338C139.128 133.445 139.089 133.564 139.075 133.686C139.06 133.809 139.07 133.933 139.104 134.052C139.138 134.171 139.195 134.281 139.272 134.378C139.819 135.154 141.143 135.313 141.143 135.313L139.426 133.059Z" fill="white" stroke="#263238" stroke-width="0.467677" stroke-linecap="round" stroke-linejoin="round"/>
<path d="M163.685 111.677C163.685 111.677 160.654 131.969 159.943 133.756C159.233 135.542 161.267 149.264 161.267 151.13C161.267 152.996 163.054 153.309 163.75 153.698C164.447 154.086 170.129 156.808 170.981 158.206C171.832 159.604 174.016 162.56 174.016 162.56C174.016 162.56 172.711 149.362 172.538 142.23C172.468 139.354 172.692 135.079 172.692 135.079C172.692 135.079 175.966 118.131 175.648 116.887C175.33 115.643 170.129 113.613 167.871 112.846C166.5 112.372 165.103 111.981 163.685 111.677Z" fill="white" stroke="#263238" stroke-width="0.467677" stroke-linecap="round" stroke-linejoin="round"/>
<path d="M167.492 114.305C167.571 113.777 167.646 113.211 167.702 112.771C166.386 112.324 165.044 111.954 163.685 111.663C163.685 111.663 160.654 131.955 159.944 133.742C159.807 134.257 159.76 134.792 159.803 135.323C160.215 134.743 161.955 132.255 163.521 129.467C165.317 126.292 167.328 115.409 167.492 114.305Z" fill="white" stroke="#263238" stroke-width="0.467677" stroke-linecap="round" stroke-linejoin="round"/>
<path d="M161.665 152.533C163.133 152.993 164.643 153.306 166.173 153.468C168.895 153.777 175.33 156.345 177.622 159.16C178.362 159.998 179.014 160.91 179.567 161.882C179.567 161.882 176.354 162.35 175.732 162.41C175.11 162.471 173.712 162.565 173.712 162.565C173.712 162.565 171.224 158.987 169.97 157.977C168.717 156.967 162.128 153.698 161.665 152.533Z" fill="white" stroke="#263238" stroke-width="0.467677" stroke-linecap="round" stroke-linejoin="round"/>
<path d="M150.183 207.457V209.674C150.184 209.856 150.238 210.034 150.338 210.186C150.439 210.338 150.582 210.458 150.749 210.53C151.724 210.9 152.74 211.15 153.775 211.273C155.053 211.483 156.365 211.276 157.516 210.684C157.659 210.602 157.778 210.483 157.86 210.34C157.942 210.197 157.985 210.035 157.984 209.87V207.841C157.985 207.727 157.961 207.614 157.914 207.511C157.867 207.407 157.797 207.316 157.711 207.242C157.625 207.168 157.523 207.113 157.413 207.083C157.304 207.052 157.189 207.046 157.077 207.064C155.674 207.293 152.915 207.602 150.861 206.924C150.781 206.902 150.696 206.899 150.614 206.916C150.531 206.933 150.454 206.969 150.389 207.02C150.323 207.072 150.27 207.139 150.234 207.214C150.199 207.29 150.181 207.373 150.183 207.457Z" fill="#808080" stroke="#263238" stroke-width="0.467677" stroke-linecap="round" stroke-linejoin="round"/>
<path d="M163.587 209.814V212.316C163.586 212.522 163.647 212.724 163.761 212.895C163.875 213.067 164.037 213.2 164.227 213.28C165.327 213.696 166.474 213.977 167.641 214.117C169.087 214.359 170.572 214.126 171.874 213.453C172.042 213.362 172.181 213.226 172.277 213.061C172.372 212.896 172.421 212.708 172.416 212.517V210.245C172.417 210.117 172.389 209.99 172.336 209.874C172.282 209.758 172.204 209.655 172.106 209.572C172.009 209.489 171.894 209.428 171.771 209.394C171.648 209.36 171.518 209.354 171.392 209.375C169.807 209.632 166.715 209.978 164.377 209.211C164.284 209.183 164.186 209.177 164.09 209.194C163.995 209.212 163.905 209.251 163.827 209.31C163.75 209.369 163.688 209.446 163.646 209.533C163.604 209.621 163.584 209.717 163.587 209.814Z" fill="#808080" stroke="#263238" stroke-width="0.467677" stroke-linecap="round" stroke-linejoin="round"/>
<path d="M168.825 154.661L166.295 156.99L170.041 160.633L171.453 158.304L168.825 154.661Z" fill="white" stroke="#263238" stroke-width="0.467677" stroke-linecap="round" stroke-linejoin="round"/>
<path d="M172.314 126.605C172.314 126.605 171.771 131.193 172 132.825C172.229 134.457 175.887 143.535 175.887 143.535L168.114 154.787C168.114 154.787 169.049 158.749 171.691 159.993C171.691 159.993 179.333 152.552 180.788 150.976C183.903 147.599 185.095 144.667 185.095 143.423C185.095 142.179 177.444 119.529 177.29 118.982C177.135 118.435 176.354 116.34 174.413 115.792" fill="white"/>
<path d="M172.314 126.605C172.314 126.605 171.771 131.193 172 132.825C172.229 134.457 175.887 143.535 175.887 143.535L168.114 154.787C168.114 154.787 169.049 158.749 171.691 159.993C171.691 159.993 179.333 152.552 180.788 150.976C183.903 147.599 185.095 144.667 185.095 143.423C185.095 142.179 177.444 119.529 177.29 118.982C177.135 118.435 176.354 116.34 174.413 115.792" stroke="#263238" stroke-width="0.467677" stroke-linecap="round" stroke-linejoin="round"/>
<path d="M176.635 143.516C176.635 143.516 178.852 142.188 181.181 143.072" stroke="#263238" stroke-width="0.467677" stroke-linecap="round" stroke-linejoin="round"/>
<path d="M179.296 142.076C180.258 141.904 181.249 142.102 182.069 142.632" stroke="#263238" stroke-width="0.467677" stroke-linecap="round" stroke-linejoin="round"/>
<path d="M153.045 44.3453C155.144 44.3455 157.217 44.8141 159.112 45.7171C161.006 46.62 162.676 47.9345 163.998 49.5646H190.216C192.14 49.613 193.968 50.4111 195.311 51.7885C196.654 53.1659 197.406 55.0136 197.406 56.9375C197.406 58.8614 196.654 60.7091 195.311 62.0865C193.968 63.464 192.14 64.262 190.216 64.3104H165.897C164.863 66.5778 163.25 68.5327 161.22 69.9787L153.368 76.0585C153.338 76.0804 153.302 76.0919 153.265 76.0912C153.231 76.0917 153.198 76.0801 153.172 76.0585L144.552 69.7963C142.784 68.4875 141.354 66.7768 140.378 64.8055C139.402 62.8343 138.909 60.6591 138.94 58.4598C138.945 54.7195 140.432 51.1338 143.076 48.4881C145.72 45.8425 149.305 44.3527 153.045 44.3453Z" fill="#263238"/>
<path d="M190.572 62.8607H156.572V48.4422L190.572 48.4422C192.483 48.4422 194.316 49.2015 195.668 50.553C197.02 51.9046 197.779 53.7377 197.779 55.6491C197.779 56.5959 197.593 57.5336 197.232 58.4085C196.87 59.2834 196.339 60.0784 195.67 60.7481C195 61.4179 194.206 61.9491 193.331 62.3116C192.456 62.6741 191.519 62.8607 190.572 62.8607Z" fill="white" stroke="#263238" stroke-width="0.467677" stroke-linecap="round" stroke-linejoin="round"/>
<path d="M191.339 53.5352H173.109" stroke="#263238" stroke-width="0.467677" stroke-linejoin="round"/>
<path d="M191.339 55.8362H173.109" stroke="#263238" stroke-width="0.467677" stroke-linejoin="round"/>
<path d="M191.339 58.1324H173.109" stroke="#263238" stroke-width="0.467677" stroke-linejoin="round"/>
<path d="M145.001 68.3746L153.616 74.6414L161.468 68.5616C163.421 67.176 164.984 65.3113 166.008 63.1468C167.031 60.9824 167.481 58.591 167.313 56.2027C167.145 53.8143 166.365 51.5093 165.049 49.5093C163.733 47.5092 161.924 45.8815 159.797 44.7825C157.67 43.6835 155.296 43.1502 152.903 43.2339C150.511 43.3177 148.18 44.0156 146.135 45.2607C144.089 46.5057 142.399 48.2559 141.226 50.3431C140.053 52.4303 139.436 54.7841 139.436 57.1784C139.407 59.3526 139.897 61.5024 140.865 63.4495C141.833 65.3966 143.251 67.085 145.001 68.3746Z" fill="white" stroke="#263238" stroke-width="0.467677" stroke-linecap="round" stroke-linejoin="round"/>
<path d="M165.579 57.2485C165.58 59.6766 164.861 62.0504 163.513 64.0698C162.165 66.0892 160.248 67.6634 158.005 68.5934C155.762 69.5235 153.294 69.7675 150.912 69.2947C148.531 68.822 146.343 67.6536 144.625 65.9373C142.908 64.2211 141.738 62.034 141.263 59.6528C140.788 57.2716 141.031 54.8031 141.959 52.5595C142.887 50.3159 144.46 48.398 146.478 47.0482C148.497 45.6985 150.87 44.9776 153.298 44.9767C154.912 44.9711 156.51 45.2847 158.002 45.8993C159.494 46.5139 160.85 47.4175 161.991 48.558C163.133 49.6986 164.037 51.0536 164.653 52.545C165.269 54.0365 165.584 55.635 165.579 57.2485Z" fill="#3683BD" stroke="#263238" stroke-width="0.467677" stroke-linejoin="round"/>
<path d="M162.212 65.6948L153.382 63.3985L144.029 65.3019C144.145 65.4422 144.272 65.5779 144.398 65.7088C145.545 66.9181 146.926 67.8811 148.458 68.5392C149.989 69.1973 151.638 69.5367 153.305 69.5367C154.972 69.5367 156.621 69.1973 158.152 68.5392C159.684 67.8811 161.065 66.9181 162.212 65.7088V65.6948Z" fill="white" stroke="#263238" stroke-width="0.467677" stroke-linecap="round" stroke-linejoin="round"/>
<path d="M151.806 62.7905C151.05 63.1944 150.374 63.7315 149.809 64.3759C148.935 65.4001 147.471 68.1173 147.606 68.0145C147.742 67.9116 151.858 65.4001 151.858 65.4001L151.806 62.7905Z" fill="#3683BD" stroke="#263238" stroke-width="0.467677" stroke-linecap="round" stroke-linejoin="round"/>
<path d="M155.234 62.2761L152.007 65.8117L152.928 69.0387L156.721 64.2263L155.234 62.2761Z" fill="#3683BD" stroke="#263238" stroke-width="0.467677" stroke-linecap="round" stroke-linejoin="round"/>
<path d="M149.294 49.9341C149.294 49.9341 147.195 50.3456 146.956 48.503C146.718 46.6603 149.57 44.046 153.667 44.046C157.764 44.046 160.991 47.4788 160.837 50.8086C160.696 52.9569 159.963 55.0241 158.718 56.7809C157.952 57.4074 157.061 57.862 156.104 58.1138C155.388 58.212 154.879 57.1784 155.234 55.8596C155.589 54.5407 154.467 54.1666 154.93 52.9412C155.393 51.7159 156.006 51.7113 156.207 51.2997C156.408 50.8881 154.158 50.0183 152.11 50.1212C150.061 50.224 149.294 49.9341 149.294 49.9341Z" fill="#263238" stroke="#263238" stroke-width="0.467677" stroke-linecap="round" stroke-linejoin="round"/>
<path d="M151.549 60.7935L151.511 60.99C151.404 61.6213 151.072 63.5949 150.983 64.7875C150.885 66.2233 151.918 66.1905 152.316 65.7603C152.713 65.33 154.879 63.2021 155.234 62.2808C155.589 61.3594 156.413 58.5908 156.413 58.5908L151.549 60.7935Z" fill="white" stroke="#263238" stroke-width="0.467677" stroke-linecap="round" stroke-linejoin="round"/>
<path d="M149.295 49.9341C149.295 49.9341 148.579 53.9327 148.322 56.0139C148.065 58.095 147.807 59.3391 148.682 60.6907C149.557 62.0422 152.007 61.1583 153.237 60.6392C154.528 60.0011 155.778 59.2826 156.979 58.4879C156.979 58.4879 158.718 58.5908 159.434 57.7209C159.555 57.5657 159.639 57.3854 159.681 57.1933C159.723 57.0013 159.722 56.8022 159.677 56.6108C159.632 56.4193 159.545 56.2404 159.422 56.0869C159.299 55.9335 159.143 55.8094 158.966 55.7239C158.666 55.7131 158.366 55.7617 158.084 55.8668C157.803 55.9719 157.545 56.1316 157.325 56.3366C157.021 56.6967 157.072 57.1082 156.712 57.1082C156.352 57.1082 155.842 57.2065 155.945 56.851C156.048 56.4956 156.815 55.3124 156.609 54.5454C156.403 53.7784 154.869 53.2639 156.141 52.5484C157.414 51.8328 158.756 51.8843 158.143 50.8086C157.53 49.733 154.35 48.6059 152.353 49.0128C151.304 49.2091 150.278 49.518 149.295 49.9341Z" fill="white" stroke="#263238" stroke-width="0.467677" stroke-linecap="round" stroke-linejoin="round"/>
<path d="M149.959 51.1126C149.959 51.1126 151.161 50.8601 151.086 52.0854C151.058 52.5531 148.934 54.8026 149.243 55.3124C149.453 55.6417 149.732 55.9211 150.061 56.1308" stroke="#263238" stroke-width="0.467677" stroke-linecap="round" stroke-linejoin="round"/>
<path d="M152.521 52.394C152.685 52.2595 152.877 52.1638 153.083 52.1141C153.289 52.0644 153.503 52.0619 153.71 52.1069C153.917 52.1519 154.111 52.2432 154.278 52.3739C154.445 52.5046 154.58 52.6714 154.673 52.8617" stroke="#263238" stroke-width="0.467677" stroke-linecap="round" stroke-linejoin="round"/>
<path d="M149.556 57.618C149.556 57.618 149.865 58.385 151.09 58.2821C151.64 58.2846 152.184 58.1631 152.68 57.9267" stroke="#263238" stroke-width="0.467677" stroke-linecap="round" stroke-linejoin="round"/>
<path d="M153.228 54.0777C153.157 54.4144 152.952 54.6576 152.76 54.6202C152.568 54.5827 152.493 54.2741 152.568 53.9374C152.643 53.6006 152.844 53.3574 153.036 53.3949C153.228 53.4323 153.298 53.7409 153.228 54.0777Z" fill="#263238"/>
<path d="M150.249 52.9412C150.183 53.2686 149.991 53.5071 149.818 53.4744C149.645 53.4416 149.556 53.147 149.622 52.8196C149.687 52.4923 149.879 52.2537 150.052 52.2912C150.225 52.3286 150.314 52.6139 150.249 52.9412Z" fill="#263238"/>
<path d="M92.1443 68.7487C90.0448 68.7488 87.9719 69.2179 86.0769 70.1217C84.1819 71.0255 82.5127 72.3412 81.1913 73.9726H54.9733C53.9895 73.9479 53.0106 74.1202 52.0944 74.4796C51.1782 74.839 50.3432 75.3781 49.6386 76.0652C48.934 76.7523 48.374 77.5735 47.9917 78.4803C47.6093 79.3872 47.4124 80.3614 47.4124 81.3456C47.4124 82.3297 47.6093 83.304 47.9917 84.2108C48.374 85.1177 48.934 85.9388 49.6386 86.6259C50.3432 87.313 51.1782 87.8521 52.0944 88.2115C53.0106 88.5709 53.9895 88.7433 54.9733 88.7185H79.2926C80.3256 90.9865 81.9388 92.9418 83.9693 94.3868L91.8216 100.467C91.8492 100.49 91.8838 100.503 91.9198 100.504C91.9551 100.503 91.9893 100.492 92.0181 100.471L100.642 94.195C102.409 92.8866 103.84 91.1767 104.816 89.2063C105.791 87.236 106.284 85.0617 106.254 82.8632C106.249 79.1221 104.761 75.5356 102.116 72.8898C99.4714 70.2441 95.8854 68.7549 92.1443 68.7487Z" fill="#263238"/>
<path d="M54.225 87.3062H88.2252V72.8877H54.225C52.3128 72.8889 50.4792 73.6491 49.127 75.0013C47.7749 76.3534 47.0147 78.187 47.0134 80.0992C47.0147 82.0111 47.775 83.8442 49.1273 85.1956C50.4796 86.547 52.3132 87.3062 54.225 87.3062Z" fill="white" stroke="#263238" stroke-width="0.467677" stroke-linecap="round" stroke-linejoin="round"/>
<path d="M53.458 77.9807H71.6881" stroke="#263238" stroke-width="0.467677" stroke-linejoin="round"/>
<path d="M53.458 80.2816H71.6881" stroke="#263238" stroke-width="0.467677" stroke-linejoin="round"/>
<path d="M53.458 82.5826H71.6881" stroke="#263238" stroke-width="0.467677" stroke-linejoin="round"/>
<path d="M99.7956 92.8201L91.1763 99.0869L83.324 93.0071C81.3715 91.6215 79.8083 89.7567 78.7848 87.5923C77.7613 85.4279 77.3118 83.0365 77.4796 80.6481C77.6475 78.2598 78.4269 75.9548 79.7431 73.9548C81.0593 71.9547 82.8679 70.327 84.995 69.228C87.1221 68.129 89.4962 67.5957 91.889 67.6794C94.2817 67.7632 96.6127 68.4611 98.6578 69.7062C100.703 70.9512 102.393 72.7014 103.566 74.7886C104.739 76.8758 105.356 79.2296 105.356 81.6239C105.386 83.7977 104.897 85.9474 103.93 87.8946C102.963 89.8417 101.546 91.5302 99.7956 92.8201Z" fill="white" stroke="#263238" stroke-width="0.467677" stroke-linecap="round" stroke-linejoin="round"/>
<path d="M93.3441 93.743C100.038 92.666 104.592 86.3663 103.515 79.6722C102.438 72.9782 96.138 68.4247 89.4439 69.5017C82.7498 70.5787 78.1963 76.8784 79.2733 83.5724C80.3503 90.2665 86.65 94.82 93.3441 93.743Z" fill="#3683BD" stroke="#263238" stroke-width="0.467677" stroke-linejoin="round"/>
<path d="M102.059 87.7037C102.943 82.7042 98.0325 80.6558 97.5414 78.1116C97.5414 78.1116 98.7714 77.8638 99.183 75.7265C99.5945 73.5892 98.6872 70.713 94.3332 69.8104C89.9791 68.9077 84.8814 72.6164 84.0443 75.9743C83.2071 79.3323 85.6063 80.9037 84.3716 82.1383C84.1598 82.3256 83.9179 82.4758 83.6561 82.5826C83.0388 82.9568 82.1689 83.4899 81.5843 83.8126C80.6022 84.3551 80.055 89.7054 85.1854 90.3601C90.3158 91.0149 91.5131 89.378 94.3519 89.0506C96.1384 88.8448 99.0941 89.0272 101.04 89.1909" fill="#263238"/>
<path d="M102.059 87.7037C102.943 82.7042 98.0325 80.6558 97.5414 78.1116C97.5414 78.1116 98.7714 77.8638 99.183 75.7265C99.5945 73.5892 98.6872 70.713 94.3332 69.8104C89.9791 68.9077 84.8814 72.6164 84.0443 75.9743C83.2071 79.3323 85.6063 80.9037 84.3716 82.1383C84.1598 82.3256 83.9179 82.4758 83.6561 82.5826C83.0388 82.9568 82.1689 83.4899 81.5843 83.8126C80.6022 84.3551 80.055 89.7054 85.1854 90.3601C90.3158 91.0149 91.5131 89.378 94.3519 89.0506C96.1384 88.8448 99.0941 89.0272 101.04 89.1909" stroke="#263238" stroke-width="0.467677" stroke-linecap="round" stroke-linejoin="round"/>
<path d="M100.74 86.4924C99.0194 86.4924 96.8821 87.7224 96.1432 87.7224C95.4043 87.7224 95.3201 84.603 95.3201 84.603L91.4571 83.7798C91.4571 83.7798 91.8687 86.8197 91.705 88.0544C91.5413 89.2891 88.7446 89.4574 87.5941 89.6118C86.4436 89.7661 85.7888 90.5191 85.4615 92.2448C85.4588 92.2806 85.4588 92.3166 85.4615 92.3524C86.9386 93.1761 88.5712 93.6826 90.2552 93.8396C91.9201 93.545 93.5991 93.2129 94.9319 92.8715C95.8252 92.6423 96.6951 92.4412 97.5182 92.2682C99.4541 91.1572 101.051 89.5406 102.139 87.5914C102.075 87.2718 101.898 86.9856 101.642 86.7842C101.386 86.5828 101.066 86.4793 100.74 86.4924Z" fill="white" stroke="#263238" stroke-width="0.467677" stroke-linecap="round" stroke-linejoin="round"/>
<path d="M85.7185 92.5067C88.3415 93.8729 91.3694 94.2467 94.2459 93.5594C97.1224 92.872 99.6543 91.1698 101.376 88.7653C99.3279 89.0272 99.1408 90.1076 97.9483 90.1076C96.6341 90.1076 95.0721 89.9439 93.2715 90.7623C91.4709 91.5807 91.2137 91.9128 88.6695 91.9128C87.6559 91.91 86.6521 92.112 85.7185 92.5067Z" fill="#3683BD" stroke="#263238" stroke-width="0.467677" stroke-linecap="round" stroke-linejoin="round"/>
<path d="M94.9082 73.5892C94.9082 73.5892 97.7845 75.8106 97.9481 78.8505C98.1118 81.8904 97.125 84.1072 96.1429 85.1782C95.1608 86.2492 93.8419 85.833 92.5278 84.9303C91.6592 84.2982 90.9075 83.5196 90.3063 82.6294C89.9062 82.5887 89.531 82.4159 89.24 82.1383C88.9066 81.8651 88.6744 81.488 88.5806 81.0673C88.5806 81.0673 91.0452 80.9878 91.6205 79.3416C92.1957 77.6954 91.7047 76.2222 92.5278 75.0717C93.1365 74.3291 93.9732 73.808 94.9082 73.5892Z" fill="white" stroke="#263238" stroke-width="0.467677" stroke-linecap="round" stroke-linejoin="round"/>
<path d="M94.1696 77.7796C94.1696 77.7796 92.7666 77.1248 92.196 78.3548" stroke="#263238" stroke-width="0.467677" stroke-linecap="round" stroke-linejoin="round"/>
<path d="M95.811 77.3586C95.811 77.3586 96.7978 76.6197 97.1252 77.4382" stroke="#263238" stroke-width="0.467677" stroke-linecap="round" stroke-linejoin="round"/>
<path d="M95.4042 83.6162C95.2059 83.6606 95.0003 83.6615 94.8017 83.6187C94.603 83.5759 94.416 83.4904 94.2537 83.3683" stroke="#263238" stroke-width="0.467677" stroke-linecap="round" stroke-linejoin="round"/>
<path d="M95.895 78.0274C95.7158 78.8364 95.6326 79.6636 95.6471 80.4921C95.7313 81.4789 95.4039 81.7267 94.9082 81.5631" stroke="#263238" stroke-width="0.467677" stroke-linecap="round" stroke-linejoin="round"/>
<path d="M93.29 80.0571C93.4527 80.0571 93.5846 79.7724 93.5846 79.4211C93.5846 79.0698 93.4527 78.7851 93.29 78.7851C93.1273 78.7851 92.9954 79.0698 92.9954 79.4211C92.9954 79.7724 93.1273 80.0571 93.29 80.0571Z" fill="#263238"/>
<path d="M96.7229 79.7157C96.8856 79.7157 97.0175 79.431 97.0175 79.0797C97.0175 78.7284 96.8856 78.4437 96.7229 78.4437C96.5601 78.4437 96.4282 78.7284 96.4282 79.0797C96.4282 79.431 96.5601 79.7157 96.7229 79.7157Z" fill="#263238"/>
<path d="M91.7282 149.582C89.6292 149.582 87.5567 150.051 85.6619 150.954C83.767 151.857 82.0975 153.171 80.7752 154.801H54.5572C52.634 154.85 50.8057 155.648 49.4626 157.025C48.1194 158.403 47.3677 160.25 47.3677 162.174C47.3677 164.098 48.1194 165.946 49.4626 167.323C50.8057 168.701 52.634 169.499 54.5572 169.547H78.8765C79.9112 171.814 81.5241 173.769 83.5532 175.215L91.4055 181.295C91.4353 181.317 91.4715 181.329 91.5084 181.328C91.5425 181.328 91.5756 181.317 91.602 181.295L100.221 175.033C101.989 173.724 103.42 172.014 104.396 170.042C105.372 168.071 105.864 165.896 105.833 163.697C105.828 159.956 104.341 156.371 101.697 153.725C99.0533 151.079 95.4685 149.59 91.7282 149.582Z" fill="#263238"/>
<path d="M53.9396 168.284H87.9397V153.866H53.9396C52.0282 153.866 50.1951 154.625 48.8435 155.977C47.492 157.328 46.7327 159.161 46.7327 161.073C46.7321 162.02 46.918 162.957 47.2799 163.832C47.6418 164.707 48.1726 165.502 48.8419 166.172C49.5112 166.842 50.3058 167.373 51.1805 167.735C52.0552 168.098 52.9928 168.284 53.9396 168.284Z" fill="white" stroke="#263238" stroke-width="0.467677" stroke-linecap="round" stroke-linejoin="round"/>
<path d="M53.1726 158.959H71.4027" stroke="#263238" stroke-width="0.467677" stroke-linejoin="round"/>
<path d="M53.1726 161.26H71.4027" stroke="#263238" stroke-width="0.467677" stroke-linejoin="round"/>
<path d="M53.1726 163.556H71.4027" stroke="#263238" stroke-width="0.467677" stroke-linejoin="round"/>
<path d="M99.5149 173.798L90.8956 180.065L83.0433 173.985C81.0907 172.6 79.5276 170.735 78.504 168.571C77.4805 166.406 77.0311 164.015 77.1989 161.626C77.3667 159.238 78.1462 156.933 79.4624 154.933C80.7785 152.933 82.5871 151.305 84.7142 150.206C86.8413 149.107 89.2154 148.574 91.6082 148.658C94.001 148.742 96.332 149.439 98.377 150.684C100.422 151.93 102.112 153.68 103.286 155.767C104.459 157.854 105.075 160.208 105.076 162.602C105.105 164.776 104.615 166.925 103.648 168.872C102.681 170.819 101.264 172.508 99.5149 173.798Z" fill="white" stroke="#263238" stroke-width="0.467677" stroke-linecap="round" stroke-linejoin="round"/>
<path d="M78.8623 162.504C78.8623 164.932 79.5823 167.306 80.9313 169.324C82.2803 171.343 84.1976 172.917 86.4408 173.846C88.6841 174.775 91.1525 175.018 93.5339 174.545C95.9153 174.071 98.1028 172.902 99.8197 171.185C101.537 169.468 102.706 167.28 103.18 164.899C103.653 162.518 103.41 160.049 102.481 157.806C101.552 155.563 99.9782 153.645 97.9593 152.296C95.9405 150.947 93.5669 150.227 91.1389 150.227C89.5258 150.224 87.928 150.54 86.4372 151.156C84.9463 151.772 83.5918 152.676 82.4512 153.816C81.3106 154.957 80.4064 156.311 79.7905 157.802C79.1747 159.293 78.8592 160.891 78.8623 162.504Z" fill="#3683BD" stroke="#263238" stroke-width="0.467677" stroke-linejoin="round"/>
<path d="M81.6824 170.338C82.7905 171.674 84.1691 172.76 85.7274 173.524C87.2857 174.289 88.9884 174.715 90.7231 174.773C92.4579 174.832 94.1855 174.523 95.792 173.865C97.3985 173.208 98.8474 172.218 100.043 170.96L94.1319 169.641L85.9523 169.234L81.6824 170.338Z" fill="#3683BD" stroke="#263238" stroke-width="0.467677" stroke-linecap="round" stroke-linejoin="round"/>
<path d="M87.6267 166.255C88.1598 164.295 87.5378 161.265 87.5378 161.265C88.8754 159.932 92.8834 166.409 92.8834 166.409C92.8834 166.409 92.7945 167.569 94.1321 169.617C94.2071 169.737 94.2883 169.852 94.3753 169.963C93.5475 171.292 91.7937 173.803 90.4795 173.541C89.1653 173.279 87.1122 170.735 85.9524 169.21C87.1684 168.467 87.2198 167.751 87.6267 166.255Z" fill="white" stroke="#263238" stroke-width="0.467677" stroke-linecap="round" stroke-linejoin="round"/>
<path d="M86.247 158.688C86.247 158.688 85.625 158.594 85.5362 159.754C85.4473 160.914 85.9805 161.541 86.4201 161.541H87.1309C87.2447 162.232 87.4009 162.916 87.5986 163.589C87.9541 164.927 87.9541 165.642 90.8069 166.797C93.6597 167.952 94.3706 167.779 95.175 166.531C95.9794 165.282 95.9747 160.741 96.0636 158.781C96.1524 156.822 96.5079 154.572 96.5079 154.572C95.9191 153.974 95.2246 153.49 94.4595 153.146C93.1219 152.524 89.025 153.235 87.7763 153.861C86.5276 154.488 86.9766 157.692 86.9766 157.692L86.247 158.688Z" fill="white" stroke="#263238" stroke-width="0.467677" stroke-linecap="round" stroke-linejoin="round"/>
<path d="M94.7257 164.683C93.8959 164.901 93.0182 164.851 92.219 164.538" stroke="#263238" stroke-width="0.467677" stroke-linecap="round" stroke-linejoin="round"/>
<path d="M94.7119 159.843C94.7119 160.138 94.8335 160.381 94.9785 160.381C95.1235 160.381 95.2497 160.138 95.2497 159.843C95.2497 159.548 95.1282 159.31 94.9785 159.31C94.8288 159.31 94.7119 159.548 94.7119 159.843Z" fill="#263238"/>
<path d="M92.1304 160.198C92.1304 160.498 92.2473 160.736 92.3969 160.736C92.5466 160.736 92.6635 160.498 92.6635 160.198C92.6635 159.899 92.5466 159.665 92.3969 159.665C92.2473 159.665 92.1304 159.904 92.1304 160.198Z" fill="#263238"/>
<path d="M95.5161 158.15C95.3794 158.04 95.2132 157.973 95.0384 157.957C94.8637 157.941 94.6881 157.977 94.5339 158.061" stroke="#263238" stroke-width="0.467677" stroke-linecap="round" stroke-linejoin="round"/>
<path d="M92.5746 158.328C92.5746 158.328 91.5036 157.883 90.7039 159.132" stroke="#263238" stroke-width="0.467677" stroke-linecap="round" stroke-linejoin="round"/>
<path d="M94.0196 159.38L94.3563 162.962L92.6633 163.14" stroke="#263238" stroke-width="0.467677" stroke-linecap="round" stroke-linejoin="round"/>
<path d="M84.465 152.449C84.5538 151.023 86.8034 151.556 88.2064 151.023C89.6094 150.489 92.1255 148.885 94.2628 148.885C94.8218 148.843 95.378 148.998 95.8344 149.324C96.2907 149.649 96.6184 150.125 96.7602 150.667L96.6667 149.241C96.6667 149.241 98.0931 150.045 98.0042 151.556C97.9154 153.066 96.8491 154.853 96.1335 154.764C95.418 154.675 89.3616 154.409 89.0061 155.302C88.6507 156.195 89.9883 157.883 89.9883 157.883C89.8994 158.777 88.5852 158.594 88.473 158.954C88.4225 159.816 88.4523 160.68 88.5618 161.536C88.5688 162.037 88.4412 162.532 88.1924 162.967C88.175 163.411 88.3049 163.848 88.5618 164.211C88.7749 164.446 89.0369 164.632 89.3294 164.754C89.622 164.877 89.9378 164.934 90.2548 164.922C90.2548 164.922 92.3033 163.051 93.8185 163.318C95.3338 163.584 95.6892 164.3 95.6892 164.3H95.7313C95.6892 164.618 95.6425 164.913 95.591 165.193C95.3385 164.8 94.5996 163.842 93.4631 163.842C92.0601 163.842 90.5214 165.535 90.5214 165.535C90.5214 165.535 92.0367 166.512 92.8364 166.512C93.6361 166.512 93.4631 165.535 93.9962 165.623C94.5294 165.712 94.3517 166.245 94.6183 166.245C94.9522 166.185 95.253 166.006 95.4648 165.74C95.3973 166.01 95.2935 166.27 95.1561 166.512C94.3517 167.761 93.6408 167.915 90.788 166.779C87.9352 165.642 87.9352 164.908 87.5797 163.57L87.4815 163.192C87.5659 162.556 87.7084 161.93 87.9071 161.321C87.9305 160.24 87.7902 159.198 87.4909 158.837C87.0232 158.3 86.2422 158.66 86.2422 158.66C86.2422 158.66 84.3761 153.875 84.465 152.449Z" fill="#263238" stroke="#263238" stroke-width="0.467677" stroke-linecap="round" stroke-linejoin="round"/>
</svg>
