<svg width="240" height="240" viewBox="0 0 240 240" fill="none" xmlns="http://www.w3.org/2000/svg">
<path d="M121.089 236.424C182.606 236.424 232.474 207.632 232.474 172.115C232.474 136.599 182.606 107.807 121.089 107.807C59.5726 107.807 9.70361 136.599 9.70361 172.115C9.70361 207.632 59.5726 236.424 121.089 236.424Z" fill="#FAFAFA"/>
<path d="M226.747 107.954L225.475 108.711L199.401 93.6556L200.673 92.8985L226.747 107.954Z" fill="#FAFAFA"/>
<path d="M200.673 92.8985L225.475 107.216V48.3882L200.673 34.0799V92.8985Z" fill="white"/>
<path d="M197.006 95.0412L227.875 112.863V47.0025L197.006 29.1803V95.0412ZM199.387 33.3371L225.461 48.3881V108.711L199.387 93.6556V33.3371Z" fill="#F0F0F0"/>
<path d="M199.401 93.6556L200.673 92.8985V34.0799L199.401 33.3371V93.6556Z" fill="#E0E0E0"/>
<path d="M197.006 29.1803L198.297 28.4423L229.165 46.2645L227.875 47.0026L197.006 29.1803Z" fill="#FAFAFA"/>
<path d="M229.165 46.2645L227.875 47.0026V112.863L229.165 112.125V46.2645Z" fill="#E0E0E0"/>
<path d="M202.534 91.4129L223.613 103.588V50.6308L202.534 38.4604V91.4129Z" fill="#F0F0F0"/>
<path d="M202.534 91.4129L223.613 103.588V50.6308L202.534 38.4604V91.4129Z" fill="#F0F0F0"/>
<path d="M223.613 82.547C222.61 82.6232 221.602 82.6232 220.599 82.547C217.091 82.2798 213.636 81.5283 210.333 80.3139C207.781 79.3616 205.234 78.1474 202.534 78.076V91.4129L205.391 93.0651C206.506 92.042 207.847 91.2964 209.305 90.8891C213.367 89.8226 217.533 91.8414 221.709 92.3176C222.341 92.3849 222.977 92.4167 223.613 92.4128V82.547Z" fill="#FAFAFA"/>
<path d="M223.613 71.129C218.899 69.7339 214.057 68.5768 210.691 65.1152C207.981 62.325 206.7 58.4492 205.81 54.6733C204.92 50.8974 204.305 46.974 202.587 43.4838C202.587 43.4457 202.548 43.4172 202.534 43.3791V65.2819C202.796 65.6771 203.063 66.0723 203.344 66.4532C206.439 70.6528 211.005 74.1573 216.2 74.4287C218.647 74.5525 221.175 73.9811 223.599 73.9907L223.613 71.129Z" fill="#FAFAFA"/>
<path d="M223.613 62.2012C219.99 59.0348 218.085 53.8924 218.942 49.1214C219.009 48.7691 219.09 48.4215 219.18 48.0691L211.086 43.3886C211.121 43.9219 211.145 44.4552 211.157 44.9884C211.243 48.0834 211.157 51.2212 211.824 54.24C212.417 56.7741 213.547 59.1512 215.139 61.2106C216.73 63.27 218.745 64.9637 221.047 66.1771C221.873 66.6017 222.731 66.9599 223.613 67.2484V62.2012Z" fill="#FAFAFA"/>
<path d="M188.959 50.9022L187.869 51.5498L165.542 38.6604L166.628 38.0081L188.959 50.9022Z" fill="#FAFAFA"/>
<path d="M166.628 38.0081L187.869 50.2689V32.2086L166.628 19.9573V38.0081Z" fill="white"/>
<path d="M163.49 39.846L189.921 55.1066V31.023L163.49 15.7863V39.846ZM165.542 19.3193L187.869 32.2086V51.5498L165.542 38.6604V19.3193Z" fill="#F0F0F0"/>
<path d="M165.542 38.6604L166.628 38.0081V19.9573L165.542 19.3193V38.6604Z" fill="#E0E0E0"/>
<path d="M163.49 15.7625L164.595 15.1292L191.026 30.3897L189.921 31.023L163.49 15.7625Z" fill="#FAFAFA"/>
<path d="M191.026 30.3897L189.921 31.023V55.1066L191.026 54.4733V30.3897Z" fill="#E0E0E0"/>
<path d="M167.461 37.3462L187.041 48.65V47.1787L182.146 35.8749L179.094 38.6985L179.518 41.3221L173.432 28.9803L167.461 35.8749V37.3462Z" fill="#F0F0F0"/>
<path d="M179.279 30.4135C179.697 30.6905 180.044 31.062 180.293 31.4979C180.541 31.9338 180.683 32.4219 180.708 32.9228C180.708 33.8465 180.06 34.2227 179.279 33.7608C178.861 33.4838 178.514 33.1123 178.266 32.6765C178.018 32.2406 177.876 31.7525 177.851 31.2515C177.832 30.3278 178.479 29.9516 179.279 30.4135Z" fill="#F0F0F0"/>
<path d="M188.959 84.8325L187.869 85.4848L165.542 72.5907L166.628 71.9432L188.959 84.8325Z" fill="#FAFAFA"/>
<path d="M166.628 71.9432L187.869 84.204V66.1437L166.628 53.8876V71.9432Z" fill="white"/>
<path d="M163.49 73.7954L189.921 89.0322V64.9581L163.49 49.7213V73.7954ZM165.542 53.2686L187.869 66.1628V85.5039L165.542 72.6098V53.2686Z" fill="#F0F0F0"/>
<path d="M165.542 72.5907L166.628 71.9432V53.8876L165.542 53.2543V72.5907Z" fill="#E0E0E0"/>
<path d="M163.49 49.6975L164.595 49.0643L191.026 64.3248L189.921 64.9581L163.49 49.6975Z" fill="#FAFAFA"/>
<path d="M191.026 64.3248L189.921 64.9581V89.0369L191.026 88.4084V64.3248Z" fill="#E0E0E0"/>
<path d="M167.461 71.2766L187.041 82.5851V81.1138L182.146 69.8053L179.094 72.6336L179.518 75.2524L173.432 62.9106L167.461 69.8053V71.2766Z" fill="#F0F0F0"/>
<path d="M179.279 64.3486C179.697 64.6256 180.044 64.9971 180.293 65.433C180.541 65.8689 180.683 66.357 180.708 66.8579C180.708 67.7816 180.06 68.153 179.279 67.6912C178.861 67.4149 178.515 67.0443 178.266 66.6092C178.018 66.1741 177.876 65.6868 177.851 65.1866C177.832 64.2724 178.479 63.8867 179.279 64.3486Z" fill="#F0F0F0"/>
<path d="M71.4126 21.7238L72.7506 22.4714V81.1995L71.4126 80.452V21.7238Z" fill="#FAFAFA"/>
<path d="M71.4126 80.452L71.4078 23.2427L17.7078 54.2495L17.7173 111.454L71.4126 80.452Z" fill="white"/>
<path d="M75.2408 82.6327V18.1718L15.2461 52.8163V117.277L75.2408 82.6327ZM17.7078 112.978V54.2733L72.7506 22.4952V81.1995L17.7078 112.978Z" fill="#F0F0F0"/>
<path d="M72.7505 81.1996L71.4126 80.452L17.7173 111.454L17.7078 112.978L72.7505 81.1996Z" fill="#E0E0E0"/>
<path d="M57.7566 31.1277L59.0946 30.3516V89.0798L57.7566 88.337V31.1277Z" fill="#FAFAFA"/>
<path d="M27.5928 48.5453L28.9308 47.7691V106.497L27.5928 105.755V48.5453Z" fill="#FAFAFA"/>
<path d="M15.2223 117.277L13.8938 116.506V52.0402L15.2223 52.8163V117.277Z" fill="#E0E0E0"/>
<path d="M13.8938 52.0402L15.2223 52.8164L75.2313 18.1718L73.9028 17.3957L13.8938 52.0402Z" fill="#FAFAFA"/>
<path d="M17.7078 81.0233V82.5661L72.7553 50.7831L71.4221 50.007L17.7078 81.0233Z" fill="#E0E0E0"/>
<path d="M17.7125 85.4277L17.7078 82.5661L72.7553 50.7831L72.7505 53.6543L17.7125 85.4277Z" fill="#F0F0F0"/>
<path d="M28.9307 109.368L31.4114 107.935V43.4695L28.9307 44.9027V109.368Z" fill="#F0F0F0"/>
<path d="M59.0898 91.951L61.5706 90.5225V26.0568L59.0898 27.49V91.951Z" fill="#F0F0F0"/>
<path d="M28.9308 76.0857L27.5928 75.3143V48.5453L28.9308 47.7691V76.0857Z" fill="#FAFAFA"/>
<path d="M59.085 58.6777L57.7471 57.9063V31.1325L59.085 30.3611V58.6777Z" fill="#FAFAFA"/>
<path d="M224.623 209.926C224.289 211.536 223.633 213.062 222.694 214.412C221.142 216.754 218.723 218.949 215.457 220.84C202.934 228.068 182.603 228.068 170.104 220.84C166.842 218.935 164.423 216.754 162.866 214.412C161.937 213.059 161.289 211.534 160.962 209.926C159.843 204.493 162.904 198.827 170.123 194.661C182.646 187.424 202.953 187.424 215.476 194.661C222.675 198.827 225.737 204.493 224.623 209.926Z" fill="#EBEBEB"/>
<path d="M49.0525 213.44L7.67521 189.79C7.0705 189.442 7.0705 188.881 7.67521 188.533L139.449 112.454C139.787 112.282 140.161 112.193 140.54 112.193C140.919 112.193 141.292 112.282 141.63 112.454L183.012 136.104C183.144 136.149 183.258 136.234 183.339 136.347C183.42 136.46 183.464 136.596 183.464 136.735C183.464 136.874 183.42 137.01 183.339 137.123C183.258 137.236 183.144 137.321 183.012 137.366L51.238 213.44C50.8995 213.613 50.5251 213.702 50.1453 213.702C49.7655 213.702 49.391 213.613 49.0525 213.44Z" fill="#EBEBEB"/>
<path d="M170.437 184.41L164.804 181.157C164.163 180.829 163.45 180.667 162.73 180.684C162.01 180.701 161.305 180.899 160.681 181.257L131.598 200.013C125.922 196.68 118.08 194.651 109.419 194.651C92.0964 194.651 78.05 202.851 78.05 212.964C78.05 223.078 92.0964 231.282 109.419 231.282C126.741 231.282 140.792 223.082 140.792 212.964C140.792 209.731 139.364 206.698 136.831 204.06L170.385 186.724C171.57 186.114 171.594 185.076 170.437 184.41Z" fill="#EBEBEB"/>
<path d="M136.621 200.546C136.356 200.668 136.063 200.717 135.773 200.689C135.483 200.66 135.205 200.555 134.969 200.384C134.288 199.944 133.72 199.348 133.313 198.647C132.906 197.945 132.671 197.157 132.626 196.347C132.596 196.054 132.646 195.759 132.77 195.492C132.894 195.226 133.088 194.998 133.331 194.832L162.376 176.448C162.971 176.048 163.804 176.072 164.757 176.615C165.709 177.232 166.503 178.065 167.073 179.046C167.643 180.027 167.973 181.129 168.037 182.262C168.037 183.357 167.637 184.105 166.995 184.424L136.621 200.546Z" fill="#455A64"/>
<path d="M132.626 196.347C132.626 194.856 133.664 194.247 134.959 194.99C135.64 195.432 136.206 196.029 136.613 196.731C137.02 197.433 137.256 198.222 137.302 199.032C137.302 200.522 136.259 201.127 134.969 200.384C134.288 199.944 133.72 199.348 133.313 198.647C132.906 197.945 132.671 197.157 132.626 196.347Z" fill="#37474F"/>
<path d="M129.189 202.679C128.774 202.414 128.429 202.054 128.181 201.63C127.933 201.205 127.788 200.728 127.76 200.237C127.737 200.061 127.763 199.883 127.835 199.721C127.907 199.56 128.023 199.422 128.17 199.323L133.945 195.961C134.105 195.887 134.282 195.856 134.458 195.873C134.634 195.89 134.802 195.953 134.945 196.056C135.358 196.322 135.703 196.682 135.951 197.107C136.2 197.531 136.344 198.008 136.374 198.499C136.393 198.675 136.364 198.853 136.291 199.015C136.219 199.176 136.104 199.315 135.959 199.418L130.184 202.775C130.024 202.849 129.848 202.879 129.673 202.863C129.498 202.846 129.331 202.783 129.189 202.679Z" fill="#3683BD"/>
<path opacity="0.2" d="M129.189 202.679C128.774 202.414 128.429 202.054 128.181 201.63C127.933 201.205 127.788 200.728 127.76 200.237C127.737 200.061 127.763 199.883 127.835 199.721C127.907 199.56 128.023 199.422 128.17 199.323L133.945 195.961C134.105 195.887 134.282 195.856 134.458 195.873C134.634 195.89 134.802 195.953 134.945 196.056C135.358 196.322 135.703 196.682 135.951 197.107C136.2 197.531 136.344 198.008 136.374 198.499C136.393 198.675 136.364 198.853 136.291 199.015C136.219 199.176 136.104 199.315 135.959 199.418L130.184 202.775C130.024 202.849 129.848 202.879 129.673 202.863C129.498 202.846 129.331 202.783 129.189 202.679Z" fill="black"/>
<path opacity="0.2" d="M131.903 198.027C131.693 197.866 131.474 197.707 131.245 197.551L128.203 199.318C129.436 200.061 130.574 200.953 131.588 201.975L134.379 200.356L134.15 200.089C133.46 199.34 132.708 198.651 131.903 198.027Z" fill="black"/>
<path opacity="0.15" d="M136.055 195.942L165.962 177.567C165.609 177.197 165.206 176.876 164.766 176.615C163.814 176.072 162.971 176.048 162.386 176.453L133.341 194.832C133.605 194.71 133.898 194.66 134.189 194.689C134.479 194.717 134.757 194.823 134.993 194.994C135.396 195.25 135.755 195.57 136.055 195.942Z" fill="black"/>
<path d="M135.712 207.884C135.712 207.765 135.712 207.669 135.712 207.603C135.712 207.536 135.712 207.379 135.712 207.265C135.712 206.988 135.669 206.717 135.631 206.446C135.631 206.346 135.598 206.25 135.579 206.146C135.51 205.767 135.417 205.394 135.302 205.027L135.202 204.722C135.102 204.451 134.998 204.174 134.879 203.908C134.836 203.813 134.793 203.722 134.745 203.627L134.617 203.37C134.555 203.251 134.493 203.132 134.421 203.013C134.35 202.894 134.288 202.775 134.212 202.656L133.988 202.308C133.589 201.696 133.136 201.121 132.636 200.589C131.984 199.878 131.27 199.227 130.503 198.642C129.65 197.984 128.753 197.388 127.817 196.856C117.342 190.866 100.401 190.866 90.0301 196.856C89.7682 197.008 89.5159 197.161 89.2683 197.332C88.3413 197.907 87.4609 198.553 86.6352 199.265C86.4019 199.475 86.159 199.684 85.9543 199.899C85.4102 200.428 84.9072 200.998 84.4497 201.603C84.3687 201.708 84.2925 201.818 84.2164 201.927C84.1402 202.037 84.0164 202.217 83.9259 202.365C83.8354 202.513 83.6736 202.77 83.5593 202.975C83.445 203.179 83.3164 203.451 83.2069 203.66C83.1593 203.76 83.1117 203.855 83.0736 203.955C83.0355 204.055 82.9546 204.232 82.9022 204.374C82.8498 204.517 82.8212 204.584 82.7879 204.689C82.5395 205.411 82.3796 206.161 82.3118 206.922C82.3118 207.003 82.3118 207.084 82.3118 207.165C82.3118 207.341 82.3118 207.517 82.3118 207.684C82.3118 208.336 82.3118 211.274 82.3118 211.817C82.3118 215.778 84.9211 219.754 90.1777 222.768C100.61 228.791 117.532 228.791 127.965 222.768C133.236 219.73 135.831 215.74 135.759 211.764C135.712 211.312 135.74 208.845 135.712 207.884ZM91.511 199.461C96.082 196.823 102.243 195.37 108.857 195.37C115.471 195.37 121.684 196.823 126.313 199.465C130.431 201.813 132.698 204.755 132.707 207.75C132.717 210.745 130.479 213.659 126.413 216.007C121.818 218.664 115.642 220.121 109.019 220.121C102.396 220.121 96.2296 218.664 91.63 216.007C87.5304 213.626 85.2686 210.679 85.2686 207.669C85.2686 204.66 87.5113 201.784 91.53 199.461H91.511Z" fill="#3683BD"/>
<path opacity="0.25" d="M135.712 207.884C135.712 207.765 135.712 207.669 135.712 207.603C135.712 207.536 135.712 207.379 135.712 207.265C135.712 206.988 135.669 206.717 135.631 206.446C135.631 206.346 135.598 206.25 135.579 206.146C135.51 205.767 135.417 205.394 135.302 205.027L135.202 204.722C135.102 204.451 134.998 204.174 134.879 203.908C134.836 203.813 134.793 203.722 134.745 203.627L134.617 203.37C134.555 203.251 134.493 203.132 134.421 203.013C134.35 202.894 134.288 202.775 134.212 202.656L133.988 202.308C133.589 201.696 133.136 201.121 132.636 200.589C131.984 199.878 131.27 199.227 130.503 198.642C129.65 197.984 128.753 197.388 127.817 196.856C117.342 190.866 100.401 190.866 90.0301 196.856C89.7682 197.008 89.5159 197.161 89.2683 197.332C88.3413 197.907 87.4609 198.553 86.6352 199.265C86.4019 199.475 86.159 199.684 85.9543 199.899C85.4102 200.428 84.9072 200.998 84.4497 201.603C84.3687 201.708 84.2925 201.818 84.2164 201.927C84.1402 202.037 84.0164 202.217 83.9259 202.365C83.8354 202.513 83.6736 202.77 83.5593 202.975C83.445 203.179 83.3164 203.451 83.2069 203.66C83.1593 203.76 83.1117 203.855 83.0736 203.955C83.0355 204.055 82.9546 204.232 82.9022 204.374C82.8498 204.517 82.8212 204.584 82.7879 204.689C82.5395 205.411 82.3796 206.161 82.3118 206.922C82.3118 207.003 82.3118 207.084 82.3118 207.165C82.3118 207.341 82.3118 207.517 82.3118 207.684C82.3118 208.336 82.3118 211.274 82.3118 211.817C82.3118 215.778 84.9211 219.754 90.1777 222.768C100.61 228.791 117.532 228.791 127.965 222.768C133.236 219.73 135.831 215.74 135.759 211.764C135.712 211.312 135.74 208.845 135.712 207.884ZM91.511 199.461C96.082 196.823 102.243 195.37 108.857 195.37C115.471 195.37 121.684 196.823 126.313 199.465C130.431 201.813 132.698 204.755 132.707 207.75C132.717 210.745 130.479 213.659 126.413 216.007C121.818 218.664 115.642 220.121 109.019 220.121C102.396 220.121 96.2296 218.664 91.63 216.007C87.5304 213.626 85.2686 210.679 85.2686 207.669C85.2686 204.66 87.5113 201.784 91.53 199.461H91.511Z" fill="white"/>
<path d="M135.712 207.884H132.707C132.707 210.86 130.479 213.659 126.412 216.007C121.956 218.583 116.009 220.03 109.609 220.116V227.282C116.251 227.201 122.851 225.701 127.917 222.773C133.188 219.735 135.783 215.745 135.712 211.769C135.712 211.312 135.74 208.845 135.712 207.884Z" fill="#3683BD"/>
<path d="M135.712 207.593C135.712 207.484 135.712 207.369 135.712 207.255C135.712 206.979 135.669 206.708 135.631 206.436C135.631 206.336 135.598 206.241 135.579 206.136C135.51 205.758 135.417 205.384 135.302 205.017L135.202 204.713C135.102 204.441 134.998 204.165 134.879 203.898C134.836 203.803 134.793 203.713 134.745 203.617L134.617 203.36C134.555 203.241 134.493 203.122 134.421 203.003C134.35 202.884 134.288 202.765 134.212 202.646L133.988 202.298C133.589 201.687 133.136 201.111 132.636 200.58C131.981 199.871 131.268 199.22 130.503 198.632C129.65 197.975 128.753 197.378 127.817 196.847C117.342 190.857 100.401 190.857 90.0301 196.847C89.7682 196.999 89.5159 197.151 89.2683 197.323C88.3413 197.897 87.4609 198.543 86.6352 199.256C86.4019 199.465 86.159 199.675 85.9543 199.889C85.4102 200.418 84.9072 200.988 84.4497 201.594C84.3687 201.698 84.2925 201.808 84.2164 201.918C84.1402 202.027 84.0164 202.208 83.9259 202.356C83.8354 202.503 83.6736 202.76 83.5593 202.965C83.445 203.17 83.3164 203.441 83.2069 203.651C83.1593 203.751 83.1117 203.846 83.0736 203.946C83.0355 204.046 82.9546 204.222 82.9022 204.365C82.8498 204.508 82.8212 204.574 82.7879 204.679C82.5395 205.402 82.3796 206.151 82.3118 206.912C82.3118 206.993 82.3118 207.074 82.3118 207.155C82.3118 207.331 82.3118 207.508 82.3118 207.674C82.3118 211.631 84.9353 215.593 90.1777 218.626C100.61 224.649 117.532 224.649 127.965 218.626C133.112 215.654 135.712 211.783 135.759 207.898C135.736 207.765 135.712 207.669 135.712 207.593ZM126.413 215.997C121.818 218.654 115.642 220.111 109.019 220.111C102.396 220.111 96.2296 218.654 91.63 215.997C87.5304 213.616 85.2686 210.669 85.2686 207.66C85.2686 204.651 87.4923 201.775 91.511 199.451C96.082 196.813 102.243 195.361 108.857 195.361C115.471 195.361 121.684 196.813 126.313 199.456C130.431 201.803 132.698 204.746 132.707 207.741C132.717 210.736 130.498 213.659 126.432 216.007L126.413 215.997Z" fill="#3683BD"/>
<path opacity="0.45" d="M135.712 207.593C135.712 207.484 135.712 207.369 135.712 207.255C135.712 206.979 135.669 206.708 135.631 206.436C135.631 206.336 135.598 206.241 135.579 206.136C135.51 205.758 135.417 205.384 135.302 205.017L135.202 204.713C135.102 204.441 134.998 204.165 134.879 203.898C134.836 203.803 134.793 203.713 134.745 203.617L134.617 203.36C134.555 203.241 134.493 203.122 134.421 203.003C134.35 202.884 134.288 202.765 134.212 202.646L133.988 202.298C133.589 201.687 133.136 201.111 132.636 200.58C131.981 199.871 131.268 199.22 130.503 198.632C129.65 197.975 128.753 197.378 127.817 196.847C117.342 190.857 100.401 190.857 90.0301 196.847C89.7682 196.999 89.5159 197.151 89.2683 197.323C88.3413 197.897 87.4609 198.543 86.6352 199.256C86.4019 199.465 86.159 199.675 85.9543 199.889C85.4102 200.418 84.9072 200.988 84.4497 201.594C84.3687 201.698 84.2925 201.808 84.2164 201.918C84.1402 202.027 84.0164 202.208 83.9259 202.356C83.8354 202.503 83.6736 202.76 83.5593 202.965C83.445 203.17 83.3164 203.441 83.2069 203.651C83.1593 203.751 83.1117 203.846 83.0736 203.946C83.0355 204.046 82.9546 204.222 82.9022 204.365C82.8498 204.508 82.8212 204.574 82.7879 204.679C82.5395 205.402 82.3796 206.151 82.3118 206.912C82.3118 206.993 82.3118 207.074 82.3118 207.155C82.3118 207.331 82.3118 207.508 82.3118 207.674C82.3118 211.631 84.9353 215.593 90.1777 218.626C100.61 224.649 117.532 224.649 127.965 218.626C133.112 215.654 135.712 211.783 135.759 207.898C135.736 207.765 135.712 207.669 135.712 207.593ZM126.413 215.997C121.818 218.654 115.642 220.111 109.019 220.111C102.396 220.111 96.2296 218.654 91.63 215.997C87.5304 213.616 85.2686 210.669 85.2686 207.66C85.2686 204.651 87.4923 201.775 91.511 199.451C96.082 196.813 102.243 195.361 108.857 195.361C115.471 195.361 121.684 196.813 126.313 199.456C130.431 201.803 132.698 204.746 132.707 207.741C132.717 210.736 130.498 213.659 126.432 216.007L126.413 215.997Z" fill="white"/>
<path d="M132.726 207.75C132.727 208.261 132.663 208.77 132.536 209.265C131.912 206.793 129.765 204.427 126.346 202.475C121.718 199.832 115.518 198.38 108.89 198.38C102.262 198.38 96.1153 199.832 91.5443 202.47C88.2113 204.374 86.1067 206.731 85.4925 209.169C85.3654 208.679 85.3014 208.175 85.302 207.669C85.302 204.698 87.5256 201.784 91.5443 199.461C96.1153 196.823 102.277 195.37 108.89 195.37C115.504 195.37 121.718 196.823 126.346 199.465C130.474 201.813 132.717 204.736 132.726 207.75Z" fill="#3683BD"/>
<path opacity="0.25" d="M132.726 207.75C132.727 208.261 132.663 208.77 132.536 209.265C131.912 206.793 129.765 204.427 126.346 202.475C121.718 199.832 115.518 198.38 108.89 198.38C102.262 198.38 96.1153 199.832 91.5443 202.47C88.2113 204.374 86.1067 206.731 85.4925 209.169C85.3654 208.679 85.3014 208.175 85.302 207.669C85.302 204.698 87.5256 201.784 91.5443 199.461C96.1153 196.823 102.277 195.37 108.89 195.37C115.504 195.37 121.718 196.823 126.346 199.465C130.474 201.813 132.717 204.736 132.726 207.75Z" fill="white"/>
<path opacity="0.55" d="M132.679 208.546C132.326 211.245 130.141 213.874 126.432 216.016C121.837 218.673 115.661 220.13 109.038 220.13C102.415 220.13 96.2485 218.673 91.6489 216.016C87.8921 213.845 85.6828 211.183 85.3352 208.441C85.6828 205.731 87.8493 203.113 91.5251 200.989C96.0962 198.351 102.258 196.899 108.871 196.899C115.485 196.899 121.699 198.351 126.327 200.994C130.112 203.136 132.336 205.793 132.679 208.546Z" fill="white"/>
<path d="M140.025 117.906L142.406 116.52C142.406 116.52 155.124 75.0192 156.31 72.6146C157.495 70.2101 155.357 68.9816 153.062 70.3053L33.6586 139.166C31.3683 140.485 30.6446 142.304 28.6066 146.265C26.5687 150.227 15.084 188.357 15.084 188.357C15.0005 188.79 15.0542 189.238 15.2377 189.64C15.4212 190.041 15.7254 190.375 16.1077 190.595L43.2958 206.341L168.204 134.228L140.025 117.906Z" fill="#3683BD"/>
<path opacity="0.35" d="M140.025 117.906L142.406 116.52C142.406 116.52 155.124 75.0192 156.31 72.6146C157.495 70.2101 155.357 68.9816 153.062 70.3053L33.6586 139.166C31.3683 140.485 30.6446 142.304 28.6066 146.265C26.5687 150.227 15.084 188.357 15.084 188.357C15.0005 188.79 15.0542 189.238 15.2377 189.64C15.4212 190.041 15.7254 190.375 16.1077 190.595L43.2958 206.341L168.204 134.228L140.025 117.906Z" fill="white"/>
<path d="M30.1067 147.222C28.5783 150.222 16.5984 189.166 16.5984 189.166L143.93 115.649C143.93 115.649 156.562 76.0667 157.824 73.5717C159.086 71.0766 156.872 69.9434 154.577 71.2623L35.1539 140.123C32.8636 141.447 31.659 144.223 30.1067 147.222Z" fill="#3683BD"/>
<path opacity="0.25" d="M30.1067 147.222C28.5783 150.222 16.5984 189.166 16.5984 189.166L143.93 115.649C143.93 115.649 156.562 76.0667 157.824 73.5717C159.086 71.0766 156.872 69.9434 154.577 71.2623L35.1539 140.123C32.8636 141.447 31.659 144.223 30.1067 147.222Z" fill="black"/>
<path d="M141.506 117.054L16.5984 189.166L44.2579 205.141L169.166 133.028L141.506 117.054Z" fill="#3683BD"/>
<path opacity="0.15" d="M141.506 117.054L16.5984 189.166L44.2579 205.141L169.166 133.028L141.506 117.054Z" fill="black"/>
<path d="M150.206 26.1044L29.8638 95.4555C27.2212 96.9792 26.3974 99.4456 26.8641 102.698L41.1057 202.641C41.5818 205.889 44.1578 207.793 46.8195 206.27L166.095 137.433C168.737 135.909 170.499 132.038 170.032 128.791L155.824 29.228C155.358 25.9806 152.853 24.5808 150.206 26.1044Z" fill="#3683BD"/>
<path opacity="0.35" d="M150.206 26.1044L29.8638 95.4555C27.2212 96.9792 26.3974 99.4456 26.8641 102.698L41.1057 202.641C41.5818 205.889 44.1578 207.793 46.8195 206.27L166.095 137.433C168.737 135.909 170.499 132.038 170.032 128.791L155.824 29.228C155.358 25.9806 152.853 24.5808 150.206 26.1044Z" fill="white"/>
<path d="M158.314 28.228C157.779 28.0431 157.209 27.983 156.647 28.0523C156.085 28.1216 155.546 28.3185 155.072 28.628L35.7918 97.4695C34.4549 98.3079 33.3949 99.5219 32.7445 100.96L28.8972 99.3313C29.74 97.4838 31.2208 96.8077 32.4826 96.0696L151.753 27.2328C152.245 26.9076 152.809 26.7061 153.396 26.6456C153.983 26.585 154.576 26.6673 155.124 26.8853L158.314 28.228Z" fill="#455A64"/>
<path d="M44.9719 207.274C43.7911 206.798 42.9102 205.565 42.6578 203.779L28.5448 104.74C28.2543 102.712 28.1591 100.888 28.8971 99.355L32.7492 100.988C32.6444 101.203 32.554 101.417 32.4587 101.641C32.3635 101.864 32.3254 101.998 32.273 102.179C32.2608 102.204 32.2527 102.231 32.2492 102.26C32.1752 102.463 32.1147 102.672 32.0683 102.883C32.0094 103.098 31.9617 103.316 31.9255 103.536C31.8925 103.693 31.8703 103.852 31.8588 104.012C31.7588 104.713 31.7588 105.425 31.8588 106.126L46.0433 205.689C46.3004 207.493 47.1955 208.731 48.3907 209.207L44.9719 207.274Z" fill="#263238"/>
<path d="M155.067 28.6327L34.7253 97.9885C32.0874 99.5122 31.2637 101.979 31.7303 105.226L46.0386 205.689C46.5147 208.936 49.024 210.336 51.6619 208.812L170.947 139.98C173.584 138.456 175.346 134.585 174.884 131.333L160.69 31.761C160.224 28.5089 157.705 27.1329 155.067 28.6327Z" fill="#37474F"/>
<path d="M163.614 139.504L57.1468 200.927C55.7803 201.718 54.4756 200.989 54.2328 199.308L40.1912 100.798C39.9483 99.1123 40.8625 97.1077 42.2291 96.3173L148.696 34.8941C150.062 34.1037 151.367 34.8275 151.61 36.513L165.652 135.028C165.894 136.709 164.98 138.718 163.614 139.504Z" fill="#263238"/>
<path d="M40.1912 100.798L54.2328 199.327C54.2328 199.394 54.2566 199.456 54.2709 199.518L160.738 138.095C162.104 137.304 163.018 135.3 162.776 133.614L148.696 34.8798L42.2291 96.303C40.8625 97.1267 39.9483 99.1123 40.1912 100.798Z" fill="#C3DAEB"/>
<path d="M45.6195 161.807C45.6716 162.24 45.6037 162.679 45.4231 163.076C45.2426 163.473 44.9564 163.813 44.5958 164.059C43.9054 164.454 43.253 164.092 43.1292 163.245C43.0776 162.811 43.1463 162.372 43.3277 161.974C43.5091 161.577 43.7962 161.237 44.1577 160.992C44.8434 160.593 45.5005 160.959 45.6195 161.807Z" fill="#263238"/>
<path d="M40.958 138.737C40.6777 138.927 40.4552 139.191 40.3149 139.499C40.1746 139.808 40.122 140.149 40.1629 140.485L42.4912 156.707C42.5865 157.369 43.0959 157.66 43.6292 157.345C43.9092 157.154 44.1313 156.889 44.2715 156.58C44.4117 156.271 44.4645 155.93 44.4244 155.593L42.1008 139.371C42.0103 138.709 41.5008 138.428 40.958 138.737Z" fill="#263238"/>
<path d="M92.3488 89.8417L102.61 81.9281L100.329 66.0342L71.6697 82.5709L86.9065 91.0987L92.3488 89.8417ZM153.772 88.118L149.487 58.1207L128.503 68.6721L132.788 98.6695L153.772 88.118ZM98.4578 132.562L105.6 126.448C106.15 124.682 107.078 123.057 108.319 121.686L103 84.6945L92.744 92.6176L87.3207 93.8651L93.0345 133.676L98.4578 132.562ZM149.044 55.3304L146.735 39.2223L125.955 51.2308L128.093 65.8914L149.044 55.3304ZM114.209 72.7194L124.684 67.4532L122.632 53.1687L104.391 63.7059L106.533 78.676L114.209 72.7194ZM157.315 113.097L154.134 90.8654L133.15 101.412L134.34 109.754L157.315 113.097ZM52.8618 111.987L63.718 109.478L60.7707 88.8703L42.4961 99.417L45.0197 117.035L52.8618 111.987ZM90.2871 134.204L84.6019 94.5032L66.9225 85.3183L63.9037 87.061L71.2174 138.176L90.2871 134.204ZM54.8474 125.886L65.7036 123.377L64.1037 112.264L53.2475 114.744L45.4244 119.81L47.0052 130.933L54.8474 125.886ZM74.4742 184.638L72.0935 167.973L70.0508 187.181L74.4742 184.638ZM95.7438 172.358L92.6679 150.884L75.4599 167.778L77.6216 182.833L95.7438 172.358ZM160.471 134.99L157.738 115.873L134.759 112.54L127.746 138.418L129.788 152.703L160.471 134.99ZM52.9952 172.606L56.1949 195.175L67.4225 188.7L70.8317 159.283L68.1986 140.875L57.2996 143.104L52.5857 145.603C51.887 147.259 50.9219 148.788 49.7288 150.132L52.5857 169.844L60.4136 164.74L60.804 167.521L52.9952 172.606ZM56.9234 140.352L67.832 138.114L66.094 126.172L55.2426 128.662L47.4099 133.704L47.5576 134.766C50.6335 134.085 53.1094 135.747 53.6142 139.247C53.7398 140.231 53.7254 141.228 53.5713 142.208L56.9234 140.352ZM92.2869 148.084L90.6918 136.966L71.6459 140.909L75.0932 164.978L92.2869 148.084ZM111.871 131.086C114.042 129.829 115.533 126.948 115.204 124.653C114.875 122.358 112.823 121.496 110.662 122.748C108.5 124.001 106.99 126.881 107.328 129.186C107.667 131.49 109.681 132.362 111.857 131.1L111.871 131.086ZM126.003 154.893L123.808 139.504L126.613 128.1L121.375 126.743L116.809 130.49L114.285 132.762L118.094 159.426L126.003 154.893ZM114.047 161.797L110.147 134.519C107.647 134.8 105.629 133.29 105.214 130.419C105.164 130.05 105.14 129.677 105.143 129.305L98.834 135.071L93.4107 136.347L98.3483 170.863L114.047 161.797ZM118.927 105.44L129.403 100.203L125.117 70.2434L114.642 75.5144L106.948 81.4138L111.233 111.368L118.927 105.44ZM121.518 123.534L127.36 125.062L130.898 110.611L129.803 102.993L119.327 108.259L111.652 114.192L112.38 119.334C114.875 119.058 116.871 120.582 117.285 123.463C117.435 124.639 117.351 125.833 117.037 126.977L121.518 123.534Z" fill="#F0F0F0"/>
<path d="M123.76 129.472L122.151 129.057L118.57 131.99L116.808 133.581L119.999 155.793L123.436 153.807L121.356 139.275L123.76 129.472ZM130.169 138.68L131.655 149.06L157.905 133.904L155.572 117.601L136.621 114.849L130.169 138.68ZM118.808 120.715L125.474 122.472L128.445 110.368L127.874 106.393L120.87 109.911L114.166 115.092L114.504 117.473C115.29 117.658 116.038 117.981 116.713 118.425C117.582 119.013 118.3 119.798 118.808 120.715ZM136.497 108.016L154.591 110.64L152.234 94.2699L135.711 102.588L136.497 108.016ZM64.0749 128.791L56.3613 130.571L52.0759 133.347C52.2283 133.424 52.3759 133.505 52.5235 133.59C53.3874 134.116 54.1307 134.819 54.705 135.651C55.2793 136.484 55.6717 137.429 55.8565 138.423L58.9658 137.823L65.1557 136.528L64.0749 128.791ZM105.752 135.423C105.013 134.921 104.385 134.273 103.905 133.519L100.224 136.895L96.0197 137.885L100.215 167.192L111.48 160.688L108 136.404C107.198 136.214 106.437 135.882 105.752 135.423ZM58.2897 145.075L54.5995 147.037C54.4948 147.265 54.3852 147.489 54.271 147.713C53.707 148.809 53.0321 149.844 52.2569 150.803L54.4329 165.973L62.256 160.888L63.3368 168.549L55.528 173.634L58.0992 191.533L65.151 187.462L68.4316 159.15L66.1842 143.437L58.2897 145.075ZM88.6441 139.547L74.2454 142.528L76.7595 160.083L89.7583 147.322L88.6441 139.547ZM134.669 95.2222L151.181 86.9467L147.544 61.5251L131.031 69.8339L134.669 95.2222ZM97.1148 130.695L103.405 125.296C103.623 124.674 103.884 124.068 104.186 123.482C104.638 122.603 105.177 121.772 105.795 121.001L101.205 88.9513L94.0198 94.4937L89.9393 95.446L95.0483 131.124L97.1148 130.695ZM61.0894 107.921L58.8801 92.5224L45.0718 100.503L46.8859 113.163L51.5569 110.126L61.0894 107.921ZM146.487 54.1686L144.873 42.8744L128.522 52.3117L129.998 62.4679L146.487 54.1686ZM112.742 70.9957L122.132 66.2771L120.775 56.7875L106.966 64.7629L108.342 74.3954L112.742 70.9957ZM100.067 80.9948L98.448 69.6673L76.0119 82.6233L87.1728 88.8656L91.0249 87.9752L100.067 80.9948ZM87.649 132.6L82.3828 95.6602L67.146 87.7514L66.4651 88.1466L73.2598 135.6L87.649 132.6Z" fill="#AFC4D3"/>
<path d="M93.1915 171.268L90.9536 155.788L77.969 168.549L79.4927 179.186L93.1915 171.268ZM111.576 129.157C112.162 128.803 112.64 128.295 112.958 127.688C113.275 127.081 113.42 126.398 113.375 125.715C113.19 124.472 112.104 124.02 110.933 124.686C110.348 125.046 109.872 125.558 109.557 126.168C109.241 126.778 109.098 127.463 109.142 128.148C109.319 129.376 110.414 129.838 111.576 129.157ZM117.432 103.717L126.817 99.0313L123.189 73.6669L116.189 77.1618L109.476 82.3661L113.028 107.126L117.432 103.717ZM53.295 124.191L63.0751 121.81L62.0895 114.882L54.3759 116.663L47.9717 120.82L48.8621 127.043L53.295 124.191Z" fill="#3683BD"/>
<path opacity="0.6" d="M93.1915 171.268L90.9536 155.788L77.969 168.549L79.4927 179.186L93.1915 171.268ZM111.576 129.157C112.162 128.803 112.64 128.295 112.958 127.688C113.275 127.081 113.42 126.398 113.375 125.715C113.19 124.472 112.104 124.02 110.933 124.686C110.348 125.046 109.872 125.558 109.557 126.168C109.241 126.778 109.098 127.463 109.142 128.148C109.319 129.376 110.414 129.838 111.576 129.157ZM117.432 103.717L126.817 99.0313L123.189 73.6669L116.189 77.1618L109.476 82.3661L113.028 107.126L117.432 103.717ZM53.295 124.191L63.0751 121.81L62.0895 114.882L54.3759 116.663L47.9717 120.82L48.8621 127.043L53.295 124.191Z" fill="white"/>
<path d="M61.3325 97.3791C61.3325 94.8508 59.6659 93.7604 57.6137 94.946C55.5615 96.1316 53.895 99.1409 53.895 101.669V102.245C53.895 104.193 56.0996 106.45 57.1138 107.388C57.1714 107.44 57.2404 107.478 57.3154 107.5C57.3903 107.521 57.4691 107.524 57.5456 107.51C57.6222 107.496 57.6944 107.464 57.7566 107.417C57.8188 107.37 57.8693 107.31 57.9042 107.24C58.7803 105.445 61.3325 100.046 61.3325 97.9505V97.3791ZM57.6233 101.517C56.5329 102.15 55.6472 101.636 55.6472 100.379C55.6849 99.6938 55.8834 99.0273 56.2267 98.4333C56.57 97.8394 57.0485 97.3346 57.6233 96.9601C58.7136 96.3316 59.5945 96.8411 59.5945 98.1029C59.5578 98.7869 59.3602 99.4526 59.0176 100.046C58.6751 100.639 58.1973 101.143 57.6233 101.517Z" fill="#3683BD"/>
<path d="M96.02 89.4703C96.02 86.942 94.3534 85.8564 92.3012 87.042C90.249 88.2276 88.573 91.2368 88.573 93.7652V94.3413C88.573 96.284 90.7776 98.5457 91.7918 99.479C91.8464 99.5376 91.9151 99.5816 91.9912 99.6066C92.0674 99.6317 92.1487 99.6372 92.2275 99.6224C92.3064 99.6077 92.3802 99.5733 92.4422 99.5224C92.5042 99.4715 92.5524 99.4058 92.5822 99.3314C93.4583 97.541 96.0104 92.1415 96.0104 90.0465L96.02 89.4703ZM92.3012 93.6128C91.2109 94.2413 90.3252 93.7318 90.3252 92.4748C90.3621 91.7896 90.5603 91.1228 90.9037 90.5287C91.2471 89.9346 91.7259 89.43 92.3012 89.0561C93.3916 88.4276 94.2725 88.937 94.2725 90.1941C94.2365 90.8789 94.0392 91.5456 93.6967 92.1397C93.3541 92.7338 92.8759 93.2386 92.3012 93.6128Z" fill="#3683BD"/>
<path d="M105.795 97.6648C105.795 95.1365 104.129 94.0461 102.076 95.2317C100.024 96.4173 98.3577 99.4266 98.3577 101.955V102.531C98.3577 104.479 100.562 106.735 101.576 107.673C101.634 107.727 101.703 107.766 101.778 107.788C101.853 107.809 101.932 107.813 102.009 107.799C102.086 107.785 102.158 107.752 102.22 107.705C102.283 107.658 102.333 107.596 102.367 107.526C103.243 105.731 105.795 100.331 105.795 98.2362V97.6648ZM102.076 101.803C100.986 102.436 100.105 101.922 100.105 100.665C100.142 99.9799 100.339 99.3135 100.682 98.7195C101.024 98.1255 101.502 97.6206 102.076 97.2458C103.167 96.6173 104.048 97.1268 104.048 98.3886C104.011 99.0726 103.813 99.7383 103.471 100.332C103.128 100.925 102.65 101.429 102.076 101.803Z" fill="#3683BD"/>
<path d="M70.1794 148.608C70.1794 146.08 68.5129 144.994 66.4607 146.18C64.4085 147.365 62.7419 150.374 62.7419 152.903V153.479C62.7419 155.426 64.9465 157.683 65.9607 158.617C66.0154 158.675 66.084 158.719 66.1602 158.744C66.2364 158.769 66.3176 158.775 66.3965 158.76C66.4753 158.745 66.5492 158.711 66.6112 158.66C66.6732 158.609 66.7213 158.543 66.7511 158.469C67.6272 156.679 70.1794 151.279 70.1794 149.184V148.608ZM66.4607 152.75C65.3703 153.379 64.4846 152.869 64.4846 151.612C64.5223 150.927 64.7208 150.261 65.0641 149.667C65.4074 149.073 65.8859 148.568 66.4607 148.194C67.5463 147.565 68.4319 148.075 68.4319 149.332C68.3948 150.016 68.197 150.682 67.8546 151.276C67.5121 151.87 67.0346 152.375 66.4607 152.75Z" fill="#3683BD"/>
<path d="M136.869 128.553C136.869 126.024 135.202 124.939 133.15 126.124C131.098 127.31 129.431 130.319 129.431 132.843V133.419C129.431 135.366 131.636 137.623 132.65 138.561C132.707 138.614 132.776 138.654 132.851 138.675C132.926 138.697 133.005 138.701 133.082 138.687C133.159 138.672 133.232 138.64 133.294 138.593C133.356 138.545 133.406 138.484 133.44 138.414C134.316 136.618 136.869 131.219 136.869 129.129V128.553ZM133.15 132.695C132.059 133.324 131.179 132.814 131.179 131.552C131.215 130.868 131.413 130.203 131.756 129.609C132.098 129.016 132.576 128.512 133.15 128.138C134.24 127.505 135.121 128.019 135.121 129.276C135.083 129.959 134.885 130.624 134.542 131.216C134.2 131.808 133.723 132.312 133.15 132.686V132.695Z" fill="#3683BD"/>
<path d="M139.835 82.5328C139.835 80.0045 138.173 78.9189 136.116 80.1045C134.059 81.2901 132.402 84.2993 132.402 86.8277V87.4038C132.402 89.3465 134.607 91.6082 135.621 92.5415C135.676 92.6001 135.744 92.6441 135.821 92.6691C135.897 92.6942 135.978 92.6997 136.057 92.6849C136.136 92.6702 136.21 92.6358 136.272 92.5849C136.334 92.534 136.382 92.4683 136.412 92.3939C137.288 90.6035 139.835 85.204 139.835 83.109V82.5328ZM136.116 86.6753C135.026 87.3038 134.145 86.7944 134.145 85.5373C134.181 84.8525 134.378 84.1858 134.721 83.5917C135.063 82.9975 135.542 82.4928 136.116 82.1186C137.207 81.4901 138.092 81.9995 138.092 83.2566C138.055 83.9416 137.856 84.6081 137.513 85.2021C137.17 85.7961 136.691 86.3008 136.116 86.6753Z" fill="#3683BD"/>
<path d="M125.398 9.26779C124.684 8.85355 123.694 8.91544 122.599 9.54396L34.2921 60.5299C32.1066 61.7965 30.3306 64.8629 30.3306 67.3865V76.1191C30.3306 77.3809 30.7734 78.2712 31.4924 78.6855L35.3587 80.9377C36.0729 81.3519 37.0633 81.29 38.1537 80.6615L126.474 29.6565C128.66 28.3947 130.431 25.3235 130.431 22.7999V14.0674C130.431 12.8056 129.988 11.9199 129.279 11.5057L125.398 9.26779Z" fill="#3683BD"/>
<path opacity="0.35" d="M125.398 9.26779C124.684 8.85355 123.694 8.91544 122.599 9.54396L34.2921 60.5299C32.1066 61.7965 30.3306 64.8629 30.3306 67.3865V76.1191C30.3306 77.3809 30.7734 78.2712 31.4924 78.6855L35.3587 80.9377C36.0729 81.3519 37.0633 81.29 38.1537 80.6615L126.474 29.6565C128.66 28.3947 130.431 25.3235 130.431 22.7999V14.0674C130.431 12.8056 129.988 11.9199 129.279 11.5057L125.398 9.26779Z" fill="white"/>
<path d="M30.3208 67.3865V76.1191C30.3208 77.3809 30.7636 78.2713 31.4826 78.6855L35.3585 80.9377C36.0441 81.3329 36.9869 81.29 38.0249 80.7282V67.3056L31.4826 63.4964C30.77 64.6728 30.3701 66.0119 30.3208 67.3865Z" fill="#3683BD"/>
<path d="M130.431 14.0674C130.431 11.5438 128.66 10.5201 126.474 11.7819L38.1536 62.7678C35.968 64.0296 34.1968 67.1008 34.1968 69.6244V78.357C34.1968 80.8805 35.968 81.9043 38.1536 80.6425L126.474 29.6565C128.66 28.3947 130.431 25.3235 130.431 22.7999V14.0674Z" fill="#3683BD"/>
<path opacity="0.15" d="M130.431 14.0674C130.431 11.5438 128.66 10.5201 126.474 11.7819L38.1536 62.7678C35.968 64.0296 34.1968 67.1008 34.1968 69.6244V78.357C34.1968 80.8805 35.968 81.9043 38.1536 80.6425L126.474 29.6565C128.66 28.3947 130.431 25.3235 130.431 22.7999V14.0674Z" fill="white"/>
<path d="M38.9533 64.8867C38.1787 65.3945 37.534 66.0768 37.0709 66.879C36.6078 67.6811 36.3393 68.5806 36.2869 69.5054V76.9761C36.2869 78.1855 37.1392 78.676 38.1915 78.076L114.323 34.0847V21.3382L38.9533 64.8867Z" fill="#FAFAFA"/>
<path d="M127.365 25.2283L125.779 24.0284C125.57 23.8713 125.274 23.9665 125.013 24.2332L125.041 24.176L124.484 23.757C124.922 22.7962 125.159 21.7559 125.179 20.7001C125.179 18.3194 123.751 17.2481 121.965 18.2718C120.18 19.2955 118.751 22.0476 118.751 24.4141C118.751 26.7805 120.18 27.8662 121.965 26.8424C122.785 26.3213 123.467 25.6089 123.951 24.7664L124.513 25.1902L124.541 25.1331C124.489 25.2885 124.478 25.4547 124.509 25.6157C124.539 25.7767 124.611 25.927 124.717 26.052L126.303 27.2519C126.381 27.3041 126.473 27.332 126.567 27.332C126.661 27.332 126.753 27.3041 126.831 27.2519C127.061 27.1073 127.246 26.9011 127.365 26.6567C127.655 26.0901 127.655 25.4569 127.365 25.2283ZM121.965 25.5092C120.742 26.2139 119.746 25.4616 119.746 23.8332C119.746 22.2048 120.742 20.3097 121.965 19.605C123.189 18.9003 124.179 19.6478 124.179 21.2763C124.179 22.9047 123.184 24.8141 121.965 25.5188V25.5092Z" fill="#E6E6E6"/>
<path d="M214.071 195.723C213.571 188.838 214.343 183.562 213.771 172.815C213.719 170.058 213.619 167.102 213.438 164.487C212.814 155.664 211.452 152.65 211.329 150.946C211.329 150.946 211.095 137.223 210.519 117.92C210.248 108.84 207.615 106.088 205.515 101.255H180.522C177.732 113.159 176.936 139.085 177.022 151.341C177.065 157.588 179.584 191.018 179.636 191.79C179.812 194.518 179.574 195.599 178.508 196.742C176.27 199.123 173.023 201.427 170.218 203.522C170.623 204.598 173.999 204.555 175.67 203.741C177.856 202.604 179.94 201.28 181.898 199.784C184.203 198.08 187.136 196.708 187.183 194.113C187.196 193.953 187.223 193.793 187.264 193.637C187.307 192.123 190.84 169.758 191.135 164.592C191.388 160.131 190.845 152.555 190.845 152.555L193.702 133.657C193.702 133.657 195.473 144.827 197.268 152.455C198.73 158.645 201.139 169.258 202.787 176.901C204.367 185.705 206.686 191.966 207.072 196.375C207.196 197.427 208.386 207.75 208.877 210.117C209.367 212.483 214.524 212.545 214.857 208.479C215.114 205.76 214.167 197.018 214.071 195.723Z" fill="#B16668"/>
<path d="M165.442 206.284C165.3 206.284 165.066 207.85 165.838 208.526C166.723 209.307 169.333 210.602 172.808 210.193C176.284 209.783 178.175 208.726 179.575 207.579C180.974 206.431 182.936 204.817 184.512 204.484C185.974 204.179 187.564 203.532 188.036 203.089C188.507 202.646 188.464 200.641 188.464 200.641L165.442 206.284Z" fill="#263238"/>
<path d="M187.336 192.914C187.336 192.914 187.598 192.914 187.683 193.39C187.783 193.942 187.878 195.551 188.102 196.461C188.407 197.723 188.578 200.303 188.388 201.332C188.197 202.36 185.802 203.041 184.279 203.603C182.484 204.362 180.813 205.386 179.322 206.641C177.679 207.965 174.237 209.279 171.975 209.288C168.523 209.288 166.295 208.336 165.619 207.093C164.78 205.551 165.461 204.665 169.428 202.87C170.18 202.532 172.837 200.999 173.742 200.441C174.703 199.858 175.614 199.196 176.465 198.461C176.895 198.089 177.304 197.693 177.689 197.275C178.09 196.906 178.432 196.477 178.703 196.004C178.751 195.899 178.784 195.775 178.827 195.67C178.941 195.369 179.03 195.058 179.094 194.742C179.16 194.413 179.208 193.933 179.522 193.737C179.975 193.556 180.469 193.504 180.95 193.585C181.465 193.624 181.976 193.702 182.479 193.818C183.06 193.956 183.736 194.013 184.079 194.566C184.3 195.008 184.407 195.5 184.388 195.994C184.388 196.223 184.388 196.47 184.388 196.689C184.388 196.789 184.345 196.966 184.484 196.928C184.622 196.889 184.764 196.547 184.817 196.428C184.931 196.17 185.003 195.894 185.126 195.637C185.262 195.341 185.431 195.061 185.631 194.804C185.818 194.57 186.03 194.357 186.264 194.171C186.501 194.039 186.73 193.894 186.95 193.737C187.155 193.506 187.289 193.22 187.336 192.914Z" fill="#37474F"/>
<path d="M168.804 203.184C173.799 203.584 175.337 206.689 175.532 208.598C174.39 209.017 173.191 209.257 171.975 209.307C168.523 209.307 166.152 208.355 165.476 207.112C164.685 205.655 165.233 204.493 168.804 203.184Z" fill="#FAFAFA"/>
<path d="M176.294 203.308C176.351 203.307 176.405 203.289 176.451 203.256C176.476 203.236 176.497 203.211 176.513 203.183C176.528 203.155 176.538 203.124 176.542 203.092C176.545 203.06 176.542 203.028 176.533 202.997C176.524 202.966 176.509 202.938 176.489 202.913C175.913 202.304 175.214 201.825 174.438 201.509C173.662 201.193 172.827 201.046 171.99 201.08C171.958 201.083 171.927 201.092 171.898 201.107C171.87 201.122 171.845 201.142 171.824 201.167C171.804 201.192 171.789 201.221 171.78 201.251C171.77 201.282 171.767 201.314 171.771 201.346C171.773 201.378 171.782 201.41 171.797 201.438C171.811 201.467 171.832 201.492 171.857 201.513C171.882 201.533 171.911 201.549 171.942 201.558C171.973 201.567 172.005 201.569 172.037 201.565C172.793 201.543 173.546 201.679 174.246 201.963C174.947 202.248 175.581 202.675 176.108 203.217C176.131 203.245 176.159 203.268 176.191 203.283C176.223 203.299 176.258 203.307 176.294 203.308Z" fill="#F0F0F0"/>
<path d="M178.46 202.084C178.517 202.086 178.573 202.067 178.618 202.032C178.667 201.991 178.699 201.932 178.706 201.868C178.713 201.804 178.695 201.74 178.656 201.689C178.08 201.08 177.381 200.601 176.604 200.286C175.828 199.97 174.993 199.825 174.156 199.861C174.101 199.876 174.053 199.91 174.021 199.957C173.988 200.005 173.974 200.062 173.979 200.119C173.985 200.176 174.011 200.229 174.052 200.269C174.093 200.308 174.147 200.333 174.204 200.337C174.959 200.313 175.712 200.447 176.413 200.731C177.114 201.015 177.748 201.442 178.275 201.984C178.295 202.015 178.323 202.039 178.355 202.057C178.388 202.074 178.424 202.084 178.46 202.084Z" fill="#F0F0F0"/>
<path d="M180.47 200.675C180.526 200.676 180.582 200.658 180.627 200.622C180.676 200.581 180.708 200.523 180.715 200.459C180.722 200.395 180.704 200.331 180.665 200.28C180.088 199.672 179.389 199.194 178.613 198.877C177.837 198.561 177.002 198.414 176.165 198.446C176.133 198.449 176.102 198.459 176.074 198.474C176.045 198.489 176.02 198.509 176 198.534C175.98 198.559 175.964 198.587 175.955 198.618C175.946 198.649 175.943 198.681 175.946 198.713C175.948 198.745 175.957 198.777 175.972 198.805C175.987 198.834 176.007 198.859 176.032 198.88C176.057 198.9 176.086 198.915 176.117 198.924C176.148 198.933 176.181 198.936 176.213 198.932C176.969 198.91 177.721 199.046 178.422 199.33C179.123 199.615 179.757 200.042 180.284 200.584C180.306 200.612 180.334 200.635 180.367 200.65C180.399 200.666 180.434 200.674 180.47 200.675Z" fill="#F0F0F0"/>
<path d="M182.441 199.265C182.496 199.264 182.549 199.246 182.593 199.213C182.644 199.173 182.676 199.114 182.684 199.05C182.692 198.986 182.675 198.922 182.636 198.87C181.684 197.651 179.536 196.832 177.722 197.009C177.657 197.015 177.597 197.046 177.555 197.096C177.514 197.146 177.493 197.21 177.498 197.275C177.506 197.339 177.537 197.398 177.587 197.439C177.637 197.48 177.701 197.5 177.765 197.494C179.403 197.337 181.412 198.089 182.25 199.17C182.273 199.199 182.302 199.222 182.335 199.238C182.368 199.255 182.404 199.264 182.441 199.265Z" fill="#F0F0F0"/>
<path d="M207.296 211.95C207.434 214.331 207.801 215.873 208.639 217.254C209.477 218.635 211.053 219.068 212.648 218.683C214.243 218.297 216.295 217.197 216.752 215.164C217.209 213.131 217.476 211.736 217.114 209.55L207.296 211.95Z" fill="#263238"/>
<path d="M214.014 194.88C214.671 194.932 214.867 198.099 215.248 201.265C215.652 204.665 216.676 206.07 217.033 208.855C217.447 212.036 216.919 213.459 215.805 215.383C214.69 217.307 210.743 219.192 208.801 216.44C207.215 214.193 207.148 211.702 207.291 208.522C207.375 205.836 207.305 203.148 207.082 200.47C206.953 198.089 206.425 195.685 206.996 195.423C207.039 195.77 207.082 196.213 207.129 196.556C207.152 196.987 207.224 197.413 207.344 197.827C207.41 198.004 207.558 198.194 207.615 197.904C207.648 197.708 207.648 197.509 207.615 197.313C207.52 196.432 207.962 196.361 208.201 196.294C209.21 196.096 210.228 195.951 211.253 195.861C211.757 195.828 213.495 195.751 213.719 196.037C213.867 196.321 213.944 196.636 213.943 196.956C213.995 197.432 214.11 197.789 214.124 197.637C214.152 197.294 214.086 196.404 214.076 196.209C214.067 196.013 214.038 195.732 214.033 195.513C214.029 195.294 214.029 195.085 214.014 194.88Z" fill="#37474F"/>
<path d="M217.214 210.698C217.334 212.4 216.904 214.096 215.986 215.535C214.867 217.44 210.605 219.345 208.658 216.597C207.705 215.226 207.429 213.602 207.296 211.95C208.462 209.826 215.376 208.888 217.214 210.698Z" fill="#FAFAFA"/>
<path d="M208.734 208.488C208.76 208.493 208.788 208.493 208.815 208.488C208.843 208.488 211.891 207.212 214.852 207.903C214.916 207.916 214.982 207.904 215.037 207.869C215.092 207.835 215.132 207.78 215.147 207.717C215.162 207.653 215.15 207.587 215.115 207.531C215.081 207.476 215.025 207.437 214.962 207.422C211.829 206.698 208.719 207.993 208.605 208.046C208.542 208.063 208.488 208.104 208.456 208.161C208.423 208.217 208.414 208.285 208.431 208.348C208.448 208.411 208.49 208.465 208.547 208.497C208.603 208.53 208.671 208.539 208.734 208.522V208.488Z" fill="#F0F0F0"/>
<path d="M214.705 205.508C214.762 205.505 214.817 205.483 214.86 205.443C214.902 205.404 214.929 205.351 214.936 205.294C214.943 205.237 214.929 205.179 214.897 205.131C214.865 205.083 214.817 205.047 214.762 205.032C211.81 204.032 208.534 205.531 208.41 205.598C208.381 205.613 208.356 205.633 208.335 205.657C208.314 205.682 208.299 205.71 208.289 205.741C208.279 205.771 208.276 205.803 208.278 205.835C208.281 205.867 208.29 205.898 208.305 205.927C208.336 205.984 208.389 206.026 208.451 206.045C208.514 206.064 208.581 206.057 208.638 206.027C208.638 206.027 211.857 204.56 214.605 205.493C214.636 205.505 214.671 205.51 214.705 205.508Z" fill="#F0F0F0"/>
<path d="M214.605 203.275C214.65 203.269 214.694 203.251 214.73 203.223C214.766 203.194 214.794 203.156 214.809 203.113C214.83 203.051 214.826 202.985 214.798 202.926C214.771 202.868 214.722 202.822 214.662 202.798C211.414 201.637 208.305 203.275 208.191 203.346C208.163 203.363 208.139 203.384 208.12 203.41C208.101 203.436 208.087 203.465 208.08 203.497C208.072 203.528 208.07 203.56 208.075 203.592C208.08 203.624 208.091 203.654 208.108 203.682C208.124 203.709 208.146 203.733 208.172 203.752C208.198 203.771 208.227 203.785 208.258 203.793C208.289 203.801 208.322 203.802 208.353 203.797C208.385 203.793 208.416 203.782 208.443 203.765C208.467 203.765 211.472 202.179 214.495 203.26C214.53 203.272 214.568 203.277 214.605 203.275Z" fill="#F0F0F0"/>
<path d="M214.443 201.07C214.501 201.069 214.557 201.047 214.6 201.008C214.643 200.969 214.671 200.916 214.678 200.859C214.686 200.801 214.673 200.743 214.641 200.694C214.609 200.645 214.561 200.61 214.505 200.594C211.462 199.456 208.115 201.137 207.986 201.213C207.931 201.246 207.89 201.299 207.873 201.361C207.856 201.423 207.865 201.49 207.896 201.546C207.912 201.574 207.934 201.598 207.959 201.617C207.985 201.636 208.014 201.65 208.045 201.658C208.076 201.666 208.108 201.668 208.14 201.663C208.171 201.659 208.202 201.648 208.229 201.632C208.262 201.632 211.505 199.994 214.333 201.051C214.368 201.067 214.405 201.073 214.443 201.07Z" fill="#EBEBEB"/>
<path d="M206.182 101.35C209.143 106.75 211.343 111.164 211.638 127.215C211.934 143.266 211.891 147.765 211.953 149.698C212.015 151.632 213.143 155.098 214.134 164.63C215.124 174.163 213.953 185.529 213.953 185.529C213.953 185.529 213.272 187.062 209.624 187.39C206.258 187.69 204.596 186.438 204.596 186.438C204.596 186.438 199.982 167.868 198.706 162.126C197.43 156.383 193.726 137.499 193.726 137.499L191.526 152.812C191.526 152.812 192.55 158.079 191.526 166.44C190.502 174.801 188.669 183.367 188.669 183.367C187.009 183.944 185.261 184.229 183.503 184.21C181.912 184.236 180.344 183.826 178.97 183.024C178.97 183.024 176.113 158.145 176.113 148.67C176.113 139.195 176.913 115.497 179.894 101.464L206.182 101.35Z" fill="#3683BD"/>
<path opacity="0.6" d="M206.182 101.35C209.143 106.75 211.343 111.164 211.638 127.215C211.934 143.266 211.891 147.765 211.953 149.698C212.015 151.632 213.143 155.098 214.134 164.63C215.124 174.163 213.953 185.529 213.953 185.529C213.953 185.529 213.272 187.062 209.624 187.39C206.258 187.69 204.596 186.438 204.596 186.438C204.596 186.438 199.982 167.868 198.706 162.126C197.43 156.383 193.726 137.499 193.726 137.499L191.526 152.812C191.526 152.812 192.55 158.079 191.526 166.44C190.502 174.801 188.669 183.367 188.669 183.367C187.009 183.944 185.261 184.229 183.503 184.21C181.912 184.236 180.344 183.826 178.97 183.024C178.97 183.024 176.113 158.145 176.113 148.67C176.113 139.195 176.913 115.497 179.894 101.464L206.182 101.35Z" fill="white"/>
<path d="M208.21 151.408C208.21 151.408 206.362 149.479 202.806 149.908C199.249 150.336 197.801 152.427 197.801 152.427C201.61 150.708 208.21 151.408 208.21 151.408ZM199.839 153.112C201.934 153.531 204.025 153.717 208.61 152.808C206.434 152.274 199.839 153.108 199.839 153.108V153.112Z" fill="#B16668"/>
<path d="M185.398 151.436C184.089 150.684 179.208 149.694 176.151 150.103L176.184 151.132C179.258 150.917 182.345 151.019 185.398 151.436ZM176.237 152.465L176.289 153.417C176.289 153.417 181.174 153.169 183.222 152.617C179.732 152.36 176.237 152.465 176.237 152.465Z" fill="#B16668"/>
<path opacity="0.3" d="M211.115 157.121C210.996 156.569 210.881 156.045 210.777 155.55C209.848 151.112 209.858 145.313 209.877 137.971C209.877 135.752 209.877 133.457 209.877 131.019C209.791 121.458 209.058 110.749 204.22 103.845L203.83 104.121C207.082 108.764 208.448 115.187 209.02 121.815C204.22 121.177 203.168 116.435 201.734 109.911C201.539 109.021 201.339 108.097 201.12 107.15L200.644 107.259C200.863 108.211 201.068 109.126 201.263 110.016C202.692 116.53 203.825 121.687 209.048 122.31C209.281 125.229 209.367 128.181 209.391 131.029C209.391 133.466 209.391 135.757 209.391 137.976C209.391 145.346 209.362 151.17 210.3 155.65C210.405 156.15 210.519 156.674 210.638 157.226C211.881 162.94 213.743 171.563 212.814 186.547C212.989 186.454 213.156 186.348 213.314 186.228C214.205 171.377 212.372 162.835 211.115 157.121ZM180.86 115.125C181.531 118.282 186.574 120.939 188.85 121.487L189.431 124.696C189.317 126.4 189.193 128.191 189.069 130.043C188.374 140.237 187.64 150.779 188.174 153.16C189.545 159.421 189.126 163.392 188.402 170.601C188.326 171.335 188.25 172.106 188.169 172.915C187.75 177.101 187.288 181.205 186.983 183.838L187.46 183.724C187.764 181.086 188.217 177.058 188.621 172.963C188.702 172.153 188.783 171.382 188.859 170.649C189.602 163.392 190.007 159.393 188.617 153.031C188.112 150.722 188.864 139.742 189.526 130.052C189.602 128.876 189.683 127.724 189.759 126.605L191.797 137.904L191.507 152.779L193.707 137.466L190.702 119.239C190.702 119.239 184.384 118.811 180.86 115.125Z" fill="#3683BD"/>
<path d="M203.644 58.7492C203.644 58.7492 204.867 66.1581 205.629 67.8865C206.391 69.6149 207.772 71.0291 206.358 71.0433C205.965 71.054 205.581 70.9326 205.266 70.6986C204.951 70.4646 204.723 70.1316 204.62 69.753L204.924 75.6429L186.659 76.6905V58.7111L203.644 58.7492Z" fill="#263238"/>
<path d="M185.455 73.8336C181.646 74.7478 179.741 75.262 177.36 78.8189C174.946 82.4566 172.504 86.5087 168.871 92.0796L159.348 87.6371L155.539 94.2651C155.539 94.2651 165.281 99.8408 169.556 101.807C172.266 103.06 174.261 102.164 176.351 99.9789C178.679 97.5506 184.307 89.2846 184.307 89.2846L185.455 73.8336Z" fill="#37474F"/>
<path d="M168.89 92.0796C170.499 92.6271 172.223 94.1556 172.504 95.0698C171.58 92.2605 170.123 91.7368 169.352 91.3749L168.89 92.0796Z" fill="#9A4A4D"/>
<path d="M210.819 113.344C210.191 108.654 207.662 99.7075 207.519 98.6266C206.672 92.3415 207.791 89.1513 208.2 86.3991C209.095 80.4092 207.381 75.3906 205.986 74.2097C205.986 74.2097 204.401 73.8193 203.072 73.5812C202.02 73.3908 201.206 73.267 199.815 72.9289C196.358 72.0909 192.578 72.9289 191.245 73.0479C190.341 73.0257 189.436 73.0911 188.545 73.2432C187.593 73.4574 185.445 73.8336 185.44 73.8336C183.775 75.3498 182.381 77.1407 181.322 79.1283C179.803 81.8424 178.755 83.9517 178.522 89.3227C178.132 98.2552 178.155 109.54 177.879 114.606C182.822 117.649 198.406 119.615 205.891 116.125L205.853 108.683L207.61 115.501C208.812 115.002 209.903 114.269 210.819 113.344Z" fill="#455A64"/>
<path d="M189.417 85.6992C189.212 87.0658 189.079 88.4371 188.94 89.8131C188.693 92.5653 188.564 95.3222 188.464 98.0791C188.364 100.836 188.331 103.598 188.355 106.355C188.355 107.735 188.383 109.111 188.421 110.492C188.46 111.873 188.517 113.249 188.593 114.625L188.721 106.359C188.774 103.602 188.831 100.845 188.94 98.0934C189.05 95.3412 189.15 92.5891 189.321 89.8417C189.407 88.4704 189.507 87.0943 189.659 85.7278C189.763 84.3548 189.989 82.994 190.336 81.6615C189.896 82.9735 189.588 84.3261 189.417 85.6992Z" fill="#37474F"/>
<path d="M147.615 79.9855L148.353 79.295C148.466 79.215 148.595 79.1626 148.732 79.1419C148.868 79.1212 149.008 79.1329 149.139 79.176L171.951 84.4565C172.375 84.578 172.767 84.7899 173.101 85.0776C173.434 85.3653 173.702 85.722 173.884 86.123L180.55 103.117C180.63 103.254 180.665 103.413 180.652 103.572C180.638 103.73 180.576 103.88 180.474 104.002L179.712 104.717C179.599 104.799 179.468 104.853 179.33 104.875C179.192 104.896 179.05 104.884 178.917 104.84L156.105 99.5599C155.681 99.4384 155.289 99.2265 154.956 98.9388C154.622 98.6511 154.354 98.2944 154.172 97.8934L147.506 80.8997C147.339 80.4616 147.396 80.1378 147.615 79.9855Z" fill="#3683BD"/>
<path opacity="0.35" d="M147.615 79.9855L148.353 79.295C148.466 79.215 148.595 79.1626 148.732 79.1419C148.868 79.1212 149.008 79.1329 149.139 79.176L171.951 84.4565C172.375 84.578 172.767 84.7899 173.101 85.0776C173.434 85.3653 173.702 85.722 173.884 86.123L180.55 103.117C180.63 103.254 180.665 103.413 180.652 103.572C180.638 103.73 180.576 103.88 180.474 104.002L179.712 104.717C179.599 104.799 179.468 104.853 179.33 104.875C179.192 104.896 179.05 104.884 178.917 104.84L156.105 99.5599C155.681 99.4384 155.289 99.2265 154.956 98.9388C154.622 98.6511 154.354 98.2944 154.172 97.8934L147.506 80.8997C147.339 80.4616 147.396 80.1378 147.615 79.9855Z" fill="white"/>
<path d="M172.118 85.5801C172.561 85.8902 172.912 86.3148 173.132 86.8086L179.798 103.798C179.871 103.932 179.905 104.085 179.897 104.238C179.889 104.391 179.838 104.538 179.751 104.664L180.47 103.998C180.57 103.876 180.632 103.726 180.645 103.569C180.659 103.412 180.624 103.254 180.546 103.117L173.88 86.1229C173.668 85.6589 173.34 85.2571 172.927 84.9564L172.118 85.5801Z" fill="#3683BD"/>
<path d="M179.789 103.793L173.122 86.8039C172.938 86.4027 172.67 86.0459 172.335 85.7575C172.001 85.4691 171.608 85.256 171.185 85.1326L148.372 79.8569C147.596 79.6759 147.201 80.133 147.491 80.8758L154.157 97.8696C154.34 98.2706 154.607 98.6273 154.941 98.915C155.275 99.2027 155.667 99.4146 156.091 99.5361L178.903 104.817C179.689 104.998 180.084 104.54 179.789 103.793Z" fill="#3683BD"/>
<path opacity="0.15" d="M179.789 103.793L173.122 86.8039C172.938 86.4027 172.67 86.0459 172.335 85.7575C172.001 85.4691 171.608 85.256 171.185 85.1326L148.372 79.8569C147.596 79.6759 147.201 80.133 147.491 80.8758L154.157 97.8696C154.34 98.2706 154.607 98.6273 154.941 98.915C155.275 99.2027 155.667 99.4146 156.091 99.5361L178.903 104.817C179.689 104.998 180.084 104.54 179.789 103.793Z" fill="black"/>
<path d="M173.266 90.4226L172.018 87.2419C171.983 87.1672 171.933 87.1006 171.87 87.0464C171.808 86.9923 171.735 86.9518 171.656 86.9277L170.085 86.5705C169.942 86.5372 169.866 86.6229 169.918 86.761C170.166 87.3848 170.923 89.3132 171.166 89.9417C171.201 90.0157 171.251 90.0815 171.314 90.1349C171.376 90.1882 171.449 90.2278 171.528 90.2512L173.099 90.6131C173.246 90.6464 173.327 90.5607 173.266 90.4226Z" fill="#3683BD"/>
<path d="M171.971 88.0133C171.882 87.8266 171.754 87.6614 171.595 87.5291C171.437 87.3967 171.251 87.3004 171.052 87.2467C170.675 87.161 170.475 87.3657 170.609 87.7228C170.698 87.91 170.827 88.0755 170.986 88.2079C171.146 88.3402 171.332 88.4363 171.532 88.4894C171.899 88.5561 172.104 88.3513 171.971 88.0133Z" fill="#263238"/>
<path d="M172.58 89.6227C172.492 89.4352 172.364 89.2691 172.205 89.1359C172.046 89.0027 171.861 88.9056 171.661 88.8513C171.285 88.7656 171.085 88.9704 171.218 89.3275C171.307 89.5146 171.436 89.6802 171.595 89.8125C171.755 89.9449 171.941 90.041 172.142 90.0941C172.518 90.1655 172.713 89.9846 172.58 89.6227Z" fill="#263238"/>
<path d="M149.93 91.1511C149.063 90.1988 149.115 90.0322 149.453 89.4513C149.714 88.99 150.08 88.5973 150.522 88.3059C150.964 88.0144 151.47 87.8325 151.996 87.7752C152.925 87.699 153.858 87.58 154.377 87.7752C154.896 87.9704 154.582 89.018 153.425 89.4179C151.572 90.0512 151.644 90.5655 151.644 90.5655C152.432 90.2914 153.235 90.0593 154.048 89.8703C154.743 89.7512 156.062 89.9465 156.877 89.9846C157.691 90.0226 157.967 91.0416 156.648 91.5463L158.138 91.6177C159.186 91.6701 159.595 92.1796 158.857 92.9033C158.623 93.1577 158.309 93.3255 157.967 93.3795C157.967 93.3795 159.057 93.2557 159.124 93.6176C159.3 94.6556 158.648 95.0032 156.515 95.8888C154.472 96.7316 154.163 97.9124 154.667 98.6505C154.667 98.6505 153.763 98.2505 152.948 97.8077C152.353 97.4887 151.834 97.1077 151.996 96.2173C151.996 96.2173 150.791 96.3697 150.639 95.6364C150.56 95.0901 150.599 94.5332 150.753 94.0033C150.524 93.9047 150.327 93.7433 150.186 93.5378C150.044 93.3322 149.964 93.0908 149.953 92.8414C149.9 92.369 150.004 91.8921 150.249 91.4844L149.93 91.1511Z" fill="#B16668"/>
<path d="M156.629 91.5463C156.179 91.501 155.726 91.501 155.277 91.5463C154.836 91.6631 154.416 91.8495 154.034 92.0986C153.262 92.5334 152.529 93.0336 151.844 93.5937C152.669 93.2766 153.465 92.8896 154.224 92.4367C154.581 92.2043 154.959 92.005 155.353 91.8415C155.743 91.732 156.186 91.6748 156.629 91.5463Z" fill="#9A4A4D"/>
<path d="M157.948 93.3557C157.469 93.2751 156.979 93.3144 156.519 93.47C156.059 93.6205 155.614 93.815 155.191 94.0509C154.342 94.5045 153.544 95.0472 152.81 95.6698C153.68 95.2901 154.531 94.8658 155.357 94.3985C156.148 93.8924 157.027 93.5387 157.948 93.3557Z" fill="#9A4A4D"/>
<path d="M188.916 87.0039C187.193 85.7183 186.321 85.2184 185.517 84.9898C184.712 84.7612 181.893 83.5899 180.812 83.3185C180.127 83.1519 179.86 84.2422 180.722 84.9898C181.393 85.5707 183.141 86.3278 183.912 86.7468C184.683 87.1658 186.183 88.999 186.183 88.999L188.916 87.0039Z" fill="#9A4A4D"/>
<path d="M213.152 78.6141C211.443 74.9716 210.81 75.1525 206.672 74.6716C203.71 78.157 205.11 86.4277 205.11 86.4277L207.196 96.6507C207.196 96.6507 196.887 93.8795 195.721 93.1319C194.554 92.3844 191.435 89.0228 190.373 88.0133C188.945 86.642 188.236 86.8277 187.517 86.9372C185.136 87.2943 184.617 87.4943 184.117 87.8133C183.966 87.9146 183.843 88.0524 183.76 88.2139C183.677 88.3754 183.636 88.5554 183.641 88.7371C183.012 88.818 182.065 88.799 181.946 89.837C181.893 90.1098 181.88 90.3889 181.908 90.6655C181.747 90.6933 181.602 90.7777 181.498 90.9035C180.97 91.513 181.869 93.6176 182.45 94.1318C182.85 94.4937 183.426 94.5366 184.179 94.4366C184.817 94.3509 184.517 93.6985 184.517 93.6985L185.412 93.7509C187.35 95.1222 187.445 97.8458 190.002 98.4457C191.06 98.5542 192.105 98.7582 193.126 99.0552C198.63 100.903 207.658 106.507 212.562 106.931C217.352 107.34 217.214 104.788 217.285 101.86C217.347 99.2457 214.857 82.2472 213.152 78.6141Z" fill="#B16668"/>
<path d="M206.991 95.6555L207.196 96.6554C209.377 97.2173 211.734 98.7886 212.253 99.9885C211.848 98.0791 210.829 96.6792 206.991 95.6555Z" fill="#9A4A4D"/>
<path d="M205.986 74.2097C209 74.5764 210.972 74.5383 212.253 76.3857C213.533 78.2332 213.824 78.7665 214.757 83.3042C215.69 87.8419 217.371 97.7505 217.138 99.4932C215.19 97.5458 207.215 96.6363 207.215 96.6363L207.01 96.584C207.01 96.584 205.891 91.2321 205.377 89.4417C204.863 87.6514 203.415 78.657 205.986 74.2097Z" fill="#37474F"/>
<path d="M206.61 94.808C206.315 94.9556 206.225 95.1841 206.339 95.6555C206.406 95.9171 206.443 96.1855 206.448 96.4554C206.448 96.4554 206.286 96.4316 207.196 96.6554C208.105 96.8792 212.738 98.9743 214.529 101.155C215.569 102.379 216.36 103.794 216.857 105.321C216.711 105.691 216.476 106.018 216.171 106.274C216.647 106.274 217.186 105.902 217.652 104.683C217.862 104.131 217.4 103.512 217.79 102.25C218.134 101.258 218.11 100.175 217.724 99.1981C217.39 98.2696 218.676 97.403 216.924 96.3412C215.171 95.2794 210.367 93.8319 206.61 94.808Z" fill="#455A64"/>
<path d="M183.641 88.7418L186.469 88.1752L183.702 88.3514C183.659 88.4769 183.638 88.6091 183.641 88.7418Z" fill="#9A4A4D"/>
<path d="M181.898 90.6702L185.146 90.2512L181.893 90.2941C181.881 90.4192 181.882 90.5454 181.898 90.6702Z" fill="#9A4A4D"/>
<path d="M182.336 92.1035C182.443 92.2697 182.595 92.4019 182.774 92.4844C182.949 92.5718 183.135 92.6358 183.327 92.6748L183.284 92.6415C183.374 92.8129 183.465 92.9796 183.56 93.1462L183.627 93.0558C183.536 93.0399 183.443 93.0432 183.353 93.0653C183.264 93.0874 183.18 93.128 183.108 93.1843C182.974 93.2943 182.876 93.4419 182.827 93.6081C182.906 93.4661 183.019 93.3452 183.155 93.2557C183.289 93.1786 183.445 93.15 183.598 93.1748L183.722 93.1986L183.665 93.0891C183.579 92.9177 183.488 92.751 183.393 92.5844V92.5558H183.365C183.18 92.5234 182.998 92.474 182.822 92.4082C182.638 92.347 182.471 92.2425 182.336 92.1035Z" fill="#9A4A4D"/>
<path d="M183.198 92.5225C183.588 92.5725 183.981 92.5996 184.374 92.6034C184.446 92.8461 184.586 93.0627 184.779 93.2272C184.977 93.4164 185.187 93.593 185.407 93.7557L184.512 93.7033C184.39 93.5446 184.235 93.4134 184.059 93.3182C183.883 93.2231 183.688 93.1661 183.488 93.151L183.198 92.5225Z" fill="#9A4A4D"/>
<path d="M195.23 46.4408C194.683 45.0552 195.763 43.96 196.682 44.2791C196.557 43.95 196.554 43.5869 196.674 43.2558C196.794 42.9247 197.028 42.6474 197.335 42.4745C198.287 41.9221 199.382 42.6602 199.382 42.6602C199.449 42.3059 199.621 41.9801 199.876 41.7252C200.13 41.4703 200.456 41.2983 200.811 41.2317C202.006 41.046 202.615 41.4079 203.134 42.1554C203.134 42.1554 205.039 41.6793 207.7 43.7029C209.253 44.8742 209.834 45.7789 209.581 46.9883C209.41 47.8216 208.358 47.8406 208.358 47.8406C208.358 47.8406 209.676 48.5834 209.224 49.9024C208.772 51.2213 207.677 50.6404 207.677 50.6404C207.909 50.8725 208.055 51.1779 208.089 51.5049C208.123 51.8319 208.043 52.1606 207.862 52.4355C207.684 52.6771 207.439 52.8619 207.158 52.9675C206.876 53.0731 206.57 53.0951 206.277 53.0307C206.496 53.0592 206.52 55.2448 204.472 54.621C202.634 54.5782 195.23 46.4408 195.23 46.4408Z" fill="#263238"/>
<path d="M205.096 54.6781C205.202 54.5198 205.253 54.3309 205.241 54.1407C205.229 53.9504 205.155 53.7695 205.029 53.6258C205.271 53.2658 205.361 52.8244 205.278 52.3986C205.195 51.9728 204.946 51.5974 204.586 51.3546C204.586 51.3546 204.586 48.9739 202.596 49.4976L203.453 53.1306L205.096 54.6781Z" fill="black"/>
<path d="M203.13 42.1697C204.174 41.4106 205.412 40.9632 206.701 40.8794C208.762 40.7841 209.11 41.4841 208.786 41.8793C208.463 42.2745 206.848 42.1269 205.496 43.3934C204.144 44.66 203.13 42.1697 203.13 42.1697Z" fill="#263238"/>
<path d="M202.849 42.4649C202.759 41.5203 203.002 40.5741 203.534 39.789C204.43 38.5034 205.239 39.2461 204.963 40.1556C204.802 40.8464 204.746 41.5574 204.796 42.2649L202.849 42.4649Z" fill="#263238"/>
<path d="M208.353 47.8549C208.353 47.8549 206.124 44.9219 203.591 44.2886C204.82 44.4456 205.977 44.9531 206.924 45.7504C208.262 47.0026 208.353 47.8549 208.353 47.8549Z" fill="black"/>
<path d="M199.663 42.0078C199.535 42.2073 199.443 42.4283 199.392 42.6601C199.673 43.9124 201.544 45.9503 202.858 46.655C202.849 46.655 200.097 44.16 199.663 42.0078Z" fill="black"/>
<path d="M199.625 60.6443C199.625 60.6443 202.677 61.2204 203.663 60.4919C205.286 59.3015 205.224 58.2969 205.182 57.7874C205.18 57.5708 205.128 57.3576 205.032 57.1637C204.935 56.9699 204.796 56.8005 204.625 56.6684C204.88 56.4744 205.076 56.2129 205.19 55.9133C205.305 55.6138 205.333 55.2882 205.272 54.9733C205.053 53.883 204.32 53.9068 204.32 53.9068C204.32 53.9068 205.096 52.4783 203.81 52.0022C203.81 52.0022 204.377 50.9832 203.839 50.1881C203.695 49.9603 203.504 49.7657 203.279 49.6171C203.054 49.4685 202.8 49.3694 202.534 49.3262C202.582 49.0475 202.564 48.7615 202.481 48.4911C202.398 48.2207 202.254 47.9735 202.058 47.7692C201.808 47.5139 201.475 47.356 201.119 47.3237C200.763 47.2914 200.407 47.3869 200.115 47.593C200.222 47.2918 200.225 46.9634 200.123 46.6604C200.021 46.3574 199.821 46.0973 199.554 45.9218C199.286 45.7131 198.964 45.5863 198.626 45.5567C198.288 45.5271 197.949 45.596 197.649 45.7551C197.555 45.4146 197.366 45.108 197.104 44.8718C196.841 44.6355 196.517 44.4793 196.168 44.4219C195.809 44.377 195.445 44.4558 195.137 44.6454C194.829 44.8349 194.595 45.1239 194.473 45.4647C194.255 45.1031 193.936 44.8131 193.555 44.6304C193.175 44.4477 192.749 44.3802 192.33 44.4362C191.962 44.4605 191.606 44.5816 191.299 44.7872C190.993 44.9929 190.745 45.2758 190.583 45.6075C190.28 45.392 189.93 45.2493 189.563 45.1907C189.195 45.132 188.819 45.159 188.464 45.2694C187.164 45.7456 187.093 46.6979 187.093 46.6979C186.802 46.581 186.486 46.5458 186.177 46.5962C185.868 46.6466 185.579 46.7805 185.34 46.9836C185.092 47.1477 184.899 47.3823 184.785 47.6572C184.671 47.9322 184.643 48.2348 184.702 48.5263C184.465 48.577 184.244 48.6845 184.057 48.8396C183.871 48.9947 183.724 49.1927 183.631 49.4167C183.522 49.667 183.474 49.9396 183.492 50.212C183.509 50.4845 183.591 50.7488 183.731 50.9832C183.731 50.9832 182.407 52.2831 183.431 53.6735C184.141 54.6258 186.426 59.6015 191.116 61.4775C192.5 62.0182 193.992 62.2245 195.47 62.0797C196.949 61.9349 198.372 61.4431 199.625 60.6443Z" fill="#263238"/>
<path d="M184.05 49.8024C182.703 49.7166 181.922 51.7069 181.593 53.9972C181.265 56.2875 179.641 57.854 180.379 58.4683C181.117 59.0825 182.112 57.954 182.76 56.8065C183.407 55.659 183.907 52.4212 184.664 51.9355C185.421 51.4498 184.05 49.8024 184.05 49.8024Z" fill="#263238"/>
<path d="M184.355 52.3164C183.663 53.6328 183.36 55.1195 183.484 56.6018C183.579 57.5867 183.555 58.5795 183.412 59.5586C182.712 63.6107 183.841 67.7674 186.569 69.0816C187.936 69.7225 189.444 70.0012 190.95 69.8911L190.983 71.5195C190.996 71.8382 190.901 72.1521 190.715 72.4109C190.529 72.6698 190.261 72.8589 189.955 72.9479L188.388 73.3289C188.151 76.2443 188.826 79.1615 190.321 81.6757C194.388 80.8568 201.706 75.5096 203.292 73.6764C202.861 73.7213 202.425 73.6737 202.014 73.5368C201.603 73.3999 201.226 73.1768 200.909 72.8824C200.591 72.5881 200.34 72.2293 200.172 71.83C200.004 71.4307 199.923 71.0002 199.935 70.5672L200.078 65.3724C200.078 65.3724 201.182 66.558 203.234 64.9391C204.934 63.6059 205.615 61.2394 204.406 59.8872C204.085 59.5633 203.694 59.3187 203.262 59.1727C202.831 59.0267 202.371 58.9835 201.92 59.0463C201.469 59.1092 201.038 59.2765 200.663 59.5349C200.288 59.7933 199.978 60.1356 199.758 60.5347C199.758 60.5347 196.992 60.749 197.563 58.4921L197.535 58.3016V58.1826C196.506 57.8255 196.383 55.9685 197.216 55.9685C197.183 55.7828 197.192 55.8256 197.159 55.6399C196.04 55.44 195.678 53.2592 196.683 53.3735C196.331 52.3844 195.701 51.5179 194.868 50.8784L194.545 51.007C194.316 52.2545 192.483 52.4021 192.083 51.8974C191.845 51.9593 191.431 51.126 191.197 51.1832C190.812 52.3212 188.736 51.7831 188.202 51.0927C187.821 51.626 186.46 52.2069 184.355 52.3164Z" fill="#B16668"/>
<path d="M190.945 69.8815C195.521 69.3006 197.135 66.739 197.878 65.0867C197.878 65.0867 197.787 67.6627 196.068 69.1149C194.65 70.3712 192.858 71.1258 190.969 71.2624L190.945 69.8815Z" fill="#9A4A4D"/>
<path d="M192.735 63.9154L189.95 64.8391C190.001 65.0265 190.089 65.2016 190.21 65.3535C190.331 65.5055 190.482 65.6312 190.653 65.723C190.824 65.8149 191.012 65.8708 191.205 65.8875C191.399 65.9041 191.594 65.8812 191.778 65.82C192.154 65.6887 192.463 65.4166 192.642 65.0612C192.82 64.7059 192.854 64.295 192.735 63.9154Z" fill="#9A4A4D"/>
<path d="M192.564 64.563C192.191 64.5589 191.828 64.6837 191.537 64.9162C191.245 65.1486 191.043 65.4746 190.964 65.839C191.23 65.9197 191.513 65.9197 191.778 65.839C192.044 65.7474 192.279 65.5834 192.456 65.3655C192.634 65.1476 192.747 64.8845 192.783 64.6058C192.711 64.5865 192.638 64.5722 192.564 64.563Z" fill="#F28F8F"/>
<path d="M184.593 56.7446L186.65 55.7923C186.596 55.6554 186.514 55.531 186.41 55.4267C186.306 55.3224 186.182 55.2403 186.045 55.1855C185.908 55.1307 185.762 55.1044 185.614 55.108C185.467 55.1116 185.322 55.1452 185.188 55.2067C184.909 55.3356 184.69 55.5682 184.579 55.8552C184.468 56.1422 184.473 56.4611 184.593 56.7446Z" fill="#263238"/>
<path d="M194.507 57.016L192.492 55.9399C192.557 55.8068 192.649 55.6882 192.761 55.5915C192.873 55.4948 193.004 55.4219 193.145 55.3774C193.286 55.3328 193.435 55.3175 193.582 55.3323C193.73 55.3472 193.872 55.3919 194.002 55.4638C194.265 55.6119 194.464 55.8538 194.557 56.1414C194.651 56.429 194.633 56.7412 194.507 57.016Z" fill="#263238"/>
<path d="M189.64 57.3255L189.397 63.2631L186.336 62.0394L189.64 57.3255Z" fill="#9A4A4D"/>
<path d="M187.045 58.4016C187.069 58.6529 186.992 58.9034 186.831 59.098C186.671 59.2926 186.439 59.4155 186.188 59.4396C186.067 59.4548 185.943 59.4454 185.826 59.4118C185.708 59.3783 185.599 59.3214 185.503 59.2445C185.408 59.1676 185.33 59.0722 185.272 58.9642C185.215 58.8562 185.18 58.7378 185.169 58.6159C185.147 58.3654 185.224 58.1161 185.385 57.9226C185.545 57.729 185.776 57.6068 186.026 57.5826C186.147 57.5681 186.27 57.5779 186.387 57.6114C186.504 57.6449 186.613 57.7015 186.708 57.7777C186.803 57.854 186.882 57.9485 186.94 58.0557C186.997 58.1628 187.033 58.2804 187.045 58.4016Z" fill="#263238"/>
<path d="M193.859 58.4921C193.882 58.7418 193.805 58.9904 193.645 59.1839C193.486 59.3773 193.256 59.5 193.007 59.5253C192.886 59.5412 192.762 59.5324 192.645 59.4994C192.527 59.4665 192.417 59.41 192.322 59.3335C192.227 59.2569 192.148 59.1619 192.091 59.0541C192.033 58.9464 191.998 58.8281 191.988 58.7064C191.965 58.4559 192.043 58.2066 192.203 58.013C192.364 57.8194 192.594 57.6972 192.845 57.6731C192.966 57.6572 193.088 57.6661 193.206 57.6991C193.323 57.7321 193.433 57.7886 193.527 57.8652C193.622 57.9418 193.701 58.0369 193.758 58.1446C193.815 58.2524 193.849 58.3706 193.859 58.4921Z" fill="#263238"/>
<path d="M194.959 51.1118C194.583 49.2072 193.892 47.5121 190.593 45.5837C190.593 45.5837 194.454 47.5787 194.535 51.5165L194.959 51.1118Z" fill="#B16668"/>
<path d="M187.103 46.6884C188.388 47.0239 189.549 47.723 190.446 48.7018C191.344 49.6807 191.941 50.8977 192.164 52.2069L191.164 51.5927C191.226 50.7166 190.512 48.0073 187.103 46.6884Z" fill="#B16668"/>
<path d="M184.712 48.5168C185.524 48.463 186.328 48.7083 186.972 49.2066C187.616 49.7048 188.055 50.4215 188.207 51.2213L187.821 51.5165C187.821 51.5165 187.669 49.3643 184.712 48.5168Z" fill="#B16668"/>
<path d="M196.183 52.9497C196.183 52.9497 200.163 53.7258 203.206 52.2069C203.206 52.2069 201.349 53.7306 196.245 53.3116L196.183 52.9497Z" fill="#B16668"/>
<path d="M196.554 55.5495C196.554 55.5495 200.335 56.1161 203.601 54.3115C203.601 54.3115 201.863 55.9732 196.744 55.9352L196.554 55.5495Z" fill="#B16668"/>
<path d="M196.725 58.1064C196.725 58.1064 200.701 58.6111 203.796 56.8303C203.796 56.8303 202.058 58.4921 196.935 58.454L196.725 58.1064Z" fill="#B16668"/>
<path d="M190.321 81.6424C190.321 81.6424 194.787 78.8189 196.511 77.3285C199.73 74.524 200.096 72.3813 200.096 72.3813C200.096 72.3813 200.058 71.81 199.968 71.0576C200.406 71.1148 200.482 71.4576 200.977 72.0766C201.638 72.8075 202.486 73.3442 203.429 73.6288C203.429 73.6288 203.296 75.362 200.877 78.6236C198.939 81.2329 194.297 83.8851 193.706 84.0327C193.116 84.1803 190.321 81.6424 190.321 81.6424Z" fill="#37474F"/>
<path d="M190.321 81.6424C188.688 78.6093 189.498 75.6048 189.793 74.6382C190.088 73.6717 190.321 72.8194 190.321 72.8194C190.534 72.6751 190.706 72.4792 190.821 72.2502C190.937 72.0211 190.993 71.7664 190.983 71.51V71.1147C190.564 71.2864 190.193 71.5577 189.902 71.9052C189.131 72.7419 188.12 73.3191 187.007 73.5574C185.579 76.4762 185.484 80.152 186.745 82.6042C186.936 82.9661 190.321 81.6424 190.321 81.6424Z" fill="#37474F"/>
<path d="M202.077 65.5867C202.201 67.377 202.258 73.0813 201.42 77.1381C200.634 80.9473 198.087 87.6133 197.754 89.3656C197.42 91.1178 195.897 90.9511 196.092 88.8894C196.287 86.8277 197.716 82.4281 198.72 79.2569C199.291 77.5593 199.667 75.8021 199.839 74.0193L200.077 65.3534C200.369 65.5455 200.702 65.6666 201.05 65.7071C201.397 65.7476 201.749 65.7064 202.077 65.5867Z" fill="#263238"/>
<path d="M197.054 84.6183C197.054 84.6183 198.368 83.947 199.039 85.1992L199.563 83.6089C199.563 83.6089 199.273 82.3662 197.611 82.8423L197.054 84.6183Z" fill="#3683BD"/>
<path d="M222.218 34.237C221.771 37.8938 220.019 39.9794 217.79 41.0459L215.657 39.8127C216.193 39.1154 216.553 38.2985 216.705 37.432C216.865 36.611 216.883 35.7686 216.757 34.9417L220.09 33.0371C219.947 34.1608 222.218 34.237 222.218 34.237Z" fill="#3683BD"/>
<path opacity="0.2" d="M222.218 34.237C221.771 37.8938 220.019 39.9794 217.79 41.0459L215.657 39.8127C216.193 39.1154 216.553 38.2985 216.705 37.432C216.865 36.611 216.883 35.7686 216.757 34.9417L220.09 33.0371C219.947 34.1608 222.218 34.237 222.218 34.237Z" fill="black"/>
<path d="M227.284 11.4438V30.1327C227.266 30.4798 227.165 30.8175 226.991 31.1186C226.818 31.4197 226.576 31.6757 226.285 31.8658L222.218 34.2466C221.771 37.9034 220.018 39.9889 217.79 41.0555C219.038 39.5128 219.076 37.2749 218.89 36.1797L216.704 37.4177L213.8 39.089C213.49 39.2463 213.147 39.3282 212.8 39.3282C212.453 39.3282 212.11 39.2463 211.8 39.089L210.981 38.6129C210.693 38.4219 210.453 38.1661 210.281 37.866C210.109 37.5659 210.01 37.2298 209.991 36.8844V18.1956C210.01 17.8485 210.11 17.5107 210.284 17.2096C210.457 16.9085 210.7 16.6525 210.991 16.4624L223.475 9.24402C223.785 9.08675 224.128 9.00479 224.475 9.00479C224.823 9.00479 225.165 9.08675 225.475 9.24402L226.289 9.72016C226.578 9.91014 226.818 10.1649 226.991 10.4642C227.164 10.7634 227.264 11.0989 227.284 11.4438Z" fill="#3683BD"/>
<path opacity="0.2" d="M209.991 36.8844C210.01 37.2315 210.11 37.5693 210.284 37.8704C210.457 38.1715 210.7 38.4275 210.991 38.6176L211.805 39.0937C212.086 39.2362 212.395 39.3171 212.71 39.331C213.026 39.345 213.34 39.2917 213.633 39.1747C213.157 39.3508 212.805 39.089 212.805 38.5176V19.8192C212.817 19.4714 212.917 19.1323 213.095 18.8336L210.281 17.2099C210.102 17.5084 210.002 17.8476 209.991 18.1956V36.8844Z" fill="black"/>
<path opacity="0.3" d="M227.251 11.1628C227.137 10.7343 226.751 10.601 226.299 10.8676L213.8 18.086C213.502 18.2677 213.259 18.5258 213.095 18.8336L210.281 17.2099C210.446 16.9031 210.689 16.6452 210.986 16.4624L223.471 9.23919C223.78 9.08193 224.123 8.99997 224.47 8.99997C224.818 8.99997 225.161 9.08193 225.47 9.23919L226.289 9.71534C226.54 9.87823 226.755 10.0907 226.92 10.3396C227.085 10.5885 227.198 10.8687 227.251 11.1628Z" fill="white"/>
<path d="M224.194 20.5811C224.194 17.6813 222.29 16.4338 219.909 17.7908C217.528 19.1478 215.624 22.6094 215.624 25.5092V26.1806C215.624 28.4137 218.157 31.0039 219.319 32.08C219.385 32.1411 219.464 32.1859 219.551 32.2107C219.637 32.2356 219.728 32.2399 219.817 32.2232C219.905 32.2065 219.988 32.1694 220.06 32.1148C220.131 32.0602 220.189 31.9896 220.228 31.9086C221.233 29.8517 224.161 23.6522 224.161 21.2524L224.194 20.5811ZM219.909 25.3425C218.662 26.0663 217.647 25.4806 217.647 24.0379C217.69 23.2522 217.917 22.4876 218.31 21.806C218.702 21.1243 219.25 20.5448 219.909 20.1144C221.161 19.3907 222.176 19.9763 222.176 21.4238C222.133 22.2064 221.907 22.9681 221.516 23.6472C221.125 24.3263 220.579 24.9038 219.923 25.333L219.909 25.3425Z" fill="#FAFAFA"/>
</svg>
