<svg width="24" height="24" viewBox="0 0 24 24" fill="none" xmlns="http://www.w3.org/2000/svg">
<path d="M15.5624 21C15.5624 21.1492 15.5032 21.2923 15.3977 21.3977C15.2922 21.5032 15.1491 21.5625 14.9999 21.5625H8.99992C8.85074 21.5625 8.70766 21.5032 8.60217 21.3977C8.49668 21.2923 8.43742 21.1492 8.43742 21C8.43742 20.8508 8.49668 20.7077 8.60217 20.6023C8.70766 20.4968 8.85074 20.4375 8.99992 20.4375H14.9999C15.1491 20.4375 15.2922 20.4968 15.3977 20.6023C15.5032 20.7077 15.5624 20.8508 15.5624 21ZM20.6352 17.9062C20.5215 18.1065 20.3564 18.2729 20.1571 18.3882C19.9577 18.5036 19.7312 18.5637 19.5009 18.5625H4.49992C4.26921 18.562 4.04271 18.5007 3.84323 18.3848C3.64376 18.2689 3.47836 18.1024 3.36372 17.9022C3.24907 17.702 3.18922 17.4751 3.1902 17.2444C3.19118 17.0137 3.25295 16.7874 3.36929 16.5881C3.89898 15.675 4.68742 13.1006 4.68742 9.75C4.68742 7.8106 5.45784 5.95064 6.8292 4.57928C8.20056 3.20792 10.0605 2.4375 11.9999 2.4375C13.9393 2.4375 15.7993 3.20792 17.1706 4.57928C18.542 5.95064 19.3124 7.8106 19.3124 9.75C19.3124 13.0997 20.1018 15.675 20.6324 16.5881C20.75 16.7877 20.8123 17.0151 20.8128 17.2468C20.8133 17.4785 20.752 17.7061 20.6352 17.9062ZM19.6593 17.1562C18.9496 15.9375 18.1874 13.095 18.1874 9.75C18.1874 8.10897 17.5355 6.53516 16.3751 5.37478C15.2148 4.2144 13.6409 3.5625 11.9999 3.5625C10.3589 3.5625 8.78508 4.2144 7.6247 5.37478C6.46432 6.53516 5.81242 8.10897 5.81242 9.75C5.81242 13.0959 5.04929 15.9375 4.33961 17.1562C4.32315 17.1848 4.31449 17.2171 4.31449 17.25C4.31449 17.2829 4.32315 17.3152 4.33961 17.3438C4.35505 17.3725 4.37807 17.3964 4.40618 17.4129C4.43428 17.4295 4.46638 17.438 4.49898 17.4375H19.4999C19.5325 17.438 19.5646 17.4295 19.5927 17.4129C19.6208 17.3964 19.6439 17.3725 19.6593 17.3438C19.6758 17.3152 19.6844 17.2829 19.6844 17.25C19.6844 17.2171 19.6758 17.1848 19.6593 17.1562Z" fill="black"/>
</svg>
