<svg width="20" height="20" viewBox="0 0 20 20" fill="none" xmlns="http://www.w3.org/2000/svg">
<path d="M16.25 2.5H14.375V1.875C14.375 1.70924 14.3092 1.55027 14.1919 1.43306C14.0747 1.31585 13.9158 1.25 13.75 1.25C13.5842 1.25 13.4253 1.31585 13.3081 1.43306C13.1908 1.55027 13.125 1.70924 13.125 1.875V2.5H6.875V1.875C6.875 1.70924 6.80915 1.55027 6.69194 1.43306C6.57473 1.31585 6.41576 1.25 6.25 1.25C6.08424 1.25 5.92527 1.31585 5.80806 1.43306C5.69085 1.55027 5.625 1.70924 5.625 1.875V2.5H3.75C3.41848 2.5 3.10054 2.6317 2.86612 2.86612C2.6317 3.10054 2.5 3.41848 2.5 3.75V16.25C2.5 16.5815 2.6317 16.8995 2.86612 17.1339C3.10054 17.3683 3.41848 17.5 3.75 17.5H16.25C16.5815 17.5 16.8995 17.3683 17.1339 17.1339C17.3683 16.8995 17.5 16.5815 17.5 16.25V3.75C17.5 3.41848 17.3683 3.10054 17.1339 2.86612C16.8995 2.6317 16.5815 2.5 16.25 2.5ZM5.625 3.75V4.375C5.625 4.54076 5.69085 4.69973 5.80806 4.81694C5.92527 4.93415 6.08424 5 6.25 5C6.41576 5 6.57473 4.93415 6.69194 4.81694C6.80915 4.69973 6.875 4.54076 6.875 4.375V3.75H13.125V4.375C13.125 4.54076 13.1908 4.69973 13.3081 4.81694C13.4253 4.93415 13.5842 5 13.75 5C13.9158 5 14.0747 4.93415 14.1919 4.81694C14.3092 4.69973 14.375 4.54076 14.375 4.375V3.75H16.25V6.25H3.75V3.75H5.625ZM16.25 16.25H3.75V7.5H16.25V16.25ZM10.9375 10.3125C10.9375 10.4979 10.8825 10.6792 10.7795 10.8333C10.6765 10.9875 10.5301 11.1077 10.3588 11.1786C10.1875 11.2496 9.99896 11.2682 9.8171 11.232C9.63525 11.1958 9.4682 11.1065 9.33709 10.9754C9.20598 10.8443 9.11669 10.6773 9.08051 10.4954C9.04434 10.3135 9.06291 10.125 9.13386 9.95373C9.20482 9.78243 9.32498 9.63601 9.47915 9.533C9.63332 9.42998 9.81458 9.375 10 9.375C10.2486 9.375 10.4871 9.47377 10.6629 9.64959C10.8387 9.8254 10.9375 10.0639 10.9375 10.3125ZM7.5 13.4375C7.5 13.6229 7.44502 13.8042 7.342 13.9583C7.23899 14.1125 7.09257 14.2327 6.92127 14.3036C6.74996 14.3746 6.56146 14.3932 6.3796 14.357C6.19775 14.3208 6.0307 14.2315 5.89959 14.1004C5.76848 13.9693 5.67919 13.8023 5.64301 13.6204C5.60684 13.4385 5.62541 13.25 5.69636 13.0787C5.76732 12.9074 5.88748 12.761 6.04165 12.658C6.19582 12.555 6.37708 12.5 6.5625 12.5C6.81114 12.5 7.0496 12.5988 7.22541 12.7746C7.40123 12.9504 7.5 13.1889 7.5 13.4375ZM10.9375 13.4375C10.9375 13.6229 10.8825 13.8042 10.7795 13.9583C10.6765 14.1125 10.5301 14.2327 10.3588 14.3036C10.1875 14.3746 9.99896 14.3932 9.8171 14.357C9.63525 14.3208 9.4682 14.2315 9.33709 14.1004C9.20598 13.9693 9.11669 13.8023 9.08051 13.6204C9.04434 13.4385 9.06291 13.25 9.13386 13.0787C9.20482 12.9074 9.32498 12.761 9.47915 12.658C9.63332 12.555 9.81458 12.5 10 12.5C10.2486 12.5 10.4871 12.5988 10.6629 12.7746C10.8387 12.9504 10.9375 13.1889 10.9375 13.4375Z" fill="#7A7A7A"/>
<path d="M13.0753 13.8847C13.2175 14.0021 13.3659 14.1093 13.5177 14.214C13.6699 14.1107 13.8175 14.0008 13.9602 13.8847C14.1979 13.6895 14.4217 13.4778 14.6298 13.2512C15.1096 12.7266 15.6302 11.9661 15.6302 11.1125C15.6302 10.835 15.5755 10.5603 15.4694 10.3041C15.3632 10.0478 15.2076 9.81488 15.0115 9.61872C14.8153 9.42256 14.5824 9.26696 14.3261 9.1608C14.0698 9.05464 13.7951 9 13.5177 9C13.2403 9 12.9656 9.05464 12.7093 9.1608C12.453 9.26696 12.2202 9.42256 12.024 9.61872C11.8278 9.81488 11.6722 10.0478 11.5661 10.3041C11.4599 10.5603 11.4053 10.835 11.4053 11.1125C11.4053 11.9661 11.9259 12.7264 12.4056 13.2512C12.6137 13.4779 12.8375 13.6894 13.0753 13.8847ZM13.5177 11.8753C13.3154 11.8753 13.1214 11.7949 12.9783 11.6519C12.8353 11.5088 12.7549 11.3148 12.7549 11.1125C12.7549 10.9101 12.8353 10.7161 12.9783 10.573C13.1214 10.43 13.3154 10.3496 13.5177 10.3496C13.72 10.3496 13.9141 10.43 14.0571 10.573C14.2002 10.7161 14.2806 10.9101 14.2806 11.1125C14.2806 11.3148 14.2002 11.5088 14.0571 11.6519C13.9141 11.7949 13.72 11.8753 13.5177 11.8753Z" fill="#7A7A7A"/>
</svg>
