<svg width="32" height="20" viewBox="0 0 32 20" fill="none" xmlns="http://www.w3.org/2000/svg">
<path d="M22.25 2.5H20.375V1.875C20.375 1.70924 20.3092 1.55027 20.1919 1.43306C20.0747 1.31585 19.9158 1.25 19.75 1.25C19.5842 1.25 19.4253 1.31585 19.3081 1.43306C19.1908 1.55027 19.125 1.70924 19.125 1.875V2.5H12.875V1.875C12.875 1.70924 12.8092 1.55027 12.6919 1.43306C12.5747 1.31585 12.4158 1.25 12.25 1.25C12.0842 1.25 11.9253 1.31585 11.8081 1.43306C11.6908 1.55027 11.625 1.70924 11.625 1.875V2.5H9.75C9.41848 2.5 9.10054 2.6317 8.86612 2.86612C8.6317 3.10054 8.5 3.41848 8.5 3.75V16.25C8.5 16.5815 8.6317 16.8995 8.86612 17.1339C9.10054 17.3683 9.41848 17.5 9.75 17.5H22.25C22.5815 17.5 22.8995 17.3683 23.1339 17.1339C23.3683 16.8995 23.5 16.5815 23.5 16.25V3.75C23.5 3.41848 23.3683 3.10054 23.1339 2.86612C22.8995 2.6317 22.5815 2.5 22.25 2.5ZM11.625 3.75V4.375C11.625 4.54076 11.6908 4.69973 11.8081 4.81694C11.9253 4.93415 12.0842 5 12.25 5C12.4158 5 12.5747 4.93415 12.6919 4.81694C12.8092 4.69973 12.875 4.54076 12.875 4.375V3.75H19.125V4.375C19.125 4.54076 19.1908 4.69973 19.3081 4.81694C19.4253 4.93415 19.5842 5 19.75 5C19.9158 5 20.0747 4.93415 20.1919 4.81694C20.3092 4.69973 20.375 4.54076 20.375 4.375V3.75H22.25V6.25H9.75V3.75H11.625ZM22.25 16.25H9.75V7.5H22.25V16.25ZM16.9375 10.3125C16.9375 10.4979 16.8825 10.6792 16.7795 10.8333C16.6765 10.9875 16.5301 11.1077 16.3588 11.1786C16.1875 11.2496 15.999 11.2682 15.8171 11.232C15.6352 11.1958 15.4682 11.1065 15.3371 10.9754C15.206 10.8443 15.1167 10.6773 15.0805 10.4954C15.0443 10.3135 15.0629 10.125 15.1339 9.95373C15.2048 9.78243 15.325 9.63601 15.4792 9.533C15.6333 9.42998 15.8146 9.375 16 9.375C16.2486 9.375 16.4871 9.47377 16.6629 9.64959C16.8387 9.8254 16.9375 10.0639 16.9375 10.3125ZM13.5 13.4375C13.5 13.6229 13.445 13.8042 13.342 13.9583C13.239 14.1125 13.0926 14.2327 12.9213 14.3036C12.75 14.3746 12.5615 14.3932 12.3796 14.357C12.1977 14.3208 12.0307 14.2315 11.8996 14.1004C11.7685 13.9693 11.6792 13.8023 11.643 13.6204C11.6068 13.4385 11.6254 13.25 11.6964 13.0787C11.7673 12.9074 11.8875 12.761 12.0417 12.658C12.1958 12.555 12.3771 12.5 12.5625 12.5C12.8111 12.5 13.0496 12.5988 13.2254 12.7746C13.4012 12.9504 13.5 13.1889 13.5 13.4375ZM16.9375 13.4375C16.9375 13.6229 16.8825 13.8042 16.7795 13.9583C16.6765 14.1125 16.5301 14.2327 16.3588 14.3036C16.1875 14.3746 15.999 14.3932 15.8171 14.357C15.6352 14.3208 15.4682 14.2315 15.3371 14.1004C15.206 13.9693 15.1167 13.8023 15.0805 13.6204C15.0443 13.4385 15.0629 13.25 15.1339 13.0787C15.2048 12.9074 15.325 12.761 15.4792 12.658C15.6333 12.555 15.8146 12.5 16 12.5C16.2486 12.5 16.4871 12.5988 16.6629 12.7746C16.8387 12.9504 16.9375 13.1889 16.9375 13.4375Z" fill="#1C6CA9"/>
<path d="M19.0753 13.8847C19.2175 14.0021 19.3659 14.1093 19.5177 14.214C19.6699 14.1107 19.8175 14.0008 19.9602 13.8847C20.1979 13.6895 20.4217 13.4778 20.6298 13.2512C21.1096 12.7266 21.6302 11.9661 21.6302 11.1125C21.6302 10.835 21.5755 10.5603 21.4694 10.3041C21.3632 10.0478 21.2076 9.81488 21.0115 9.61872C20.8153 9.42256 20.5824 9.26696 20.3261 9.1608C20.0698 9.05464 19.7951 9 19.5177 9C19.2403 9 18.9656 9.05464 18.7093 9.1608C18.453 9.26696 18.2202 9.42256 18.024 9.61872C17.8278 9.81488 17.6722 10.0478 17.5661 10.3041C17.4599 10.5603 17.4053 10.835 17.4053 11.1125C17.4053 11.9661 17.9259 12.7264 18.4056 13.2512C18.6137 13.4779 18.8375 13.6894 19.0753 13.8847ZM19.5177 11.8753C19.3154 11.8753 19.1214 11.7949 18.9783 11.6519C18.8353 11.5088 18.7549 11.3148 18.7549 11.1125C18.7549 10.9101 18.8353 10.7161 18.9783 10.573C19.1214 10.43 19.3154 10.3496 19.5177 10.3496C19.72 10.3496 19.9141 10.43 20.0571 10.573C20.2002 10.7161 20.2806 10.9101 20.2806 11.1125C20.2806 11.3148 20.2002 11.5088 20.0571 11.6519C19.9141 11.7949 19.72 11.8753 19.5177 11.8753Z" fill="#1C6CA9"/>
<rect width="32" height="20" rx="10" fill="#1C6CA9" fill-opacity="0.2"/>
</svg>
