<svg width="16" height="16" viewBox="0 0 16 16" fill="none" xmlns="http://www.w3.org/2000/svg">
<path d="M10.1875 1.875C9.57264 1.87486 8.96629 2.01875 8.41704 2.29514C7.8678 2.57152 7.39094 2.97272 7.02466 3.46659C6.65839 3.96045 6.4129 4.53325 6.30785 5.13907C6.2028 5.7449 6.24113 6.3669 6.41975 6.95525L1.875 11.5V14.125H4.5L9.04475 9.58025C9.58633 9.74464 10.157 9.79035 10.7178 9.71425C11.2787 9.63815 11.8165 9.44203 12.2947 9.13927C12.7729 8.8365 13.1802 8.43421 13.4889 7.9598C13.7975 7.48538 14.0003 6.95 14.0833 6.39014C14.1663 5.83029 14.1277 5.25911 13.97 4.71553C13.8123 4.17196 13.5393 3.66876 13.1696 3.24025C12.7998 2.81173 12.3421 2.46795 11.8275 2.23235C11.3128 1.99676 10.7535 1.87487 10.1875 1.875ZM10.1875 8.875C9.88628 8.87492 9.58672 8.8304 9.2985 8.74288L8.79669 8.59063L8.42613 8.96119L7.03444 10.3529L6.43112 9.75L5.8125 10.3686L6.41581 10.9719L5.72194 11.6658L5.11862 11.0625L4.5 11.6811L5.10331 12.2844L4.13775 13.25H2.75V11.8622L7.03837 7.57387L7.40937 7.20331L7.25712 6.7015C7.07013 6.08506 7.08228 5.42535 7.29184 4.81621C7.5014 4.20707 7.89771 3.67952 8.42439 3.30861C8.95107 2.9377 9.5813 2.74231 10.2254 2.75023C10.8696 2.75816 11.4948 2.96899 12.0122 3.35275C12.5296 3.73651 12.9128 4.27365 13.1073 4.88776C13.3018 5.50187 13.2977 6.16168 13.0956 6.77333C12.8935 7.38498 12.5037 7.91733 11.9816 8.29466C11.4595 8.67198 10.8317 8.87505 10.1875 8.875Z" fill="#828282"/>
<path d="M10.625 6.25C11.1082 6.25 11.5 5.85825 11.5 5.375C11.5 4.89175 11.1082 4.5 10.625 4.5C10.1418 4.5 9.75 4.89175 9.75 5.375C9.75 5.85825 10.1418 6.25 10.625 6.25Z" fill="#828282"/>
</svg>
