<svg width="32" height="20" viewBox="0 0 32 20" fill="none" xmlns="http://www.w3.org/2000/svg">
<path d="M12.25 11.25H17.25V12.5H12.25V11.25ZM12.25 8.125H19.75V9.375H12.25V8.125ZM12.25 14.375H15.375V15.625H12.25V14.375Z" fill="#1C6CA9"/>
<path d="M21.625 3.125H19.75V2.5C19.75 2.16848 19.6183 1.85054 19.3839 1.61612C19.1495 1.3817 18.8315 1.25 18.5 1.25H13.5C13.1685 1.25 12.8505 1.3817 12.6161 1.61612C12.3817 1.85054 12.25 2.16848 12.25 2.5V3.125H10.375C10.0435 3.125 9.72554 3.2567 9.49112 3.49112C9.2567 3.72554 9.125 4.04348 9.125 4.375V17.5C9.125 17.8315 9.2567 18.1495 9.49112 18.3839C9.72554 18.6183 10.0435 18.75 10.375 18.75H21.625C21.9565 18.75 22.2745 18.6183 22.5089 18.3839C22.7433 18.1495 22.875 17.8315 22.875 17.5V4.375C22.875 4.04348 22.7433 3.72554 22.5089 3.49112C22.2745 3.2567 21.9565 3.125 21.625 3.125ZM13.5 2.5H18.5V5H13.5V2.5ZM21.625 17.5H10.375V4.375H12.25V6.25H19.75V4.375H21.625V17.5Z" fill="#1C6CA9"/>
<rect width="32" height="20" rx="10" fill="#1C6CA9" fill-opacity="0.2"/>
</svg>
