<svg width="20" height="20" viewBox="0 0 20 20" fill="none" xmlns="http://www.w3.org/2000/svg">
<path d="M13.4563 7.79375C13.544 7.88164 13.5933 8.00078 13.5933 8.125C13.5933 8.24922 13.544 8.36836 13.4563 8.45625L9.08125 12.8313C8.99336 12.919 8.87422 12.9683 8.75 12.9683C8.62578 12.9683 8.50664 12.919 8.41875 12.8313L6.54375 10.9563C6.46095 10.8674 6.41587 10.7499 6.41802 10.6284C6.42016 10.507 6.46935 10.3911 6.55524 10.3052C6.64112 10.2194 6.75699 10.1702 6.87842 10.168C6.99986 10.1659 7.11739 10.2109 7.20625 10.2937L8.75 11.8367L12.7937 7.79375C12.8816 7.70597 13.0008 7.65666 13.125 7.65666C13.2492 7.65666 13.3684 7.70597 13.4563 7.79375ZM17.3438 3.75V16.25C17.3438 16.5401 17.2285 16.8183 17.0234 17.0234C16.8183 17.2285 16.5401 17.3438 16.25 17.3438H3.75C3.45992 17.3438 3.18172 17.2285 2.9766 17.0234C2.77148 16.8183 2.65625 16.5401 2.65625 16.25V3.75C2.65625 3.45992 2.77148 3.18172 2.9766 2.9766C3.18172 2.77148 3.45992 2.65625 3.75 2.65625H16.25C16.5401 2.65625 16.8183 2.77148 17.0234 2.9766C17.2285 3.18172 17.3438 3.45992 17.3438 3.75ZM16.4062 3.75C16.4062 3.70856 16.3898 3.66882 16.3605 3.63951C16.3312 3.61021 16.2914 3.59375 16.25 3.59375H3.75C3.70856 3.59375 3.66882 3.61021 3.63951 3.63951C3.61021 3.66882 3.59375 3.70856 3.59375 3.75V16.25C3.59375 16.2914 3.61021 16.3312 3.63951 16.3605C3.66882 16.3898 3.70856 16.4062 3.75 16.4062H16.25C16.2914 16.4062 16.3312 16.3898 16.3605 16.3605C16.3898 16.3312 16.4062 16.2914 16.4062 16.25V3.75Z" fill="black"/>
</svg>
