<svg width="20" height="20" viewBox="0 0 20 20" fill="none" xmlns="http://www.w3.org/2000/svg">
<path d="M13.4563 7.79375C13.544 7.88164 13.5933 8.00078 13.5933 8.125C13.5933 8.24922 13.544 8.36836 13.4563 8.45625L9.08125 12.8313C8.99336 12.919 8.87422 12.9683 8.75 12.9683C8.62578 12.9683 8.50664 12.919 8.41875 12.8313L6.54375 10.9563C6.46095 10.8674 6.41588 10.7499 6.41802 10.6284C6.42016 10.507 6.46936 10.3911 6.55524 10.3052C6.64112 10.2194 6.75699 10.1702 6.87843 10.168C6.99987 10.1659 7.11739 10.2109 7.20625 10.2937L8.75 11.8367L12.7938 7.79375C12.8816 7.70597 13.0008 7.65666 13.125 7.65666C13.2492 7.65666 13.3684 7.70597 13.4563 7.79375ZM17.9688 10C17.9688 11.5761 17.5014 13.1167 16.6258 14.4272C15.7502 15.7377 14.5056 16.759 13.0495 17.3622C11.5934 17.9653 9.99116 18.1231 8.44538 17.8156C6.89959 17.5082 5.4797 16.7492 4.36525 15.6348C3.2508 14.5203 2.49185 13.1004 2.18437 11.5546C1.87689 10.0088 2.0347 8.40659 2.63784 6.95049C3.24097 5.49439 4.26235 4.24984 5.5728 3.37423C6.88326 2.49861 8.42393 2.03125 10 2.03125C12.1127 2.03373 14.1381 2.87409 15.632 4.36798C17.1259 5.86188 17.9663 7.88732 17.9688 10ZM17.0313 10C17.0313 8.60935 16.6189 7.24993 15.8463 6.09365C15.0737 4.93736 13.9755 4.03615 12.6907 3.50397C11.406 2.97179 9.9922 2.83255 8.62827 3.10385C7.26435 3.37516 6.0115 4.04482 5.02816 5.02816C4.04482 6.01149 3.37516 7.26434 3.10386 8.62827C2.83255 9.9922 2.9718 11.406 3.50398 12.6907C4.03615 13.9755 4.93737 15.0737 6.09365 15.8463C7.24993 16.6189 8.60935 17.0312 10 17.0312C11.8642 17.0292 13.6514 16.2877 14.9696 14.9696C16.2877 13.6514 17.0292 11.8642 17.0313 10Z" fill="#16A34A"/>
</svg>
