<svg width="20" height="20" viewBox="0 0 20 20" fill="none" xmlns="http://www.w3.org/2000/svg">
<path d="M17.3438 3.75V16.25C17.3438 16.5401 17.2285 16.8183 17.0234 17.0234C16.8183 17.2285 16.5401 17.3438 16.25 17.3438H3.75C3.45992 17.3438 3.18172 17.2285 2.9766 17.0234C2.77148 16.8183 2.65625 16.5401 2.65625 16.25V3.75C2.65625 3.45992 2.77148 3.18172 2.9766 2.9766C3.18172 2.77148 3.45992 2.65625 3.75 2.65625H16.25C16.5401 2.65625 16.8183 2.77148 17.0234 2.9766C17.2285 3.18172 17.3438 3.45992 17.3438 3.75ZM16.4062 3.75C16.4062 3.70856 16.3898 3.66882 16.3605 3.63951C16.3312 3.61021 16.2914 3.59375 16.25 3.59375H3.75C3.70856 3.59375 3.66882 3.61021 3.63951 3.63951C3.61021 3.66882 3.59375 3.70856 3.59375 3.75V16.25C3.59375 16.2914 3.61021 16.3312 3.63951 16.3605C3.66882 16.3898 3.70856 16.4062 3.75 16.4062H16.25C16.2914 16.4062 16.3312 16.3898 16.3605 16.3605C16.3898 16.3312 16.4062 16.2914 16.4062 16.25V3.75Z" fill="black"/>
</svg>
