<svg width="32" height="20" viewBox="0 0 32 20" fill="none" xmlns="http://www.w3.org/2000/svg">
<path d="M24.1251 10.6766C23.9923 12.2203 23.4213 13.694 22.4795 14.9243C21.5376 16.1546 20.2639 17.0903 18.8083 17.6213C17.3527 18.1523 15.7757 18.2565 14.2629 17.9217C12.7501 17.5869 11.3643 16.827 10.2687 15.7314C9.17312 14.6358 8.41321 13.25 8.07841 11.7372C7.7436 10.2244 7.84783 8.64739 8.37883 7.19179C8.90983 5.73619 9.84551 4.46252 11.0758 3.52064C12.3061 2.57875 13.7798 2.00783 15.3235 1.87505C15.4056 1.86828 15.4882 1.87774 15.5666 1.90289C15.645 1.92804 15.7177 1.9684 15.7805 2.02165C15.8434 2.07489 15.8951 2.14 15.9327 2.21323C15.9704 2.28647 15.9933 2.36641 16.0001 2.44849C16.0068 2.53056 15.9974 2.61317 15.9722 2.69159C15.9471 2.77001 15.9067 2.8427 15.8535 2.90553C15.8002 2.96835 15.7351 3.02008 15.6619 3.05774C15.5886 3.09541 15.5087 3.11828 15.4266 3.12505C14.12 3.23731 12.8727 3.72041 11.8314 4.51752C10.7901 5.31463 9.99807 6.39257 9.54859 7.62452C9.09911 8.85647 9.01085 10.1912 9.29418 11.4716C9.57752 12.752 10.2207 13.9248 11.148 14.8521C12.0753 15.7794 13.2481 16.4226 14.5285 16.7059C15.8089 16.9893 17.1436 16.901 18.3756 16.4515C19.6075 16.002 20.6855 15.21 21.4826 14.1687C22.2797 13.1274 22.7628 11.8801 22.8751 10.5735C22.8887 10.4077 22.9677 10.2542 23.0946 10.1466C23.2215 10.0391 23.3859 9.98637 23.5516 10C23.7174 10.0137 23.8709 10.0927 23.9785 10.2196C24.086 10.3464 24.1387 10.5108 24.1251 10.6766ZM15.3751 5.62505V10C15.3751 10.1658 15.4409 10.3248 15.5581 10.442C15.6753 10.5592 15.8343 10.625 16.0001 10.625H20.3751C20.5408 10.625 20.6998 10.5592 20.817 10.442C20.9342 10.3248 21.0001 10.1658 21.0001 10C21.0001 9.83429 20.9342 9.67531 20.817 9.5581C20.6998 9.44089 20.5408 9.37505 20.3751 9.37505H16.6251V5.62505C16.6251 5.45929 16.5592 5.30032 16.442 5.18311C16.3248 5.0659 16.1658 5.00005 16.0001 5.00005C15.8343 5.00005 15.6753 5.0659 15.5581 5.18311C15.4409 5.30032 15.3751 5.45929 15.3751 5.62505ZM18.5001 3.75005C18.6855 3.75005 18.8667 3.69506 19.0209 3.59205C19.1751 3.48904 19.2952 3.34262 19.3662 3.17131C19.4371 3.00001 19.4557 2.81151 19.4195 2.62965C19.3834 2.44779 19.2941 2.28075 19.163 2.14964C19.0319 2.01852 18.8648 1.92924 18.683 1.89306C18.5011 1.85689 18.3126 1.87545 18.1413 1.94641C17.97 2.01737 17.8236 2.13753 17.7206 2.2917C17.6175 2.44587 17.5626 2.62713 17.5626 2.81255C17.5626 3.06119 17.6613 3.29965 17.8371 3.47546C18.013 3.65128 18.2514 3.75005 18.5001 3.75005ZM21.3126 5.62505C21.498 5.62505 21.6792 5.57006 21.8334 5.46705C21.9876 5.36404 22.1077 5.21762 22.1787 5.04631C22.2496 4.87501 22.2682 4.68651 22.232 4.50465C22.1959 4.32279 22.1066 4.15575 21.9755 4.02464C21.8444 3.89352 21.6773 3.80424 21.4955 3.76806C21.3136 3.73189 21.1251 3.75045 20.9538 3.82141C20.7825 3.89237 20.6361 4.01253 20.5331 4.1667C20.43 4.32087 20.3751 4.50213 20.3751 4.68755C20.3751 4.93619 20.4738 5.17464 20.6496 5.35046C20.8255 5.52628 21.0639 5.62505 21.3126 5.62505ZM23.1876 8.43755C23.373 8.43755 23.5542 8.38256 23.7084 8.27955C23.8626 8.17654 23.9827 8.03012 24.0537 7.85881C24.1246 7.68751 24.1432 7.49901 24.107 7.31715C24.0709 7.13529 23.9816 6.96825 23.8505 6.83713C23.7194 6.70602 23.5523 6.61673 23.3705 6.58056C23.1886 6.54439 23.0001 6.56295 22.8288 6.63391C22.6575 6.70487 22.5111 6.82503 22.4081 6.9792C22.305 7.13337 22.2501 7.31463 22.2501 7.50005C22.2501 7.74869 22.3488 7.98714 22.5246 8.16296C22.7005 8.33877 22.9389 8.43755 23.1876 8.43755Z" fill="#1C6CA9"/>
<rect width="32" height="20" rx="10" fill="#1C6CA9" fill-opacity="0.2"/>
</svg>
