<svg width="20" height="20" viewBox="0 0 20 20" fill="none" xmlns="http://www.w3.org/2000/svg">
<path d="M18.1251 10.6766C17.9923 12.2203 17.4213 13.694 16.4795 14.9243C15.5376 16.1546 14.2639 17.0903 12.8083 17.6213C11.3527 18.1523 9.77573 18.2565 8.26291 17.9217C6.75008 17.5869 5.36435 16.827 4.26874 15.7314C3.17312 14.6358 2.41321 13.25 2.07841 11.7372C1.7436 10.2244 1.84783 8.64739 2.37883 7.19179C2.90983 5.73619 3.84551 4.46252 5.07579 3.52064C6.30607 2.57875 7.77976 2.00783 9.32349 1.87505C9.40557 1.86828 9.48817 1.87774 9.56659 1.90289C9.64501 1.92804 9.71771 1.9684 9.78054 2.02165C9.84336 2.07489 9.89508 2.14 9.93275 2.21323C9.97041 2.28647 9.99328 2.36641 10.0001 2.44849C10.0068 2.53056 9.99736 2.61317 9.97221 2.69159C9.94706 2.77001 9.90671 2.8427 9.85346 2.90553C9.80021 2.96835 9.73511 3.02008 9.66187 3.05774C9.58863 3.09541 9.50869 3.11828 9.42662 3.12505C8.12005 3.23731 6.87272 3.72041 5.83139 4.51752C4.79007 5.31463 3.99807 6.39257 3.54859 7.62452C3.09911 8.85647 3.01085 10.1912 3.29418 11.4716C3.57752 12.752 4.22067 13.9248 5.14796 14.8521C6.07525 15.7794 7.2481 16.4226 8.52852 16.7059C9.80893 16.9893 11.1436 16.901 12.3756 16.4515C13.6075 16.002 14.6855 15.21 15.4826 14.1687C16.2797 13.1274 16.7628 11.8801 16.8751 10.5735C16.8887 10.4077 16.9677 10.2542 17.0946 10.1466C17.2215 10.0391 17.3859 9.98637 17.5516 10C17.7174 10.0137 17.8709 10.0927 17.9785 10.2196C18.086 10.3464 18.1387 10.5108 18.1251 10.6766ZM9.37506 5.62505V10C9.37506 10.1658 9.4409 10.3248 9.55811 10.442C9.67532 10.5592 9.83429 10.625 10.0001 10.625H14.3751C14.5408 10.625 14.6998 10.5592 14.817 10.442C14.9342 10.3248 15.0001 10.1658 15.0001 10C15.0001 9.83429 14.9342 9.67531 14.817 9.5581C14.6998 9.44089 14.5408 9.37505 14.3751 9.37505H10.6251V5.62505C10.6251 5.45929 10.5592 5.30032 10.442 5.18311C10.3248 5.0659 10.1658 5.00005 10.0001 5.00005C9.83429 5.00005 9.67532 5.0659 9.55811 5.18311C9.4409 5.30032 9.37506 5.45929 9.37506 5.62505ZM12.5001 3.75005C12.6855 3.75005 12.8667 3.69506 13.0209 3.59205C13.1751 3.48904 13.2952 3.34262 13.3662 3.17131C13.4371 3.00001 13.4557 2.81151 13.4195 2.62965C13.3834 2.44779 13.2941 2.28075 13.163 2.14964C13.0319 2.01852 12.8648 1.92924 12.683 1.89306C12.5011 1.85689 12.3126 1.87545 12.1413 1.94641C11.97 2.01737 11.8236 2.13753 11.7206 2.2917C11.6175 2.44587 11.5626 2.62713 11.5626 2.81255C11.5626 3.06119 11.6613 3.29965 11.8371 3.47546C12.013 3.65128 12.2514 3.75005 12.5001 3.75005ZM15.3126 5.62505C15.498 5.62505 15.6792 5.57006 15.8334 5.46705C15.9876 5.36404 16.1077 5.21762 16.1787 5.04631C16.2496 4.87501 16.2682 4.68651 16.232 4.50465C16.1959 4.32279 16.1066 4.15575 15.9755 4.02464C15.8444 3.89352 15.6773 3.80424 15.4955 3.76806C15.3136 3.73189 15.1251 3.75045 14.9538 3.82141C14.7825 3.89237 14.6361 4.01253 14.5331 4.1667C14.43 4.32087 14.3751 4.50213 14.3751 4.68755C14.3751 4.93619 14.4738 5.17464 14.6496 5.35046C14.8255 5.52628 15.0639 5.62505 15.3126 5.62505ZM17.1876 8.43755C17.373 8.43755 17.5542 8.38256 17.7084 8.27955C17.8626 8.17654 17.9827 8.03012 18.0537 7.85881C18.1246 7.68751 18.1432 7.49901 18.107 7.31715C18.0709 7.13529 17.9816 6.96825 17.8505 6.83713C17.7194 6.70602 17.5523 6.61673 17.3705 6.58056C17.1886 6.54439 17.0001 6.56295 16.8288 6.63391C16.6575 6.70487 16.5111 6.82503 16.4081 6.9792C16.305 7.13337 16.2501 7.31463 16.2501 7.50005C16.2501 7.74869 16.3488 7.98714 16.5246 8.16296C16.7005 8.33877 16.9389 8.43755 17.1876 8.43755Z" fill="#1C6CA9"/>
</svg>
