<svg width="32" height="20" viewBox="0 0 32 20" fill="none" xmlns="http://www.w3.org/2000/svg">
<path d="M17.7325 1.25C17.8648 1.25 17.9937 1.292 18.1007 1.36995C18.2076 1.4479 18.287 1.55778 18.3275 1.68375L19.015 3.82C19.3038 3.96125 19.58 4.12 19.8438 4.29875L22.0388 3.82625C22.1682 3.79862 22.303 3.81278 22.4239 3.86669C22.5447 3.92061 22.6454 4.01149 22.7113 4.12625L24.4438 7.125C24.5099 7.2397 24.5379 7.37244 24.5238 7.50409C24.5096 7.63574 24.454 7.75949 24.365 7.8575L22.8588 9.52C22.8807 9.83879 22.8807 10.1587 22.8588 10.4775L24.365 12.1425C24.454 12.2405 24.5096 12.3643 24.5238 12.4959C24.5379 12.6276 24.5099 12.7603 24.4438 12.875L22.7113 15.875C22.6452 15.9895 22.5445 16.0802 22.4236 16.1338C22.3028 16.1875 22.168 16.2015 22.0388 16.1737L19.8438 15.7013C19.5813 15.8787 19.3038 16.0388 19.0163 16.18L18.3275 18.3162C18.287 18.4422 18.2076 18.5521 18.1007 18.63C17.9937 18.708 17.8648 18.75 17.7325 18.75H14.2675C14.1352 18.75 14.0063 18.708 13.8994 18.63C13.7924 18.5521 13.713 18.4422 13.6725 18.3162L12.9863 16.1812C12.6983 16.0404 12.4205 15.8796 12.155 15.7L9.96126 16.1737C9.83184 16.2014 9.697 16.1872 9.57614 16.1333C9.45528 16.0794 9.35466 15.9885 9.28876 15.8738L7.55626 12.875C7.49011 12.7603 7.46208 12.6276 7.47624 12.4959C7.49039 12.3643 7.54599 12.2405 7.63501 12.1425L9.14126 10.4775C9.11944 10.1595 9.11944 9.84046 9.14126 9.5225L7.63501 7.8575C7.54599 7.75949 7.49039 7.63574 7.47624 7.50409C7.46208 7.37244 7.49011 7.2397 7.55626 7.125L9.28876 4.125C9.35484 4.01047 9.45554 3.91984 9.57639 3.86616C9.69723 3.81248 9.83198 3.79851 9.96126 3.82625L12.155 4.3C12.42 4.12125 12.6975 3.96 12.9863 3.81875L13.6738 1.68375C13.7141 1.55818 13.7932 1.4486 13.8996 1.37069C14.006 1.29278 14.1344 1.25053 14.2663 1.25H17.7313H17.7325ZM17.275 2.5H14.725L14.015 4.70875L13.5363 4.9425C13.3009 5.05767 13.0737 5.18881 12.8563 5.335L12.4138 5.635L10.1438 5.145L8.86876 7.355L10.425 9.0775L10.3875 9.6075C10.3695 9.86886 10.3695 10.1311 10.3875 10.3925L10.425 10.9225L8.86626 12.645L10.1425 14.855L12.4125 14.3663L12.855 14.665C13.0725 14.8112 13.2997 14.9423 13.535 15.0575L14.0138 15.2913L14.725 17.5H17.2775L17.99 15.29L18.4675 15.0575C18.7026 14.9426 18.9294 14.8115 19.1463 14.665L19.5875 14.3663L21.8588 14.855L23.1338 12.645L21.5763 10.9225L21.6138 10.3925C21.6318 10.1307 21.6318 9.86802 21.6138 9.60625L21.5763 9.07625L23.135 7.355L21.8588 5.145L19.5875 5.6325L19.1463 5.335C18.9294 5.18854 18.7026 5.05739 18.4675 4.9425L17.99 4.71L17.2763 2.5H17.275ZM16 6.25C16.9946 6.25 17.9484 6.64509 18.6517 7.34835C19.3549 8.05161 19.75 9.00544 19.75 10C19.75 10.9946 19.3549 11.9484 18.6517 12.6517C17.9484 13.3549 16.9946 13.75 16 13.75C15.0055 13.75 14.0516 13.3549 13.3484 12.6517C12.6451 11.9484 12.25 10.9946 12.25 10C12.25 9.00544 12.6451 8.05161 13.3484 7.34835C14.0516 6.64509 15.0055 6.25 16 6.25ZM16 7.5C15.337 7.5 14.7011 7.76339 14.2322 8.23223C13.7634 8.70107 13.5 9.33696 13.5 10C13.5 10.663 13.7634 11.2989 14.2322 11.7678C14.7011 12.2366 15.337 12.5 16 12.5C16.6631 12.5 17.2989 12.2366 17.7678 11.7678C18.2366 11.2989 18.5 10.663 18.5 10C18.5 9.33696 18.2366 8.70107 17.7678 8.23223C17.2989 7.76339 16.6631 7.5 16 7.5Z" fill="#1C6CA9"/>
<rect width="32" height="20" rx="10" fill="#1C6CA9" fill-opacity="0.2"/>
</svg>
