<svg width="32" height="20" viewBox="0 0 32 20" fill="none" xmlns="http://www.w3.org/2000/svg">
<path d="M23.1336 8.49083L16.8836 2.24083C16.6492 2.00658 16.3314 1.875 16 1.875C15.6686 1.875 15.3508 2.00658 15.1164 2.24083L8.86641 8.49083C8.74978 8.6066 8.65732 8.7444 8.59442 8.89623C8.53151 9.04805 8.49942 9.21086 8.50001 9.3752V16.8752C8.50001 17.041 8.56586 17.1999 8.68307 17.3171C8.80028 17.4344 8.95925 17.5002 9.12501 17.5002H14.125C14.2908 17.5002 14.4497 17.4344 14.5669 17.3171C14.6842 17.1999 14.75 17.041 14.75 16.8752V12.5002H17.25V16.8752C17.25 17.041 17.3159 17.1999 17.4331 17.3171C17.5503 17.4344 17.7092 17.5002 17.875 17.5002H22.875C23.0408 17.5002 23.1997 17.4344 23.317 17.3171C23.4342 17.1999 23.5 17.041 23.5 16.8752V9.3752C23.5006 9.21086 23.4685 9.04805 23.4056 8.89623C23.3427 8.7444 23.2502 8.6066 23.1336 8.49083ZM22.25 16.2502H18.5V11.8752C18.5 11.7094 18.4342 11.5505 18.3169 11.4333C18.1997 11.316 18.0408 11.2502 17.875 11.2502H14.125C13.9592 11.2502 13.8003 11.316 13.6831 11.4333C13.5659 11.5505 13.5 11.7094 13.5 11.8752V16.2502H9.75001V9.3752L16 3.1252L22.25 9.3752V16.2502Z" fill="#1C6CA9"/>
<rect width="32" height="20" rx="10" fill="#1C6CA9" fill-opacity="0.2"/>
</svg>
