<svg width="32" height="20" viewBox="0 0 32 20" fill="none" xmlns="http://www.w3.org/2000/svg">
<path d="M22.0984 11.25H18.8692C18.4412 11.2495 18.0305 11.4188 17.7271 11.7208C17.4237 12.0228 17.2525 12.4327 17.2509 12.8608V16.09C17.2507 16.3025 17.2924 16.5131 17.3737 16.7095C17.4549 16.906 17.5741 17.0845 17.7244 17.2348C17.8747 17.3851 18.0532 17.5043 18.2497 17.5856C18.4461 17.6668 18.6567 17.7085 18.8692 17.7083H22.0984C22.5263 17.7065 22.9361 17.5352 23.2379 17.2318C23.5396 16.9285 23.7089 16.5179 23.7084 16.09V12.8608C23.7086 12.6493 23.6671 12.4398 23.5863 12.2444C23.5055 12.049 23.3869 11.8714 23.2373 11.7219C23.0878 11.5723 22.9102 11.4537 22.7148 11.3729C22.5194 11.2921 22.3099 11.2506 22.0984 11.2508M13.1309 11.25H9.90175C9.47391 11.2524 9.06442 11.424 8.76275 11.7274C8.46107 12.0308 8.29174 12.4413 8.29175 12.8691V16.0983C8.29153 16.3098 8.33302 16.5192 8.41386 16.7147C8.49469 16.9101 8.61327 17.0877 8.76282 17.2372C8.91236 17.3868 9.08994 17.5054 9.28537 17.5862C9.4808 17.667 9.69026 17.7085 9.90175 17.7083H13.1309C13.5588 17.7087 13.9694 17.5395 14.2728 17.2377C14.5762 16.9359 14.7475 16.5262 14.7492 16.0983V12.8691C14.7495 12.6565 14.7078 12.446 14.6265 12.2496C14.5453 12.0531 14.4261 11.8746 14.2757 11.7243C14.1254 11.574 13.9469 11.4548 13.7505 11.3735C13.554 11.2923 13.3435 11.2506 13.1309 11.2508M13.1309 2.29163H9.90175C9.69026 2.29141 9.4808 2.3329 9.28537 2.41373C9.08994 2.49457 8.91236 2.61315 8.76282 2.7627C8.61327 2.91224 8.49469 3.08981 8.41386 3.28525C8.33302 3.48068 8.29153 3.69014 8.29175 3.90163V7.13079C8.2913 7.5587 8.46052 7.96932 8.76231 8.27268C9.0641 8.57603 9.47385 8.74736 9.90175 8.74913H13.1309C13.3435 8.74935 13.554 8.70764 13.7505 8.62639C13.9469 8.54513 14.1254 8.42594 14.2757 8.27562C14.4261 8.1253 14.5453 7.94681 14.6265 7.75036C14.7078 7.55392 14.7495 7.34338 14.7492 7.13079V3.90163C14.7475 3.47373 14.5762 3.06398 14.2728 2.76219C13.9694 2.4604 13.5588 2.29118 13.1309 2.29163ZM22.0984 2.29163H18.8692C18.4413 2.29118 18.0307 2.4604 17.7274 2.76219C17.424 3.06398 17.2527 3.47373 17.2509 3.90163V7.13079C17.2511 7.55993 17.4217 7.97144 17.7252 8.27488C18.0286 8.57833 18.4401 8.74891 18.8692 8.74913H22.0984C22.5263 8.74736 22.9361 8.57603 23.2379 8.27268C23.5396 7.96932 23.7089 7.5587 23.7084 7.13079V3.90163C23.7086 3.69014 23.6671 3.48068 23.5863 3.28525C23.5055 3.08981 23.3869 2.91224 23.2373 2.7627C23.0878 2.61315 22.9102 2.49457 22.7148 2.41373C22.5194 2.3329 22.3099 2.29141 22.0984 2.29163Z" stroke="#1C6CA9" stroke-width="1.25" stroke-linecap="round" stroke-linejoin="round"/>
<rect width="32" height="20" rx="10" fill="#1C6CA9" fill-opacity="0.2"/>
</svg>
