<svg width="20" height="20" viewBox="0 0 20 20" fill="none" xmlns="http://www.w3.org/2000/svg">
<path d="M16.0984 11.2501H12.8692C12.4412 11.2496 12.0305 11.419 11.7271 11.7209C11.4237 12.0229 11.2525 12.4329 11.2509 12.8609V16.0901C11.2507 16.3027 11.2924 16.5132 11.3737 16.7097C11.4549 16.9061 11.5741 17.0846 11.7244 17.2349C11.8747 17.3852 12.0532 17.5044 12.2497 17.5857C12.4461 17.6669 12.6567 17.7086 12.8692 17.7084H16.0984C16.5263 17.7067 16.9361 17.5353 17.2379 17.232C17.5396 16.9286 17.7089 16.518 17.7084 16.0901V12.8609C17.7086 12.6494 17.6671 12.44 17.5863 12.2445C17.5055 12.0491 17.3869 11.8715 17.2373 11.722C17.0878 11.5724 16.9102 11.4539 16.7148 11.373C16.5194 11.2922 16.3099 11.2507 16.0984 11.2509M7.13092 11.2501H3.90175C3.47391 11.2525 3.06442 11.4242 2.76275 11.7276C2.46107 12.0309 2.29174 12.4414 2.29175 12.8692V16.0984C2.29153 16.3099 2.33302 16.5194 2.41386 16.7148C2.49469 16.9102 2.61327 17.0878 2.76282 17.2373C2.91236 17.3869 3.08994 17.5055 3.28537 17.5863C3.4808 17.6671 3.69026 17.7086 3.90175 17.7084H7.13092C7.55882 17.7089 7.96944 17.5396 8.2728 17.2379C8.57615 16.9361 8.74748 16.5263 8.74925 16.0984V12.8692C8.74947 12.6567 8.70776 12.4461 8.62651 12.2497C8.54526 12.0532 8.42606 11.8747 8.27574 11.7244C8.12542 11.5741 7.94693 11.4549 7.75048 11.3737C7.55404 11.2924 7.3435 11.2507 7.13092 11.2509M7.13092 2.29175H3.90175C3.69026 2.29153 3.4808 2.33302 3.28537 2.41386C3.08994 2.49469 2.91236 2.61327 2.76282 2.76282C2.61327 2.91236 2.49469 3.08994 2.41386 3.28537C2.33302 3.4808 2.29153 3.69026 2.29175 3.90175V7.13092C2.2913 7.55882 2.46052 7.96944 2.76231 8.2728C3.0641 8.57615 3.47385 8.74748 3.90175 8.74925H7.13092C7.3435 8.74947 7.55404 8.70776 7.75048 8.62651C7.94693 8.54526 8.12542 8.42606 8.27574 8.27574C8.42606 8.12542 8.54526 7.94693 8.62651 7.75048C8.70776 7.55404 8.74947 7.3435 8.74925 7.13092V3.90175C8.74748 3.47385 8.57615 3.0641 8.2728 2.76231C7.96944 2.46052 7.55882 2.2913 7.13092 2.29175ZM16.0984 2.29175H12.8692C12.4413 2.2913 12.0307 2.46052 11.7274 2.76231C11.424 3.0641 11.2527 3.47385 11.2509 3.90175V7.13092C11.2511 7.56006 11.4217 7.97156 11.7252 8.27501C12.0286 8.57845 12.4401 8.74903 12.8692 8.74925H16.0984C16.5263 8.74748 16.9361 8.57615 17.2379 8.2728C17.5396 7.96944 17.7089 7.55882 17.7084 7.13092V3.90175C17.7086 3.69026 17.6671 3.4808 17.5863 3.28537C17.5055 3.08994 17.3869 2.91236 17.2373 2.76282C17.0878 2.61327 16.9102 2.49469 16.7148 2.41386C16.5194 2.33302 16.3099 2.29153 16.0984 2.29175Z" stroke="#7A7A7A" stroke-width="1.25" stroke-linecap="round" stroke-linejoin="round"/>
</svg>
