<svg width="24" height="24" viewBox="0 0 24 24" fill="none" xmlns="http://www.w3.org/2000/svg">
<path d="M3.616 20C3.15533 20 2.771 19.846 2.463 19.538C2.155 19.23 2.00067 18.8453 2 18.384V7.616C2 7.15533 2.15433 6.771 2.463 6.463C2.77167 6.155 3.156 6.00067 3.616 6H6.573L8.423 4H13.616V5H8.856L7.012 7H3.616C3.436 7 3.28833 7.05767 3.173 7.173C3.05767 7.28833 3 7.436 3 7.616V18.385C3 18.5643 3.05767 18.7117 3.173 18.827C3.28833 18.9423 3.436 19 3.616 19H18.385C18.5643 19 18.7117 18.9423 18.827 18.827C18.9423 18.7117 19 18.564 19 18.384V10.384H20V18.384C20 18.8447 19.8457 19.229 19.537 19.537C19.2283 19.845 18.8443 19.9993 18.385 20H3.616ZM19 7V5H17V4H19V2H20V4H22V5H20V7H19ZM11 16.73C12.0447 16.73 12.9277 16.3697 13.649 15.649C14.3703 14.9283 14.731 14.0453 14.731 13C14.731 11.9547 14.3703 11.0717 13.649 10.351C12.9277 9.63033 12.0447 9.26967 11 9.269C9.95533 9.26833 9.07233 9.629 8.351 10.351C7.62967 11.073 7.269 11.956 7.269 13C7.269 14.044 7.62967 14.927 8.351 15.649C9.07233 16.371 9.95533 16.7317 11 16.731M11 15.731C10.2233 15.731 9.574 15.47 9.052 14.948C8.53 14.426 8.269 13.7767 8.269 13C8.269 12.2233 8.53 11.574 9.052 11.052C9.574 10.53 10.2233 10.269 11 10.269C11.7767 10.269 12.426 10.53 12.948 11.052C13.47 11.574 13.731 12.2233 13.731 13C13.731 13.7767 13.47 14.426 12.948 14.948C12.426 15.47 11.7767 15.731 11 15.731Z" fill="black"/>
<path d="M11 16.73C12.0447 16.73 12.9277 16.3697 13.649 15.649C14.3703 14.9283 14.731 14.0453 14.731 13C14.731 11.9547 14.3703 11.0717 13.649 10.351C12.9277 9.63033 12.0447 9.26967 11 9.269C9.95533 9.26833 9.07233 9.629 8.351 10.351C7.62967 11.073 7.269 11.956 7.269 13C7.269 14.044 7.62967 14.927 8.351 15.649C9.07233 16.371 9.95533 16.7317 11 16.731M3.616 20C3.15533 20 2.771 19.846 2.463 19.538C2.155 19.23 2.00067 18.8453 2 18.384V7.616C2 7.15533 2.15433 6.771 2.463 6.463C2.77167 6.155 3.156 6.00067 3.616 6H6.573L8.423 4H13.616V5H8.856L7.012 7H3.616C3.436 7 3.28833 7.05767 3.173 7.173C3.05767 7.28833 3 7.436 3 7.616V18.385C3 18.5643 3.05767 18.7117 3.173 18.827C3.28833 18.9423 3.436 19 3.616 19H18.385C18.5643 19 18.7117 18.9423 18.827 18.827C18.9423 18.7117 19 18.564 19 18.384V10.384H20V18.384C20 18.8447 19.8457 19.229 19.537 19.537C19.2283 19.845 18.8443 19.9993 18.385 20H3.616ZM19 7V5H17V4H19V2H20V4H22V5H20V7H19ZM11 15.731C10.2233 15.731 9.574 15.47 9.052 14.948C8.53 14.426 8.269 13.7767 8.269 13C8.269 12.2233 8.53 11.574 9.052 11.052C9.574 10.53 10.2233 10.269 11 10.269C11.7767 10.269 12.426 10.53 12.948 11.052C13.47 11.574 13.731 12.2233 13.731 13C13.731 13.7767 13.47 14.426 12.948 14.948C12.426 15.47 11.7767 15.731 11 15.731Z" stroke="black" stroke-width="0.2"/>
</svg>
