<svg width="32" height="20" viewBox="0 0 32 20" fill="none" xmlns="http://www.w3.org/2000/svg">
<path d="M21.1649 2.04947L10.8317 2.0469C10.5002 2.04701 10.1824 2.17877 9.94803 2.41318C9.7137 2.6476 9.58207 2.96549 9.58208 3.29694L9.58587 16.7031C9.58596 16.8673 9.61842 17.0299 9.68137 17.1816C9.74433 17.3333 9.83656 17.471 9.95279 17.5871C10.069 17.7031 10.207 17.7951 10.3588 17.8577C10.5106 17.9204 10.6732 17.9526 10.8375 17.9524L21.1707 17.955C21.335 17.955 21.4977 17.9226 21.6494 17.8597C21.8012 17.7967 21.9391 17.7045 22.0552 17.5883C22.1713 17.472 22.2633 17.334 22.3261 17.1821C22.3888 17.0303 22.421 16.8675 22.4207 16.7032L22.4169 3.2971C22.4163 2.96563 22.2841 2.64798 22.0493 2.41402C21.8145 2.18005 21.4963 2.04892 21.1649 2.04947ZM21.1692 16.705L10.8352 16.7025L10.8314 3.29639L21.1646 3.29896L21.1692 16.705ZM12.0816 5.17186C12.0817 5.00617 12.1477 4.84733 12.265 4.73025C12.3822 4.61318 12.5412 4.54746 12.7069 4.54754L19.2915 4.54869C19.4479 4.54851 19.5988 4.60703 19.7142 4.71266C19.8296 4.8183 19.9012 4.96338 19.9148 5.11924C19.9284 5.2751 19.8831 5.43041 19.7878 5.55447C19.6925 5.67854 19.5541 5.76234 19.4 5.78932C19.3639 5.79564 19.3273 5.7989 19.2906 5.79908L12.7059 5.79717C12.5402 5.79699 12.3813 5.73102 12.2643 5.61376C12.1472 5.49651 12.0815 5.33756 12.0816 5.17186ZM12.0829 7.67211C12.0829 7.59001 12.0991 7.50872 12.1305 7.43287C12.1619 7.35702 12.208 7.2881 12.266 7.23005C12.3241 7.172 12.393 7.12596 12.4689 7.09456C12.5447 7.06315 12.626 7.047 12.7081 7.04702L19.2929 7.04893C19.4502 7.04755 19.6023 7.10556 19.7187 7.21138C19.8352 7.31721 19.9074 7.46306 19.921 7.61982C19.9346 7.77658 19.8886 7.9327 19.7922 8.05702C19.6957 8.18134 19.5559 8.26471 19.4007 8.29047C19.3643 8.29696 19.3274 8.30002 19.2905 8.2996L12.7059 8.29846C12.5402 8.2979 12.3816 8.23163 12.2648 8.11419C12.148 7.99674 12.0826 7.83774 12.0829 7.67211ZM12.0834 10.1717C12.0842 10.0064 12.1505 9.84804 12.2678 9.73146C12.3851 9.61487 12.5438 9.54952 12.7091 9.54971L15.9994 9.54786C16.1558 9.54769 16.3066 9.60615 16.422 9.71171C16.5373 9.81726 16.609 9.96224 16.6227 10.118C16.6364 10.2738 16.5912 10.4291 16.4961 10.5532C16.4009 10.6773 16.2627 10.7612 16.1087 10.7884C16.0726 10.7947 16.036 10.798 15.9993 10.7981L12.707 10.7972C12.5414 10.7968 12.3827 10.7307 12.2658 10.6134C12.1489 10.4962 12.0833 10.3373 12.0834 10.1717Z" fill="#1C6CA9"/>
<rect width="32" height="20" rx="10" fill="#1C6CA9" fill-opacity="0.2"/>
</svg>
