<svg width="20" height="20" viewBox="0 0 20 20" fill="none" xmlns="http://www.w3.org/2000/svg">
<path d="M15.1649 2.04947L4.83166 2.0469C4.5002 2.04701 4.18236 2.17877 3.94803 2.41318C3.7137 2.6476 3.58207 2.96549 3.58208 3.29694L3.58587 16.7031C3.58596 16.8673 3.61842 17.0299 3.68137 17.1816C3.74433 17.3333 3.83656 17.471 3.95279 17.5871C4.06902 17.7031 4.20698 17.7951 4.35877 17.8577C4.51057 17.9204 4.67322 17.9526 4.83745 17.9524L15.1707 17.955C15.335 17.955 15.4977 17.9226 15.6494 17.8597C15.8012 17.7967 15.9391 17.7045 16.0552 17.5883C16.1713 17.472 16.2633 17.334 16.3261 17.1821C16.3888 17.0303 16.421 16.8675 16.4207 16.7032L16.4169 3.2971C16.4163 2.96563 16.2841 2.64798 16.0493 2.41402C15.8145 2.18005 15.4963 2.04892 15.1649 2.04947ZM15.1692 16.705L4.83523 16.7025L4.83144 3.29639L15.1646 3.29896L15.1692 16.705ZM6.08157 5.17186C6.08175 5.00617 6.14772 4.84733 6.26498 4.73025C6.38223 4.61318 6.54118 4.54746 6.70688 4.54754L13.2915 4.54869C13.4479 4.54851 13.5988 4.60703 13.7142 4.71266C13.8296 4.8183 13.9012 4.96338 13.9148 5.11924C13.9284 5.2751 13.8831 5.43041 13.7878 5.55447C13.6925 5.67854 13.5541 5.76234 13.4 5.78932C13.3639 5.79564 13.3273 5.7989 13.2906 5.79908L6.70589 5.79717C6.54019 5.79699 6.38135 5.73102 6.26428 5.61376C6.14721 5.49651 6.08149 5.33756 6.08157 5.17186ZM6.08294 7.67211C6.08293 7.59001 6.09909 7.50872 6.13051 7.43287C6.16192 7.35702 6.20797 7.2881 6.26603 7.23005C6.32408 7.172 6.39301 7.12596 6.46886 7.09456C6.54472 7.06315 6.62601 7.047 6.70811 7.04702L13.2929 7.04893C13.4502 7.04755 13.6023 7.10556 13.7187 7.21138C13.8352 7.31721 13.9074 7.46306 13.921 7.61982C13.9346 7.77658 13.8886 7.9327 13.7922 8.05702C13.6957 8.18134 13.5559 8.26471 13.4007 8.29047C13.3643 8.29696 13.3274 8.30002 13.2905 8.2996L6.70586 8.29846C6.54022 8.2979 6.38158 8.23163 6.26479 8.11419C6.14799 7.99674 6.08258 7.83774 6.08294 7.67211ZM6.08341 10.1717C6.0842 10.0064 6.15049 9.84804 6.26777 9.73146C6.38505 9.61487 6.54375 9.54952 6.70912 9.54971L9.99941 9.54786C10.1558 9.54769 10.3066 9.60615 10.422 9.71171C10.5373 9.81726 10.609 9.96224 10.6227 10.118C10.6364 10.2738 10.5912 10.4291 10.4961 10.5532C10.4009 10.6773 10.2627 10.7612 10.1087 10.7884C10.0726 10.7947 10.036 10.798 9.99933 10.7981L6.70696 10.7972C6.54137 10.7968 6.38271 10.7307 6.2658 10.6134C6.14889 10.4962 6.08329 10.3373 6.08341 10.1717Z" fill="#1C6CA9"/>
</svg>
