<svg width="34" height="34" viewBox="0 0 34 34" fill="none" xmlns="http://www.w3.org/2000/svg">
<path d="M16.9999 14.1666C18.5028 14.1666 19.9442 13.5696 21.0069 12.5069C22.0696 11.4442 22.6666 10.0028 22.6666 8.49992C22.6666 6.99703 22.0696 5.55569 21.0069 4.49298C19.9442 3.43027 18.5028 2.83325 16.9999 2.83325C15.497 2.83325 14.0557 3.43027 12.993 4.49298C11.9303 5.55569 11.3333 6.99703 11.3333 8.49992C11.3333 10.0028 11.9303 11.4442 12.993 12.5069C14.0557 13.5696 15.497 14.1666 16.9999 14.1666ZM7.79159 18.4166C8.73089 18.4166 9.63173 18.0434 10.2959 17.3793C10.9601 16.7151 11.3333 15.8142 11.3333 14.8749C11.3333 13.9356 10.9601 13.0348 10.2959 12.3706C9.63173 11.7064 8.73089 11.3333 7.79159 11.3333C6.85228 11.3333 5.95144 11.7064 5.28725 12.3706C4.62306 13.0348 4.24992 13.9356 4.24992 14.8749C4.24992 15.8142 4.62306 16.7151 5.28725 17.3793C5.95144 18.0434 6.85228 18.4166 7.79159 18.4166ZM29.7499 14.8749C29.7499 15.8142 29.3768 16.7151 28.7126 17.3793C28.0484 18.0434 27.1476 18.4166 26.2083 18.4166C25.2689 18.4166 24.3681 18.0434 23.7039 17.3793C23.0397 16.7151 22.6666 15.8142 22.6666 14.8749C22.6666 13.9356 23.0397 13.0348 23.7039 12.3706C24.3681 11.7064 25.2689 11.3333 26.2083 11.3333C27.1476 11.3333 28.0484 11.7064 28.7126 12.3706C29.3768 13.0348 29.7499 13.9356 29.7499 14.8749ZM16.9999 15.5833C18.8785 15.5833 20.6802 16.3295 22.0086 17.6579C23.337 18.9863 24.0833 20.788 24.0833 22.6666V31.1666H9.91659V22.6666C9.91659 20.788 10.6629 18.9863 11.9912 17.6579C13.3196 16.3295 15.1213 15.5833 16.9999 15.5833ZM7.08325 22.6666C7.08325 21.6848 7.22492 20.7371 7.49125 19.8418L7.25042 19.8616C6.03616 19.9949 4.91386 20.5718 4.09871 21.4816C3.28356 22.3914 2.83293 23.57 2.83325 24.7916V31.1666H7.08325V22.6666ZM31.1666 31.1666V24.7916C31.1667 23.5284 30.6848 22.3129 29.8192 21.393C28.9535 20.4731 27.7694 19.9183 26.5086 19.8418C26.7735 20.7371 26.9166 21.6848 26.9166 22.6666V31.1666H31.1666Z" fill="#1C6CA9"/>
</svg>
