<svg width="34" height="34" viewBox="0 0 34 34" fill="none" xmlns="http://www.w3.org/2000/svg">
<path d="M17.0001 14.1666C18.503 14.1666 19.9443 13.5696 21.007 12.5069C22.0697 11.4442 22.6667 10.0028 22.6667 8.49992C22.6667 6.99703 22.0697 5.55569 21.007 4.49298C19.9443 3.43027 18.503 2.83325 17.0001 2.83325C15.4972 2.83325 14.0558 3.43027 12.9931 4.49298C11.9304 5.55569 11.3334 6.99703 11.3334 8.49992C11.3334 10.0028 11.9304 11.4442 12.9931 12.5069C14.0558 13.5696 15.4972 14.1666 17.0001 14.1666ZM17.0001 15.5833C18.8787 15.5833 22.5482 15.5641 25.0088 17.6579C26.7567 19.1453 28.0834 21.788 28.0834 23.6666V31.1666H5.91675V23.6666C5.91675 21.788 7.24347 19.1453 8.99141 17.6579C11.4519 15.5641 15.1215 15.5833 17.0001 15.5833Z" fill="#1C6CA9"/>
</svg>
