<svg width="16" height="16" viewBox="0 0 16 16" fill="none" xmlns="http://www.w3.org/2000/svg">
<path d="M3.40895 4.22633C3.18307 4.00044 3.18315 3.63418 3.40915 3.40841C3.63496 3.18281 4.00086 3.18286 4.22661 3.40853L8.27361 7.45412C8.34543 7.5255 8.40243 7.61037 8.44132 7.70385C8.48022 7.79734 8.50024 7.89759 8.50024 7.99884C8.50024 8.1001 8.48022 8.20035 8.44132 8.29384C8.40243 8.38732 8.34543 8.47219 8.27361 8.54356L4.22658 12.5913C4.0009 12.817 3.63496 12.817 3.40927 12.5913C3.1836 12.3657 3.18358 11.9998 3.40923 11.7741L7.18263 8L3.40895 4.22633Z" fill="black"/>
<path d="M8.9092 4.22633C8.68331 4.00044 8.6834 3.63418 8.90939 3.40841C9.1352 3.18281 9.50111 3.18286 9.72685 3.40853L13.7738 7.45412C13.8457 7.5255 13.9027 7.61037 13.9416 7.70385C13.9805 7.79734 14.0005 7.89759 14.0005 7.99884C14.0005 8.1001 13.9805 8.20035 13.9416 8.29384C13.9027 8.38732 13.8457 8.47219 13.7738 8.54356L9.72682 12.5913C9.50114 12.817 9.13521 12.817 8.90951 12.5913C8.68384 12.3657 8.68382 11.9998 8.90947 11.7741L12.6829 8L8.9092 4.22633Z" fill="black"/>
</svg>
