<svg width="24" height="24" viewBox="0 0 24 24" fill="none" xmlns="http://www.w3.org/2000/svg">
<path fill-rule="evenodd" clip-rule="evenodd" d="M20.5299 12.53C20.6704 12.3894 20.7493 12.1988 20.7493 12C20.7493 11.8013 20.6704 11.6107 20.5299 11.47L14.5299 5.47003C14.4613 5.39634 14.3785 5.33724 14.2865 5.29625C14.1945 5.25526 14.0952 5.23322 13.9944 5.23144C13.8937 5.22966 13.7937 5.24819 13.7003 5.28591C13.6069 5.32363 13.5221 5.37977 13.4509 5.45099C13.3797 5.52221 13.3235 5.60704 13.2858 5.70043C13.2481 5.79382 13.2296 5.89385 13.2313 5.99455C13.2331 6.09525 13.2552 6.19457 13.2961 6.28657C13.3371 6.37857 13.3962 6.46137 13.4699 6.53003L18.1899 11.25H3.99993C3.80102 11.25 3.61025 11.329 3.4696 11.4697C3.32895 11.6104 3.24993 11.8011 3.24993 12C3.24993 12.1989 3.32895 12.3897 3.4696 12.5304C3.61025 12.671 3.80102 12.75 3.99993 12.75H18.1899L13.4699 17.47C13.3962 17.5387 13.3371 17.6215 13.2961 17.7135C13.2552 17.8055 13.2331 17.9048 13.2313 18.0055C13.2296 18.1062 13.2481 18.2062 13.2858 18.2996C13.3235 18.393 13.3797 18.4778 13.4509 18.5491C13.5221 18.6203 13.6069 18.6764 13.7003 18.7142C13.7937 18.7519 13.8937 18.7704 13.9944 18.7686C14.0952 18.7668 14.1945 18.7448 14.2865 18.7038C14.3785 18.6628 14.4613 18.6037 14.5299 18.53L20.5299 12.53Z" fill="white"/>
</svg>
