<svg width="20" height="20" viewBox="0 0 20 20" fill="none" xmlns="http://www.w3.org/2000/svg">
<path d="M10.8592 12.3636C11.8748 11.8233 12.6805 10.9589 13.1482 9.90786C13.6159 8.85685 13.7187 7.67964 13.4403 6.56348C13.1618 5.44731 12.5181 4.45632 11.6116 3.74814C10.705 3.03996 9.58772 2.65527 8.43735 2.65527C7.28698 2.65527 6.16965 3.03996 5.26311 3.74814C4.35656 4.45632 3.71286 5.44731 3.43442 6.56348C3.15598 7.67964 3.25879 8.85685 3.72648 9.90786C4.19418 10.9589 4.9999 11.8233 6.01548 12.3636C4.29673 12.8503 2.7436 13.8605 1.51469 15.3238C1.43907 15.4194 1.40366 15.5406 1.41597 15.6619C1.42828 15.7832 1.48734 15.8949 1.58063 15.9733C1.67391 16.0518 1.79409 16.0908 1.91567 16.0821C2.03725 16.0735 2.15067 16.0178 2.23188 15.9269C3.83657 14.0191 6.03969 12.9691 8.43735 12.9691C10.835 12.9691 13.0389 14.0191 14.6413 15.9269C14.6802 15.9761 14.7286 16.017 14.7836 16.0471C14.8386 16.0773 14.8991 16.0961 14.9616 16.1024C15.024 16.1088 15.087 16.1025 15.147 16.084C15.2069 16.0655 15.2626 16.0352 15.3106 15.9948C15.3586 15.9544 15.398 15.9048 15.4265 15.8489C15.455 15.793 15.472 15.732 15.4765 15.6694C15.4809 15.6068 15.4728 15.544 15.4525 15.4846C15.4322 15.4252 15.4002 15.3705 15.3584 15.3238C14.1295 13.8605 12.578 12.8503 10.8592 12.3636ZM4.2186 7.81282C4.2186 6.97843 4.46603 6.16278 4.92959 5.46901C5.39315 4.77524 6.05203 4.23451 6.82291 3.91521C7.59378 3.5959 8.44203 3.51235 9.26039 3.67513C10.0787 3.83792 10.8305 4.23971 11.4205 4.82972C12.0105 5.41972 12.4123 6.17143 12.575 6.98979C12.7378 7.80814 12.6543 8.65639 12.335 9.42727C12.0157 10.1981 11.4749 10.857 10.7812 11.3206C10.0874 11.7841 9.27174 12.0316 8.43735 12.0316C7.31885 12.0303 6.24651 11.5855 5.45561 10.7946C4.66471 10.0037 4.21984 8.93132 4.2186 7.81282ZM19.7061 10.3316L17.2061 12.8316C17.1182 12.9194 16.9991 12.9687 16.8749 12.9687C16.7506 12.9687 16.6315 12.9194 16.5436 12.8316L15.2936 11.5816C15.2108 11.4927 15.1657 11.3752 15.1679 11.2537C15.17 11.1323 15.2192 11.0164 15.3051 10.9306C15.391 10.8447 15.5068 10.7955 15.6283 10.7933C15.7497 10.7912 15.8672 10.8363 15.9561 10.9191L16.8749 11.837L19.0436 9.66907C19.0865 9.62302 19.1383 9.58608 19.1958 9.56046C19.2533 9.53484 19.3153 9.52106 19.3783 9.51995C19.4412 9.51884 19.5037 9.53042 19.5621 9.554C19.6205 9.57757 19.6735 9.61266 19.718 9.65717C19.7625 9.70169 19.7976 9.75471 19.8212 9.81307C19.8448 9.87144 19.8563 9.93396 19.8552 9.9969C19.8541 10.0598 19.8403 10.1219 19.8147 10.1794C19.7891 10.2369 19.7522 10.2887 19.7061 10.3316Z" fill="#16A34A"/>
</svg>
