<svg width="16" height="16" viewBox="0 0 16 16" fill="none" xmlns="http://www.w3.org/2000/svg">
<path d="M14.7999 11.7557L9.33431 2.26379C9.19773 2.03124 9.00275 1.83843 8.76869 1.70445C8.53463 1.57048 8.26963 1.5 7.99994 1.5C7.73025 1.5 7.46524 1.57048 7.23118 1.70445C6.99713 1.83843 6.80214 2.03124 6.66556 2.26379L1.19994 11.7557C1.06852 11.9806 0.999268 12.2364 0.999268 12.4969C0.999268 12.7574 1.06852 13.0132 1.19994 13.2382C1.33477 13.4721 1.52942 13.666 1.76391 13.7999C1.99841 13.9338 2.2643 14.0028 2.53431 14H13.4656C13.7354 14.0026 14.001 13.9334 14.2353 13.7996C14.4695 13.6657 14.664 13.4719 14.7987 13.2382C14.9303 13.0134 14.9998 12.7576 15 12.4971C15.0002 12.2366 14.9312 11.9807 14.7999 11.7557ZM13.9331 12.7375C13.8854 12.8188 13.817 12.886 13.7349 12.9321C13.6527 12.9782 13.5598 13.0017 13.4656 13H2.53431C2.44011 13.0017 2.34717 12.9782 2.26502 12.9321C2.18287 12.886 2.11446 12.8188 2.06681 12.7375C2.02365 12.6645 2.00089 12.5812 2.00089 12.4963C2.00089 12.4114 2.02365 12.3281 2.06681 12.255L7.53244 2.76317C7.58105 2.68227 7.64976 2.61534 7.7319 2.56887C7.81405 2.5224 7.90681 2.49797 8.00119 2.49797C8.09556 2.49797 8.18833 2.5224 8.27047 2.56887C8.35261 2.61534 8.42133 2.68227 8.46994 2.76317L13.9356 12.255C13.9783 12.3283 14.0007 12.4118 14.0002 12.4966C13.9998 12.5815 13.9766 12.6647 13.9331 12.7375ZM7.49994 9.00004V6.50004C7.49994 6.36743 7.55262 6.24026 7.64638 6.14649C7.74015 6.05272 7.86733 6.00004 7.99994 6.00004C8.13255 6.00004 8.25972 6.05272 8.35349 6.14649C8.44726 6.24026 8.49994 6.36743 8.49994 6.50004V9.00004C8.49994 9.13265 8.44726 9.25983 8.35349 9.3536C8.25972 9.44736 8.13255 9.50004 7.99994 9.50004C7.86733 9.50004 7.74015 9.44736 7.64638 9.3536C7.55262 9.25983 7.49994 9.13265 7.49994 9.00004ZM8.74994 11.25C8.74994 11.3984 8.70595 11.5434 8.62354 11.6667C8.54113 11.7901 8.42399 11.8862 8.28695 11.943C8.14991 11.9997 7.99911 12.0146 7.85362 11.9856C7.70813 11.9567 7.5745 11.8853 7.46961 11.7804C7.36472 11.6755 7.29329 11.5418 7.26435 11.3964C7.23541 11.2509 7.25026 11.1001 7.30703 10.963C7.36379 10.826 7.45992 10.7089 7.58326 10.6264C7.7066 10.544 7.8516 10.5 7.99994 10.5C8.19885 10.5 8.38962 10.5791 8.53027 10.7197C8.67092 10.8604 8.74994 11.0511 8.74994 11.25Z" fill="#DC2626"/>
</svg>
