<svg width="20" height="20" viewBox="0 0 20 20" fill="none" xmlns="http://www.w3.org/2000/svg">
<path d="M10 2.03125C8.42393 2.03125 6.88326 2.49861 5.5728 3.37423C4.26235 4.24984 3.24097 5.49439 2.63784 6.95049C2.0347 8.40659 1.87689 10.0088 2.18437 11.5546C2.49185 13.1004 3.2508 14.5203 4.36525 15.6348C5.4797 16.7492 6.89959 17.5082 8.44538 17.8156C9.99116 18.1231 11.5934 17.9653 13.0495 17.3622C14.5056 16.759 15.7502 15.7377 16.6258 14.4272C17.5014 13.1167 17.9688 11.5761 17.9688 10C17.9663 7.88732 17.1259 5.86188 15.632 4.36798C14.1381 2.87409 12.1127 2.03373 10 2.03125ZM10 17.0312C8.60935 17.0312 7.24993 16.6189 6.09365 15.8463C4.93737 15.0737 4.03615 13.9755 3.50398 12.6907C2.9718 11.406 2.83255 9.9922 3.10386 8.62827C3.37516 7.26434 4.04482 6.01149 5.02816 5.02816C6.0115 4.04482 7.26435 3.37516 8.62827 3.10385C9.9922 2.83255 11.406 2.97179 12.6907 3.50397C13.9755 4.03615 15.0737 4.93736 15.8463 6.09365C16.6189 7.24993 17.0313 8.60935 17.0313 10C17.0292 11.8642 16.2877 13.6514 14.9696 14.9696C13.6514 16.2877 11.8642 17.0292 10 17.0312ZM9.53125 10.625V6.25C9.53125 6.12568 9.58064 6.00645 9.66855 5.91854C9.75646 5.83064 9.87568 5.78125 10 5.78125C10.1243 5.78125 10.2436 5.83064 10.3315 5.91854C10.4194 6.00645 10.4688 6.12568 10.4688 6.25V10.625C10.4688 10.7493 10.4194 10.8685 10.3315 10.9565C10.2436 11.0444 10.1243 11.0938 10 11.0938C9.87568 11.0938 9.75646 11.0444 9.66855 10.9565C9.58064 10.8685 9.53125 10.7493 9.53125 10.625ZM10.7813 13.4375C10.7813 13.592 10.7354 13.7431 10.6496 13.8715C10.5637 14 10.4417 14.1002 10.299 14.1593C10.1562 14.2184 9.99914 14.2339 9.84759 14.2037C9.69604 14.1736 9.55684 14.0992 9.44758 13.9899C9.33832 13.8807 9.26391 13.7415 9.23377 13.5899C9.20362 13.4384 9.21909 13.2813 9.27822 13.1385C9.33735 12.9958 9.43749 12.8738 9.56596 12.7879C9.69444 12.7021 9.84549 12.6562 10 12.6562C10.2072 12.6562 10.4059 12.7386 10.5524 12.8851C10.6989 13.0316 10.7813 13.2303 10.7813 13.4375Z" fill="#DC2626"/>
</svg>
